{
.appVersion = "3309";
.formatVersion = 3;
axes = (
{
name = Weight;
tag = wght;
}
);
classes = (
{
code = "zero.dnom one.dnom two.dnom three.dnom four.dnom five.dnom six.dnom seven.dnom eight.dnom nine.dnom equal.dnom hyphen.dnom minus.dnom parenleft.dnom parenright.dnom plus.dnom";
name = dnom_frac;
},
{
code = "zero one two three four five six seven eight nine equal hyphen minus parenleft parenright plus";
name = dnom_frac_numr_ordn_sinf_subs_sups;
},
{
code = "slash zero one two three four five six seven eight nine";
name = frac;
},
{
code = "A O a o zero.numr one.numr two.numr three.numr four.numr five.numr six.numr seven.numr eight.numr nine.numr equal.numr hyphen.numr minus.numr parenleft.numr parenright.numr plus.numr";
name = frac_ordn;
},
{
code = "ordfeminine ordmasculine ordfeminine ordmasculine zero.dnom one.dnom two.dnom three.dnom four.dnom five.dnom six.dnom seven.dnom eight.dnom nine.dnom equal.dnom hyphen.dnom minus.dnom parenleft.dnom parenright.dnom plus.dnom";
name = frac_ordn2;
},
{
code = "zero.numr one.numr two.numr three.numr four.numr five.numr six.numr seven.numr eight.numr nine.numr equal.numr hyphen.numr minus.numr parenleft.numr parenright.numr plus.numr";
name = frac_numr;
},
{
code = "zero.inferior one.inferior two.inferior three.inferior four.inferior five.inferior six.inferior seven.inferior eight.inferior nine.inferior plus.inferior minus.inferior equal.inferior parenleft.inferior parenright.inferior hyphen.inferior";
name = sinf_subs;
},
{
code = "zero.superior onesuperior twosuperior threesuperior four.superior five.superior six.superior seven.superior eight.superior nine.superior plus.superior minus.superior equal.superior parenleft.superior parenright.superior hyphen.superior";
name = sups;
},
{

glyphs = (
{
color = 6;
glyphname = A;
kernLeft = A1;
kernRight = A;
lastChange = "2024-07-04 14:20:28 +0000";
layers = (
{
anchors = (
{
name = bottom;
pos = (328,-20);
},
{
name = ogonek;
pos = (650,-2);
},
{
name = top;
pos = (328,719);
},
{
name = topgr;
pos = (66,500);
}
);
layerId = "3DC573FB-EF22-4F14-BBA7-D097D7391B70";
shapes = (
{
closed = 1;
nodes = (
(658,0,l),
(431,700,l),
(276,700,l),
(459,0,l)
);
},
{
closed = 1;
nodes = (
(459,106,l),
(415,236,l),
(237,236,l),
(193,106,l)
);
},
{
closed = 1;
nodes = (
(196,0,l),
(379,700,l),
(224,700,l),
(-3,0,l)
);
}
);
width = 655;
},
{
anchors = (
{
name = bottom;
pos = (328,-20);
},
{
name = ogonek;
pos = (640,-2);
},
{
name = top;
pos = (328,719);
},
{
name = topgr;
pos = (76,500);
}
);
layerId = "48315E7A-EC54-430B-915E-ECFED2D8F863";
shapes = (
{
closed = 1;
nodes = (
(648,0,l),
(421,700,l),
(283,700,l),
(474,0,l)
);
},
{
closed = 1;
nodes = (
(459,114,l),
(415,234,l),
(237,234,l),
(193,114,l)
);
},
{
closed = 1;
nodes = (
(181,0,l),
(372,700,l),
(234,700,l),
(7,0,l)
);
}
);
width = 655;
},
{
anchors = (
{
name = bottom;
pos = (328,-20);
},
{
name = ogonek;
pos = (632,-1);
},
{
name = top;
pos = (328,719);
},
{
name = topgr;
pos = (86,500);
}
);
layerId = "87250A93-E16C-45E7-81EC-EDE6CBCB21F2";
shapes = (
{
closed = 1;
nodes = (
(638,0,l),
(411,700,l),
(287,700,l),
(485,0,l)
);
},
{
closed = 1;
nodes = (
(469,119,l),
(435,234,l,{
name = dv03;
}),
(217,234,l,{
name = dv02;
}),
(183,119,l,{
name = dv01;
})
);
},
{
closed = 1;
nodes = (
(170,0,l),
(368,700,l),
(244,700,l),
(17,0,l)
);
}
);
width = 655;
},
{
anchors = (
{
name = bottom;
pos = (328,-20);
},
{
name = ogonek;
pos = (627,-2);
},
{
name = top;
pos = (328,719);
},
{
name = topgr;
pos = (96,500);
}
);
layerId = "C3B1342C-4554-42D4-BF1D-4BC45B7A32A8";
shapes = (
{
closed = 1;
nodes = (
(633,0,l),
(406,700,l),
(298,700,l),
(507,0,l)
);
},
{
closed = 1;
nodes = (
(509,131,l),
(475,226,l,{
name = dv03;
}),
(177,226,l,{
name = dv02;
}),
(143,131,l,{
name = dv01;
})
);
},
{
closed = 1;
nodes = (
(148,0,l),
(357,700,l),
(249,700,l),
(22,0,l)
);
}
);
width = 655;
},
{
anchors = (
{
name = bottom;
pos = (328,-20);
},
{
name = ogonek;
pos = (620,-3);
},
{
name = top;
pos = (328,719);
},
{
name = topgr;
pos = (106,500);
}
);
layerId = "966EEAD7-910A-41B6-BB10-BC7C26207015";
shapes = (
{
closed = 1;
nodes = (
(623,0,l),
(396,700,l),
(313,700,l),
(527,0,l)
);
},
{
closed = 1;
nodes = (
(509,141,l),
(475,216,l,{
name = dv03;
}),
(177,216,l,{
name = dv02;
}),
(143,141,l,{
name = dv01;
})
);
},
{
closed = 1;
nodes = (
(128,0,l),
(342,700,l),
(259,700,l),
(32,0,l)
);
}
);
width = 655;
},
{
anchors = (
{
name = bottom;
pos = (328,-20);
},
{
name = ogonek;
pos = (613,-3);
},
{
name = top;
pos = (328,719);
},
{
name = topgr;
pos = (106,500);
}
);
layerId = "15700EBA-52AC-4D6B-A2D3-7F45C26CE079";
shapes = (
{
closed = 1;
nodes = (
(613,0,l),
(386,700,l),
(323,700,l),
(550,0,l)
);
},
{
closed = 1;
nodes = (
(529,154,l),
(495,204,l,{
name = dv03;
}),
(157,204,l,{
name = dv02;
}),
(123,154,l,{
name = dv01;
})
);
},
{
closed = 1;
nodes = (
(105,0,l),
(332,700,l),
(269,700,l),
(42,0,l)
);
}
);
width = 655;
}
);
unicode = 65;
},
{
color = 6;
glyphname = Aogonek;
kernLeft = A1;
kernRight = A;
lastChange = "2024-07-04 14:33:30 +0000";
layers = (
{
anchors = (
{
name = bottom;
pos = (328,-20);
},
{
name = top;
pos = (328,719);
},
{
name = topgr;
pos = (66,500);
}
);
layerId = "3DC573FB-EF22-4F14-BBA7-D097D7391B70";
shapes = (
{
closed = 1;
nodes = (
(658,0,l),
(431,700,l),
(276,700,l),
(459,0,l)
);
},
{
closed = 1;
nodes = (
(658,-182,l),
(615.672,-168,o),
(595,-137,o),
(595,-103,cs),
(595,-66,o),
(618.619,-23,o),
(657,1,c),
(597.709,4,l),
(501.236,-13,o),
(453,-52,o),
(453,-104,cs),
(453,-157,o),
(504.25,-195,o),
(583.637,-205,c)
);
},
{
closed = 1;
nodes = (
(459,106,l),
(415,236,l),
(237,236,l),
(193,106,l)
);
},
{
closed = 1;
nodes = (
(196,0,l),
(379,700,l),
(224,700,l),
(-3,0,l)
);
}
);
width = 655;
},
{
anchors = (
{
name = bottom;
pos = (328,-20);
},
{
name = top;
pos = (328,719);
},
{
name = topgr;
pos = (76,500);
}
);
layerId = "48315E7A-EC54-430B-915E-ECFED2D8F863";
shapes = (
{
closed = 1;
nodes = (
(648,0,l),
(421,700,l),
(283,700,l),
(474,0,l)
);
},
{
closed = 1;
nodes = (
(648,-182,l),
(605,-168,o),
(584,-137,o),
(584,-103,cs),
(584,-66,o),
(608,-23,o),
(647,1,c),
(608,4,l),
(512,-13,o),
(464,-52,o),
(464,-105,cs),
(464,-157,o),
(510,-195,o),
(584,-205,c)
);
},
{
closed = 1;
nodes = (
(459,114,l),
(415,234,l),
(237,234,l),
(193,114,l)
);
},
{
closed = 1;
nodes = (
(181,0,l),
(372,700,l),
(234,700,l),
(7,0,l)
);
}
);
width = 655;
},
{
anchors = (
{
name = bottom;
pos = (328,-20);
},
{
name = top;
pos = (328,719);
},
{
name = topgr;
pos = (86,500);
}
);
layerId = "87250A93-E16C-45E7-81EC-EDE6CBCB21F2";
shapes = (
{
closed = 1;
nodes = (
(638,0,l),
(411,700,l),
(287,700,l),
(485,0,l)
);
},
{
closed = 1;
nodes = (
(638,-181,l),
(595,-167,o),
(574,-136,o),
(574,-102,cs),
(574,-65,o),
(598,-23,o),
(637,1,c),
(604,4,l),
(515,-12,o),
(464,-54,o),
(464,-107,cs),
(464,-157,o),
(508,-194,o),
(581,-204,c)
);
},
{
closed = 1;
nodes = (
(469,119,l),
(435,234,l,{
name = dv03;
}),
(217,234,l,{
name = dv02;
}),
(183,119,l,{
name = dv01;
})
);
},
{
closed = 1;
nodes = (
(170,0,l),
(368,700,l),
(244,700,l),
(17,0,l)
);
}
);
width = 655;
},
{
anchors = (
{
name = bottom;
pos = (328,-20);
},
{
name = top;
pos = (328,719);
},
{
name = topgr;
pos = (96,500);
}
);
layerId = "C3B1342C-4554-42D4-BF1D-4BC45B7A32A8";
shapes = (
{
closed = 1;
nodes = (
(633,0,l),
(406,700,l),
(298,700,l),
(507,0,l)
);
},
{
closed = 1;
nodes = (
(634,-182,l),
(590,-168,o),
(568,-137,o),
(568,-103,cs),
(568,-66,o),
(593,-24,o),
(633,0,c),
(610,3,l),
(527,-13,o),
(475,-55,o),
(475,-109,cs),
(475,-158,o),
(519,-195,o),
(587,-205,c)
);
},
{
closed = 1;
nodes = (
(509,131,l),
(475,226,l,{
name = dv03;
}),
(177,226,l,{
name = dv02;
}),
(143,131,l,{
name = dv01;
})
);
},
{
closed = 1;
nodes = (
(148,0,l),
(357,700,l),
(249,700,l),
(22,0,l)
);
}
);
width = 655;
},
{
anchors = (
{
name = bottom;
pos = (328,-20);
},
{
name = top;
pos = (328,719);
},
{
name = topgr;
pos = (106,500);
}
);
layerId = "966EEAD7-910A-41B6-BB10-BC7C26207015";
shapes = (
{
closed = 1;
nodes = (
(623,0,l),
(396,700,l),
(313,700,l),
(527,0,l)
);
},
{
closed = 1;
nodes = (
(624,-183,l),
(580,-171,o),
(557,-143,o),
(557,-103,cs),
(557,-62,o),
(582,-22,o),
(623,0,c),
(602,3,l),
(529,-12,o),
(482,-59,o),
(482,-110,cs),
(482,-157,o),
(522,-196,o),
(582,-206,c)
);
},
{
closed = 1;
nodes = (
(509,141,l),
(475,216,l,{
name = dv03;
}),
(177,216,l,{
name = dv02;
}),
(143,141,l,{
name = dv01;
})
);
},
{
closed = 1;
nodes = (
(128,0,l),
(342,700,l),
(259,700,l),
(32,0,l)
);
}
);
width = 655;
},
{
anchors = (
{
name = bottom;
pos = (328,-20);
},
{
name = top;
pos = (328,719);
},
{
name = topgr;
pos = (106,500);
}
);
layerId = "15700EBA-52AC-4D6B-A2D3-7F45C26CE079";
shapes = (
{
closed = 1;
nodes = (
(613,0,l),
(386,700,l),
(323,700,l),
(550,0,l)
);
},
{
closed = 1;
nodes = (
(614,-183,l),
(570,-171,o),
(547,-143,o),
(547,-103,cs),
(547,-62,o),
(572,-22,o),
(613,0,c),
(595,3,l),
(535,-12,o),
(492,-59,o),
(492,-108,cs),
(492,-154,o),
(531,-196,o),
(578,-206,c)
);
},
{
closed = 1;
nodes = (
(529,154,l),
(495,204,l,{
name = dv03;
}),
(157,204,l,{
name = dv02;
}),
(123,154,l,{
name = dv01;
})
);
},
{
closed = 1;
nodes = (
(105,0,l),
(332,700,l),
(269,700,l),
(42,0,l)
);
}
);
width = 655;
}
);
unicode = 260;
},
{
color = 6;
glyphname = AE;
kernLeft = A1;
kernRight = E;
lastChange = "2024-07-04 14:20:28 +0000";
layers = (
{
anchors = (
{
name = bottom;
pos = (480,-20);
},
{
name = top;
pos = (480,719);
}
);
layerId = "3DC573FB-EF22-4F14-BBA7-D097D7391B70";
shapes = (
{
closed = 1;
nodes = (
(835,0,l),
(835,140,l),
(588,140,l),
(588,297,l),
(795,297,l),
(795,437,l),
(588,437,l),
(588,560,l),
(820,560,l),
(820,700,l),
(398,700,l),
(398,0,l)
);
},
{
closed = 1;
nodes = (
(533,106,l),
(489,246,l),
(237,246,l),
(193,106,l)
);
},
{
closed = 1;
nodes = (
(196,0,l),
(397,700,l),
(224,700,l),
(-3,0,l)
);
},
{
closed = 1;
nodes = (
(542,560,l),
(543,700,l),
(300,700,l),
(256,560,l)
);
}
);
width = 880;
},
{
anchors = (
{
name = bottom;
pos = (480,-20);
},
{
name = top;
pos = (480,719);
}
);
layerId = "48315E7A-EC54-430B-915E-ECFED2D8F863";
shapes = (
{
closed = 1;
nodes = (
(835,0,l),
(835,130,l),
(564,130,l),
(564,300,l),
(795,300,l),
(795,430,l),
(564,430,l),
(564,570,l),
(820,570,l),
(820,700,l),
(398,700,l),
(398,0,l)
);
},
{
closed = 1;
nodes = (
(527,111,l),
(483,241,l),
(237,241,l),
(193,111,l)
);
},
{
closed = 1;
nodes = (
(181,0,l),
(382,700,l),
(234,700,l),
(7,0,l)
);
},
{
closed = 1;
nodes = (
(499,570,l),
(500,700,l),
(257,700,l),
(213,570,l)
);
}
);
width = 880;
},
{
anchors = (
{
name = bottom;
pos = (480,-20);
},
{
name = top;
pos = (480,719);
}
);
layerId = "87250A93-E16C-45E7-81EC-EDE6CBCB21F2";
shapes = (
{
closed = 1;
nodes = (
(835,0,l,{
name = ab01;
}),
(835,120,l,{
name = sv01;
}),
(544,120,l),
(544,305,l,{
name = dv01;
}),
(795,305,l),
(795,425,l),
(544,425,l,{
name = dv02;
}),
(544,580,l,{
name = sv02;
}),
(820,580,l),
(820,700,l,{
name = at01;
}),
(398,700,l),
(398,0,l)
);
},
{
closed = 1;
nodes = (
(469,119,l),
(435,239,l,{
name = dv03;
}),
(217,239,l,{
name = dv02;
}),
(183,119,l,{
name = dv01;
})
);
},
{
closed = 1;
nodes = (
(170,0,l),
(371,700,l),
(244,700,l),
(17,0,l)
);
},
{
closed = 1;
nodes = (
(532,580,l),
(533,700,l),
(290,700,l),
(246,580,l)
);
}
);
width = 880;
},
{
anchors = (
{
name = bottom;
pos = (480,-20);
},
{
name = top;
pos = (480,719);
}
);
layerId = "C3B1342C-4554-42D4-BF1D-4BC45B7A32A8";
shapes = (
{
closed = 1;
nodes = (
(825,0,l,{
name = ab01;
}),
(825,100,l,{
name = sv01;
}),
(524,100,l),
(524,315,l,{
name = dv01;
}),
(785,315,l),
(785,415,l),
(524,415,l,{
name = dv02;
}),
(524,600,l,{
name = sv02;
}),
(810,600,l),
(810,700,l,{
name = at01;
}),
(404,700,l),
(404,0,l)
);
},
{
closed = 1;
nodes = (
(504,131,l),
(470,231,l,{
name = dv03;
}),
(172,231,l,{
name = dv02;
}),
(138,131,l,{
name = dv01;
})
);
},
{
closed = 1;
nodes = (
(148,0,l),
(349,700,l),
(249,700,l),
(22,0,l)
);
},
{
closed = 1;
nodes = (
(489,600,l),
(490,700,l),
(304,700,l),
(270,600,l)
);
}
);
width = 880;
},
{
anchors = (
{
name = bottom;
pos = (480,-20);
},
{
name = top;
pos = (480,719);
}
);
layerId = "966EEAD7-910A-41B6-BB10-BC7C26207015";
shapes = (
{
closed = 1;
nodes = (
(815,0,l,{
name = ab01;
}),
(815,80,l,{
name = sv01;
}),
(504,80,l),
(504,325,l,{
name = dv01;
}),
(775,325,l),
(775,405,l),
(504,405,l,{
name = dv02;
}),
(504,620,l,{
name = sv02;
}),
(801,620,l),
(801,700,l,{
name = at01;
}),
(414,700,l),
(414,0,l)
);
},
{
closed = 1;
nodes = (
(491,141,l),
(457,221,l,{
name = dv03;
}),
(172,221,l,{
name = dv02;
}),
(138,141,l,{
name = dv01;
})
);
},
{
closed = 1;
nodes = (
(128,0,l),
(339,700,l),
(259,700,l),
(32,0,l)
);
},
{
closed = 1;
nodes = (
(489,620,l),
(490,700,l),
(304,700,l),
(270,620,l)
);
}
);
width = 880;
},
{
anchors = (
{
name = bottom;
pos = (480,-20);
},
{
name = top;
pos = (480,719);
}
);
layerId = "15700EBA-52AC-4D6B-A2D3-7F45C26CE079";
shapes = (
{
closed = 1;
nodes = (
(805,0,l,{
name = ab01;
}),
(805,54,l,{
name = sv01;
}),
(484,54,l),
(484,338,l,{
name = dv01;
}),
(765,338,l),
(765,392,l),
(484,392,l,{
name = dv02;
}),
(484,646,l,{
name = sv02;
}),
(793,646,l),
(793,700,l,{
name = at01;
}),
(424,700,l),
(424,0,l)
);
},
{
closed = 1;
nodes = (
(471,157,l),
(437,211,l,{
name = dv03;
}),
(162,211,l,{
name = dv02;
}),
(138,157,l,{
name = dv01;
})
);
},
{
closed = 1;
nodes = (
(105,0,l),
(332,700,l),
(269,700,l),
(42,0,l)
);
},
{
closed = 1;
nodes = (
(469,646,l),
(470,700,l),
(304,700,l),
(270,646,l)
);
}
);
width = 880;
}
);
unicode = 198;
},
{
color = 6;
glyphname = B;
kernLeft = B;
kernRight = B1;
lastChange = "2024-07-04 14:20:28 +0000";
layers = (
{
anchors = (
{
name = bottom;
pos = (328,-20);
},
{
name = top;
pos = (285,719);
}
);
associatedMasterId = "15700EBA-52AC-4D6B-A2D3-7F45C26CE079";
layerId = "526B3205-964B-43ED-A08E-E7641FE0513C";
name = "#instance";
shapes = (
{
closed = 1;
nodes = (
(98,0,l,{
name = ab01;
}),
(356,0,ls),
(483,0,o),
(574,83,o),
(574,199,cs),
(574,311,o),
(489,372,o),
(335,372,c,{
name = dv02;
}),
(462,372,o),
(528,425,o),
(528,528,cs),
(528,636,o),
(455,700,o),
(332,700,cs,{
name = at01;
}),
(98,700,l)
);
},
{
closed = 1;
nodes = (
(158,54,l),
(158,646,l,{
name = sv02;
}),
(326,646,ls),
(417,646,o),
(467,613,o),
(467,531,cs,{
name = sv04;
}),
(467,447,o),
(415,396,o),
(324,396,cs,{
name = sv03;
}),
(110,396,l),
(110,346,l),
(334,346,ls,{
name = dv01;
}),
(452,346,o),
(513,296,o),
(513,199,cs),
(513,102,o),
(453,54,o),
(334,54,cs,{
name = sv01;
})
);
}
);
width = 634;
},
{
anchors = (
{
name = bottom;
pos = (328,-20);
},
{
name = top;
pos = (308,719);
}
);
layerId = "3DC573FB-EF22-4F14-BBA7-D097D7391B70";
shapes = (
{
closed = 1;
nodes = (
(356,0,ls),
(518,0,o),
(604,97,o),
(604,205,cs),
(604,328,o),
(494,372,o),
(365,372,c),
(493,372,o),
(558,426,o),
(558,518,cs),
(558,614,o),
(487,700,o),
(316,700,cs),
(68,700,l),
(68,0,l)
);
},
{
closed = 1;
nodes = (
(258,560,l),
(284,560,ls),
(343,560,o),
(369,538,o),
(369,501,cs),
(369,461,o),
(338,436,o),
(292,436,cs),
(100,436,l),
(100,300,l),
(286,300,ls),
(373,300,o),
(416,287,o),
(416,223,cs),
(416,163,o),
(377,140,o),
(301,140,cs),
(258,140,l)
);
}
);
width = 634;
},
{
anchors = (
{
name = bottom;
pos = (328,-20);
},
{
name = top;
pos = (308,719);
}
);
layerId = "48315E7A-EC54-430B-915E-ECFED2D8F863";
shapes = (
{
closed = 1;
nodes = (
(356,0,ls),
(518,0,o),
(604,98,o),
(604,206,cs),
(604,329,o),
(494,372,o),
(365,372,c),
(493,372,o),
(558,426,o),
(558,518,cs),
(558,614,o),
(487,700,o),
(316,700,cs),
(68,700,l),
(68,0,l)
);
},
{
closed = 1;
nodes = (
(234,570,l),
(288,570,ls),
(367,570,o),
(391,542,o),
(391,505,cs),
(391,464,o),
(362,431,o),
(306,431,cs),
(100,431,l),
(100,305,l),
(310,305,ls),
(397,305,o),
(437,282,o),
(437,219,cs),
(437,159,o),
(401,130,o),
(325,130,cs),
(234,130,l)
);
}
);
width = 634;
},
{
anchors = (
{
name = bottom;
pos = (328,-20);
},
{
name = top;
pos = (308,719);
}
);
layerId = "87250A93-E16C-45E7-81EC-EDE6CBCB21F2";
shapes = (
{
closed = 1;
nodes = (
(356,0,ls),
(518,0,o),
(604,98,o),
(604,206,cs),
(604,329,o),
(494,372,o),
(365,372,c,{
name = dv02;
}),
(493,372,o),
(558,426,o),
(558,518,cs),
(558,614,o),
(487,700,o),
(316,700,cs,{
name = at01;
}),
(68,700,l),
(68,0,l,{
name = ab01;
})
);
},
{
closed = 1;
nodes = (
(214,580,l,{
name = sv02;
}),
(288,580,ls),
(375,580,o),
(412,564,o),
(412,507,cs,{
name = sv04;
}),
(412,449,o),
(373,426,o),
(306,426,cs,{
name = sv03;
}),
(100,426,l),
(100,310,l),
(310,310,ls,{
name = dv01;
}),
(421,310,o),
(458,287,o),
(458,217,cs),
(458,148,o),
(422,120,o),
(325,120,cs,{
name = sv01;
}),
(214,120,l)
);
}
);
width = 634;
},
{
anchors = (
{
name = bottom;
pos = (328,-20);
},
{
name = top;
pos = (298,719);
}
);
layerId = "C3B1342C-4554-42D4-BF1D-4BC45B7A32A8";
shapes = (
{
closed = 1;
nodes = (
(356,0,ls),
(495,0,o),
(594,83,o),
(594,201,cs),
(594,311,o),
(509,372,o),
(355,372,c,{
name = dv02;
}),
(482,372,o),
(548,425,o),
(548,525,cs),
(548,636,o),
(467,700,o),
(332,700,cs,{
name = at01;
}),
(78,700,l),
(78,0,l,{
name = ab01;
})
);
},
{
closed = 1;
nodes = (
(198,600,l,{
name = sv02;
}),
(306,600,ls),
(388,600,o),
(429,581,o),
(429,518,cs,{
name = sv04;
}),
(429,457,o),
(390,416,o),
(306,416,cs,{
name = sv03;
}),
(100,416,l),
(100,320,l),
(310,320,ls,{
name = dv01;
}),
(429,320,o),
(475,282,o),
(475,210,cs),
(475,140,o),
(432,100,o),
(324,100,cs,{
name = sv01;
}),
(198,100,l)
);
}
);
width = 634;
},
{
anchors = (
{
name = bottom;
pos = (328,-20);
},
{
name = top;
pos = (288,719);
}
);
layerId = "966EEAD7-910A-41B6-BB10-BC7C26207015";
shapes = (
{
closed = 1;
nodes = (
(356,0,ls),
(489,0,o),
(584,73,o),
(584,196,cs),
(584,312,o),
(499,372,o),
(345,372,c,{
name = dv02;
}),
(472,372,o),
(538,425,o),
(538,526,cs),
(538,636,o),
(461,700,o),
(332,700,cs,{
name = at01;
}),
(88,700,l),
(88,0,l,{
name = ab01;
})
);
},
{
closed = 1;
nodes = (
(178,620,l,{
name = sv02;
}),
(317,620,ls),
(407,620,o),
(447,589,o),
(447,520,cs,{
name = sv04;
}),
(447,451,o),
(406,406,o),
(317,406,cs,{
name = sv03;
}),
(100,406,l),
(100,330,l),
(328,330,ls,{
name = dv01;
}),
(448,330,o),
(493,287,o),
(493,207,cs),
(493,127,o),
(447,80,o),
(327,80,cs,{
name = sv01;
}),
(178,80,l)
);
}
);
width = 634;
},
{
anchors = (
{
name = bottom;
pos = (328,-20);
},
{
name = top;
pos = (285,719);
}
);
layerId = "15700EBA-52AC-4D6B-A2D3-7F45C26CE079";
shapes = (
{
closed = 1;
nodes = (
(356,0,ls),
(483,0,o),
(574,83,o),
(574,199,cs),
(574,311,o),
(489,372,o),
(335,372,c,{
name = dv02;
}),
(462,372,o),
(528,425,o),
(528,528,cs),
(528,636,o),
(455,700,o),
(332,700,cs,{
name = at01;
}),
(98,700,l),
(98,0,l,{
name = ab01;
})
);
},
{
closed = 1;
nodes = (
(158,646,l,{
name = sv02;
}),
(326,646,ls),
(417,646,o),
(467,613,o),
(467,531,cs,{
name = sv04;
}),
(467,447,o),
(415,396,o),
(324,396,cs,{
name = sv03;
}),
(110,396,l),
(110,346,l),
(334,346,ls,{
name = dv01;
}),
(452,346,o),
(513,296,o),
(513,199,cs),
(513,102,o),
(453,54,o),
(334,54,cs,{
name = sv01;
}),
(158,54,l)
);
}
);
width = 634;
}
);
unicode = 66;
},
{
color = 6;
glyphname = C;
kernLeft = C1;
kernRight = C;
lastChange = "2024-07-04 14:33:30 +0000";
layers = (
{
anchors = (
{
name = bottom;
pos = (416,-20);
},
{
name = top;
pos = (386,719);
}
);
layerId = "3DC573FB-EF22-4F14-BBA7-D097D7391B70";
shapes = (
{
closed = 1;
nodes = (
(511.587,-20,o),
(596.912,25,o),
(667,102,c),
(561,208,l),
(503.671,147.864,o),
(453.507,124,o),
(393.107,124,cs),
(281.519,124,o),
(216,206.719,o),
(216,357.386,cs),
(216,499.19,o),
(274.353,576,o),
(387.988,576,cs),
(453.507,576,o),
(505.718,550.907,o),
(561,493,c),
(667,599,l),
(612.148,665,o),
(514.634,720,o),
(381.568,720,cs),
(163.177,720,o),
(23,572,o),
(23,361,cs),
(23,140,o),
(175.366,-20,o),
(394.773,-20,cs)
);
}
);
width = 684;
},
{
anchors = (
{
name = bottom;
pos = (416,-20);
},
{
name = top;
pos = (386,719);
}
);
layerId = "48315E7A-EC54-430B-915E-ECFED2D8F863";
shapes = (
{
closed = 1;
nodes = (
(514.839,-20,o),
(590.436,28,o),
(662,107,c),
(567,202,l),
(517.601,144,o),
(454.087,110,o),
(387.549,110,cs),
(273.628,110,o),
(196,209,o),
(196,358,cs),
(196,499,o),
(265.567,589,o),
(381.512,589,cs),
(449.063,589,o),
(514.597,559,o),
(564,501,c),
(659,596,l),
(597.513,670,o),
(503.77,720,o),
(378.78,720,cs),
(164.078,720,o),
(28,573,o),
(28,360,cs),
(28,139,o),
(174.153,-20,o),
(393.886,-20,cs)
);
}
);
width = 684;
},
{
anchors = (
{
name = bottom;
pos = (406,-19);
},
{
name = top;
pos = (386,719);
}
);
layerId = "87250A93-E16C-45E7-81EC-EDE6CBCB21F2";
shapes = (
{
closed = 1;
nodes = (
(502,-20,o),
(583,22,o),
(658,106,c),
(573,191,l),
(525.244,135.549,o),
(468.533,104,o),
(389.934,104,cs,{
name = dv02;
}),
(255.619,104,o),
(181,199.639,o),
(181,355.423,cs),
(181,508.249,o),
(253.629,596,o),
(384.957,596,cs,{
name = dv03;
}),
(465.545,596,o),
(524.244,564.112,o),
(572,510,c),
(657,595,l),
(593,674,o),
(504,720,o),
(380,720,cs,{
name = dv04;
}),
(163,720,o),
(33,580,o),
(33,360,cs),
(33,130,o),
(175,-20,o),
(389,-20,cs,{
name = dv01;
})
);
}
);
width = 684;
},
{
anchors = (
{
name = bottom;
pos = (402,-20);
},
{
name = top;
pos = (382,719);
}
);
layerId = "C3B1342C-4554-42D4-BF1D-4BC45B7A32A8";
shapes = (
{
closed = 1;
nodes = (
(488,-20,o),
(572,18,o),
(647,102,c),
(576,173,l),
(534.407,117.495,o),
(473.007,84,o),
(394.772,84,cs,{
name = dv02;
}),
(266.031,84,o),
(167,188.623,o),
(167,365.299,cs),
(167,524.208,o),
(246.225,616,o),
(386.85,616,cs,{
name = dv03;
}),
(462.114,616,o),
(523.513,586.989,o),
(576,528,c),
(647,599,l),
(581,681,o),
(492,720,o),
(379,720,cs,{
name = dv04;
}),
(166,720,o),
(43,581,o),
(43,365,cs),
(43,135,o),
(182,-20,o),
(387,-20,cs,{
name = dv01;
})
);
}
);
width = 684;
},
{
anchors = (
{
name = bottom;
pos = (401,-20);
},
{
name = top;
pos = (381,719);
}
);
layerId = "966EEAD7-910A-41B6-BB10-BC7C26207015";
shapes = (
{
closed = 1;
nodes = (
(483,-20,o),
(563,18,o),
(637,102,c),
(579,160,l),
(527.477,93,o),
(460.101,60,o),
(385.789,60,cs,{
name = dv02;
}),
(243.11,60,o),
(147,182,o),
(147,366,cs),
(147,542,o),
(234.193,640,o),
(373.899,640,cs,{
name = dv03;
}),
(453.165,640,o),
(517.569,609,o),
(579,541,c),
(637,599,l),
(572,681,o),
(487,720,o),
(378,720,cs,{
name = dv04;
}),
(172,720,o),
(53,581,o),
(53,365,cs),
(53,135,o),
(187,-20,o),
(385,-20,cs,{
name = dv01;
})
);
}
);
width = 684;
},
{
anchors = (
{
name = bottom;
pos = (393,-19);
},
{
name = top;
pos = (373,719);
}
);
layerId = "15700EBA-52AC-4D6B-A2D3-7F45C26CE079";
shapes = (
{
closed = 1;
nodes = (
(477,-20,o),
(561,22,o),
(627,101,c),
(584,144,l),
(531,73,o),
(458,35,o),
(376,35,cs),
(225,35,o),
(124,165,o),
(124,364,cs),
(124,555,o),
(220,665,o),
(369,665,cs),
(456,665,o),
(530,628,o),
(584,556,c),
(627,599,l),
(559,680,o),
(472,720,o),
(371,720,cs),
(186,720,o),
(63,585,o),
(63,362,cs),
(63,138,o),
(188,-20,o),
(379,-20,cs)
);
}
);
width = 684;
}
);
unicode = 67;
},
{
color = 6;
glyphname = Ccedilla;
kernLeft = C1;
kernRight = C;
lastChange = "2024-07-04 14:33:30 +0000";
layers = (
{
anchors = (
{
name = bottom;
pos = (373,-217);
},
{
name = top;
pos = (373,719);
}
);
associatedMasterId = "15700EBA-52AC-4D6B-A2D3-7F45C26CE079";
layerId = "526B3205-964B-43ED-A08E-E7641FE0513C";
name = "#instance";
shapes = (
{
closed = 1;
nodes = (
(584,144,l),
(531,73,o),
(458,35,o),
(376,35,cs),
(225,35,o),
(124,165,o),
(124,364,cs),
(124,555,o),
(220,665,o),
(369,665,cs),
(456,665,o),
(530,628,o),
(584,556,c),
(627,599,l),
(559,680,o),
(472,720,o),
(371,720,cs),
(186,720,o),
(63,585,o),
(63,362,cs),
(63,138,o),
(188,-20,o),
(379,-20,cs),
(477,-20,o),
(561,22,o),
(627,101,c)
);
},
{
closed = 1;
nodes = (
(282,-204,l),
(302,-210,o),
(325,-217,o),
(363,-217,cs),
(441,-217,o),
(482,-187,o),
(482,-139,cs),
(482,-91,o),
(442,-63,o),
(384,-63,c),
(424.194,13.137,l),
(379.194,13.137,l),
(329,-81,l),
(341,-78,o),
(351,-77,o),
(361,-77,cs),
(406,-77,o),
(430,-97,o),
(430,-131,cs),
(430,-165,o),
(405,-187,o),
(360,-187,cs),
(339,-187,o),
(315,-182,o),
(297,-176,c)
);
}
);
width = 684;
},
{
anchors = (
{
name = bottom;
pos = (396,-218);
},
{
name = top;
pos = (386,719);
}
);
layerId = "3DC573FB-EF22-4F14-BBA7-D097D7391B70";
shapes = (
{
closed = 1;
nodes = (
(511.587,-20,o),
(596.912,25,o),
(667,102,c),
(561,208,l),
(503.671,147.864,o),
(453.507,124,o),
(393.107,124,cs),
(281.519,124,o),
(216,206.719,o),
(216,357.386,cs),
(216,499.19,o),
(274.353,576,o),
(387.988,576,cs),
(453.507,576,o),
(505.718,550.907,o),
(561,493,c),
(667,599,l),
(612.148,665,o),
(514.634,720,o),
(381.568,720,cs),
(163.177,720,o),
(23,572,o),
(23,361,cs),
(23,140,o),
(175.366,-20,o),
(394.773,-20,cs)
);
},
{
closed = 1;
nodes = (
(475,-218,o),
(524,-191,o),
(524,-134,cs),
(524,-87,o),
(491,-64,o),
(423,-64,c),
(470.423,20.41,l),
(368.423,20.41,l),
(300,-109,l),
(316,-107,o),
(341,-105,o),
(358,-105,cs),
(388,-105,o),
(404,-111,o),
(404,-133,cs),
(404,-151,o),
(393,-164,o),
(356,-164,cs),
(335,-164,o),
(306,-160,o),
(290,-154,c),
(264,-205,l),
(286,-211,o),
(319,-218,o),
(372,-218,cs)
);
}
);
width = 684;
},
{
anchors = (
{
name = bottom;
pos = (396,-218);
},
{
name = top;
pos = (386,719);
}
);
layerId = "48315E7A-EC54-430B-915E-ECFED2D8F863";
shapes = (
{
closed = 1;
nodes = (
(514.839,-20,o),
(590.436,28,o),
(662,107,c),
(567,202,l),
(517.601,144,o),
(454.087,110,o),
(387.549,110,cs),
(273.628,110,o),
(196,209,o),
(196,358,cs),
(196,499,o),
(265.567,589,o),
(381.512,589,cs),
(449.063,589,o),
(514.597,559,o),
(564,501,c),
(659,596,l),
(597.513,670,o),
(503.77,720,o),
(378.78,720,cs),
(164.078,720,o),
(28,573,o),
(28,360,cs),
(28,139,o),
(174.153,-20,o),
(393.886,-20,cs)
);
},
{
closed = 1;
nodes = (
(468,-218,o),
(520,-192,o),
(520,-133,cs),
(520,-87,o),
(489,-64,o),
(419,-64,c),
(466.224,19,l),
(373.224,19,l),
(308,-104,l),
(323,-102,o),
(341,-100,o),
(355,-100,cs),
(388,-100,o),
(407,-111,o),
(407,-134,cs),
(407,-155,o),
(391,-168,o),
(362,-168,cs),
(344,-168,o),
(309,-163,o),
(289,-157,c),
(269,-205,l),
(291,-211,o),
(324,-218,o),
(371,-218,cs)
);
}
);
width = 684;
},
{
anchors = (
{
name = bottom;
pos = (386,-217);
},
{
name = top;
pos = (386,719);
}
);
layerId = "87250A93-E16C-45E7-81EC-EDE6CBCB21F2";
shapes = (
{
closed = 1;
nodes = (
(502,-20,o),
(583,22,o),
(658,106,c),
(573,191,l),
(525.244,135.549,o),
(468.533,104,o),
(389.934,104,cs,{
name = dv02;
}),
(255.619,104,o),
(181,199.639,o),
(181,355.423,cs),
(181,508.249,o),
(253.629,596,o),
(384.957,596,cs,{
name = dv03;
}),
(465.545,596,o),
(524.244,564.112,o),
(572,510,c),
(657,595,l),
(593,674,o),
(504,720,o),
(380,720,cs,{
name = dv04;
}),
(163,720,o),
(33,580,o),
(33,360,cs),
(33,130,o),
(175,-20,o),
(389,-20,cs,{
name = dv01;
})
);
},
{
closed = 1;
nodes = (
(461,-217,o),
(510,-187,o),
(510,-134,cs),
(510,-88,o),
(474,-63,o),
(412,-63,c),
(456.665,17.274,l),
(370.665,17.274,l),
(313,-95,l),
(329,-93,o),
(342,-91,o),
(356,-91,cs),
(390,-91,o),
(410,-104,o),
(410,-131,cs),
(410,-157,o),
(390,-171,o),
(357,-171,cs),
(337,-171,o),
(309,-166,o),
(289,-160,c),
(269,-204,l),
(293,-212,o),
(327,-217,o),
(366,-217,cs)
);
}
);
width = 684;
},
{
anchors = (
{
name = bottom;
pos = (382,-218);
},
{
name = top;
pos = (382,719);
}
);
layerId = "C3B1342C-4554-42D4-BF1D-4BC45B7A32A8";
shapes = (
{
closed = 1;
nodes = (
(488,-20,o),
(572,18,o),
(647,102,c),
(576,173,l),
(534.407,117.495,o),
(473.007,84,o),
(394.772,84,cs,{
name = dv02;
}),
(266.031,84,o),
(167,188.623,o),
(167,365.299,cs),
(167,524.208,o),
(246.225,616,o),
(386.85,616,cs,{
name = dv03;
}),
(462.114,616,o),
(523.513,586.989,o),
(576,528,c),
(647,599,l),
(581,681,o),
(492,720,o),
(379,720,cs,{
name = dv04;
}),
(166,720,o),
(43,581,o),
(43,365,cs),
(43,135,o),
(182,-20,o),
(387,-20,cs,{
name = dv01;
})
);
},
{
closed = 1;
nodes = (
(454,-218,o),
(501,-189,o),
(501,-136,cs),
(501,-89,o),
(465,-64,o),
(405,-64,c),
(447.784,13.546,l),
(374.784,13.546,l),
(322,-90,l),
(337,-88,o),
(348,-86,o),
(361,-86,cs),
(396,-86,o),
(417,-101,o),
(417,-130,cs),
(417,-158,o),
(397,-177,o),
(361,-177,cs),
(343,-177,o),
(315,-172,o),
(294,-166,c),
(275,-205,l),
(301,-211,o),
(330,-218,o),
(371,-218,cs)
);
}
);
width = 684;
},
{
anchors = (
{
name = bottom;
pos = (381,-218);
},
{
name = top;
pos = (381,719);
}
);
layerId = "966EEAD7-910A-41B6-BB10-BC7C26207015";
shapes = (
{
closed = 1;
nodes = (
(483,-20,o),
(563,18,o),
(637,102,c),
(579,160,l),
(527.477,93,o),
(460.101,60,o),
(385.789,60,cs,{
name = dv02;
}),
(243.11,60,o),
(147,182,o),
(147,366,cs),
(147,542,o),
(234.193,640,o),
(373.899,640,cs,{
name = dv03;
}),
(453.165,640,o),
(517.569,609,o),
(579,541,c),
(637,599,l),
(572,681,o),
(487,720,o),
(378,720,cs,{
name = dv04;
}),
(172,720,o),
(53,581,o),
(53,365,cs),
(53,135,o),
(187,-20,o),
(385,-20,cs,{
name = dv01;
})
);
},
{
closed = 1;
nodes = (
(449,-218,o),
(495,-189,o),
(495,-137,cs),
(495,-90,o),
(458,-64,o),
(399,-64,c),
(443.74,14.895,l),
(386.74,14.895,l),
(332,-86,l),
(347,-84,o),
(358,-82,o),
(371,-82,cs),
(406,-82,o),
(427,-97,o),
(427,-132,cs),
(427,-166,o),
(408,-182,o),
(366,-182,cs),
(343,-182,o),
(321,-177,o),
(304,-171,c),
(285,-205,l),
(306,-211,o),
(330,-218,o),
(369,-218,cs)
);
}
);
width = 684;
},
{
anchors = (
{
name = bottom;
pos = (373,-217);
},
{
name = top;
pos = (373,719);
}
);
layerId = "15700EBA-52AC-4D6B-A2D3-7F45C26CE079";
shapes = (
{
closed = 1;
nodes = (
(477,-20,o),
(561,22,o),
(627,101,c),
(584,144,l),
(531,73,o),
(458,35,o),
(376,35,cs),
(225,35,o),
(124,165,o),
(124,364,cs),
(124,555,o),
(220,665,o),
(369,665,cs),
(456,665,o),
(530,628,o),
(584,556,c),
(627,599,l),
(559,680,o),
(472,720,o),
(371,720,cs),
(186,720,o),
(63,585,o),
(63,362,cs),
(63,138,o),
(188,-20,o),
(379,-20,cs)
);
},
{
closed = 1;
nodes = (
(441,-217,o),
(482,-187,o),
(482,-139,cs),
(482,-91,o),
(442,-63,o),
(384,-63,c),
(424.194,13.137,l),
(379.194,13.137,l),
(329,-81,l),
(341,-78,o),
(351,-77,o),
(361,-77,cs),
(406,-77,o),
(430,-97,o),
(430,-131,cs),
(430,-165,o),
(405,-187,o),
(360,-187,cs),
(339,-187,o),
(315,-182,o),
(297,-176,c),
(282,-204,l),
(302,-210,o),
(325,-217,o),
(363,-217,cs)
);
}
);
width = 684;
}
);
unicode = 199;
},
{
color = 6;
glyphname = D;
kernLeft = B;
kernRight = C;
lastChange = "2024-07-04 14:33:30 +0000";
layers = (
{
anchors = (
{
name = bottom;
pos = (318,-20);
},
{
name = top;
pos = (318,719);
}
);
associatedMasterId = "15700EBA-52AC-4D6B-A2D3-7F45C26CE079";
layerId = "526B3205-964B-43ED-A08E-E7641FE0513C";
name = "#instance";
shapes = (
{
closed = 1;
nodes = (
(154,54,l,{
name = sv01;
}),
(154,646,l,{
name = sv02;
}),
(322,646,ls),
(493,646,o),
(598,534,o),
(598,346,cs),
(598,165,o),
(493,54,o),
(322,54,cs)
);
},
{
closed = 1;
nodes = (
(94,0,l,{
name = ab01;
}),
(335,0,ls),
(527,0,o),
(659,142,o),
(659,350,cs),
(659,557,o),
(526,700,o),
(335,700,cs,{
name = at01;
}),
(94,700,l)
);
}
);
width = 722;
},
{
anchors = (
{
name = bottom;
pos = (318,-20);
},
{
name = top;
pos = (318,719);
}
);
layerId = "3DC573FB-EF22-4F14-BBA7-D097D7391B70";
shapes = (
{
closed = 1;
nodes = (
(342,0,ls),
(555,0,o),
(699,141,o),
(699,350,cs),
(699,558,o),
(554,700,o),
(342,700,cs),
(58,700,l),
(58,0,l)
);
},
{
closed = 1;
nodes = (
(248,560,l),
(321.431,560,ls),
(440.508,560,o),
(506,489,o),
(506,359,cs),
(506,224,o),
(435.546,140,o),
(321.431,140,cs),
(248,140,l)
);
}
);
width = 722;
},
{
anchors = (
{
name = bottom;
pos = (318,-20);
},
{
name = top;
pos = (318,719);
}
);
layerId = "48315E7A-EC54-430B-915E-ECFED2D8F863";
shapes = (
{
closed = 1;
nodes = (
(340,0,ls),
(551,0,o),
(694,141,o),
(694,350,cs),
(694,558,o),
(550,700,o),
(340,700,cs),
(58,700,l),
(58,0,l)
);
},
{
closed = 1;
nodes = (
(223,570,l),
(319,570,ls),
(447,570,o),
(526,481,o),
(526,352,cs),
(526,218,o),
(441,130,o),
(319,130,cs),
(223,130,l)
);
}
);
width = 722;
},
{
anchors = (
{
name = bottom;
pos = (318,-20);
},
{
name = top;
pos = (318,719);
}
);
layerId = "87250A93-E16C-45E7-81EC-EDE6CBCB21F2";
shapes = (
{
closed = 1;
nodes = (
(332,0,ls),
(545,0,o),
(689,141,o),
(689,350,cs),
(689,558,o),
(544,700,o),
(332,700,cs,{
name = at01;
}),
(68,700,l),
(68,0,l,{
name = ab01;
})
);
},
{
closed = 1;
nodes = (
(213,580,l,{
name = sv02;
}),
(317.661,580,ls),
(454.257,580,o),
(541,484,o),
(541,349,cs),
(541,209,o),
(448.274,120,o),
(317.661,120,cs),
(213,120,l,{
name = sv01;
})
);
}
);
width = 722;
},
{
anchors = (
{
name = bottom;
pos = (318,-20);
},
{
name = top;
pos = (318,719);
}
);
layerId = "C3B1342C-4554-42D4-BF1D-4BC45B7A32A8";
shapes = (
{
closed = 1;
nodes = (
(331,0,ls),
(538,0,o),
(679,141,o),
(679,350,cs),
(679,558,o),
(537,700,o),
(331,700,cs,{
name = at01;
}),
(74,700,l),
(74,0,l,{
name = ab01;
})
);
},
{
closed = 1;
nodes = (
(194,600,l,{
name = sv02;
}),
(310.635,600,ls),
(457.056,600,o),
(555,499,o),
(555,349,cs),
(555,197,o),
(454.088,100,o),
(310.635,100,cs),
(194,100,l,{
name = sv01;
})
);
}
);
width = 722;
},
{
anchors = (
{
name = bottom;
pos = (318,-20);
},
{
name = top;
pos = (318,719);
}
);
layerId = "966EEAD7-910A-41B6-BB10-BC7C26207015";
shapes = (
{
closed = 1;
nodes = (
(333,0,ls),
(533,0,o),
(669,142,o),
(669,350,cs),
(669,557,o),
(532,700,o),
(333,700,cs,{
name = at01;
}),
(84,700,l),
(84,0,l,{
name = ab01;
})
);
},
{
closed = 1;
nodes = (
(174,620,l,{
name = sv02;
}),
(324.439,620,ls),
(480.916,620,o),
(575,518,o),
(575,349,cs),
(575,181,o),
(480.916,80,o),
(324.439,80,cs),
(174,80,l,{
name = sv01;
})
);
}
);
width = 722;
},
{
anchors = (
{
name = bottom;
pos = (318,-20);
},
{
name = top;
pos = (318,719);
}
);
layerId = "15700EBA-52AC-4D6B-A2D3-7F45C26CE079";
shapes = (
{
closed = 1;
nodes = (
(335,0,ls),
(527,0,o),
(659,142,o),
(659,350,cs),
(659,557,o),
(526,700,o),
(335,700,cs,{
name = at01;
}),
(94,700,l),
(94,0,l,{
name = ab01;
})
);
},
{
closed = 1;
nodes = (
(154,646,l,{
name = sv02;
}),
(322,646,ls),
(493,646,o),
(598,534,o),
(598,346,cs),
(598,165,o),
(493,54,o),
(322,54,cs),
(154,54,l,{
name = sv01;
})
);
}
);
width = 722;
}
);
unicode = 68;
},
{
color = 6;
glyphname = Eth;
kernLeft = Eth;
kernRight = C;
lastChange = "2024-07-04 14:33:30 +0000";
layers = (
{
layerId = "3DC573FB-EF22-4F14-BBA7-D097D7391B70";
shapes = (
{
closed = 1;
nodes = (
(352,0,ls),
(565,0,o),
(709,141,o),
(709,350,cs),
(709,558,o),
(564,700,o),
(352,700,cs),
(68,700,l),
(68,0,l)
);
},
{
closed = 1;
nodes = (
(398.082,336,l),
(398.082,370,l),
(-0.28,370,l),
(-0.28,336,l)
);
},
{
closed = 1;
nodes = (
(258,560,l),
(331.431,560,ls),
(450.508,560,o),
(516,489,o),
(516,359,cs),
(516,224,o),
(445.546,140,o),
(331.431,140,cs),
(258,140,l)
);
}
);
width = 732;
},
{
layerId = "48315E7A-EC54-430B-915E-ECFED2D8F863";
shapes = (
{
closed = 1;
nodes = (
(350,0,ls),
(561,0,o),
(704,141,o),
(704,350,cs),
(704,558,o),
(560,700,o),
(350,700,cs),
(68,700,l),
(68,0,l)
);
},
{
closed = 1;
nodes = (
(398.082,336,l),
(398.082,370,l),
(-0.28,370,l),
(-0.28,336,l)
);
},
{
closed = 1;
nodes = (
(233,570,l),
(329,570,ls),
(457,570,o),
(536,481,o),
(536,352,cs),
(536,218,o),
(451,130,o),
(329,130,cs),
(233,130,l)
);
}
);
width = 732;
},
{
layerId = "87250A93-E16C-45E7-81EC-EDE6CBCB21F2";
shapes = (
{
closed = 1;
nodes = (
(342,0,ls),
(555,0,o),
(699,141,o),
(699,350,cs),
(699,558,o),
(554,700,o),
(342,700,cs,{
name = at01;
}),
(68,700,l),
(68,0,l,{
name = ab01;
})
);
},
{
closed = 1;
nodes = (
(398.082,336,l),
(398.082,370,l),
(-0.28,370,l),
(-0.28,336,l)
);
},
{
closed = 1;
nodes = (
(213,580,l,{
name = sv02;
}),
(327.661,580,ls),
(464.257,580,o),
(551,484,o),
(551,349,cs),
(551,209,o),
(458.274,120,o),
(327.661,120,cs),
(213,120,l,{
name = sv01;
})
);
}
);
width = 732;
},
{
layerId = "C3B1342C-4554-42D4-BF1D-4BC45B7A32A8";
shapes = (
{
closed = 1;
nodes = (
(341,0,ls),
(548,0,o),
(689,141,o),
(689,350,cs),
(689,558,o),
(547,700,o),
(341,700,cs,{
name = at01;
}),
(74,700,l),
(74,0,l,{
name = ab01;
})
);
},
{
closed = 1;
nodes = (
(398.082,336,l),
(398.082,370,l),
(-0.28,370,l),
(-0.28,336,l)
);
},
{
closed = 1;
nodes = (
(194,600,l,{
name = sv02;
}),
(320.635,600,ls),
(467.056,600,o),
(565,499,o),
(565,349,cs),
(565,197,o),
(464.088,100,o),
(320.635,100,cs),
(194,100,l,{
name = sv01;
})
);
}
);
width = 732;
},
{
layerId = "966EEAD7-910A-41B6-BB10-BC7C26207015";
shapes = (
{
closed = 1;
nodes = (
(343,0,ls),
(543,0,o),
(679,142,o),
(679,350,cs),
(679,557,o),
(542,700,o),
(343,700,cs,{
name = at01;
}),
(84,700,l),
(84,0,l,{
name = ab01;
})
);
},
{
closed = 1;
nodes = (
(398.082,336,l),
(398.082,370,l),
(-0.28,370,l),
(-0.28,336,l)
);
},
{
closed = 1;
nodes = (
(174,620,l,{
name = sv02;
}),
(334.439,620,ls),
(490.916,620,o),
(585,518,o),
(585,349,cs),
(585,181,o),
(490.916,80,o),
(334.439,80,cs),
(174,80,l,{
name = sv01;
})
);
}
);
width = 732;
},
{
layerId = "15700EBA-52AC-4D6B-A2D3-7F45C26CE079";
shapes = (
{
closed = 1;
nodes = (
(345,0,ls),
(537,0,o),
(669,142,o),
(669,350,cs),
(669,557,o),
(536,700,o),
(345,700,cs,{
name = at01;
}),
(94,700,l),
(94,0,l,{
name = ab01;
})
);
},
{
closed = 1;
nodes = (
(398.082,337,l),
(398.082,369,l),
(-0.28,369,l),
(-0.28,337,l)
);
},
{
closed = 1;
nodes = (
(154,646,l,{
name = sv02;
}),
(332,646,ls),
(503,646,o),
(608,534,o),
(608,346,cs),
(608,165,o),
(503,54,o),
(332,54,cs),
(154,54,l,{
name = sv01;
})
);
}
);
width = 732;
}
);
unicode = 208;
},
{
color = 6;
glyphname = E;
kernLeft = B;
kernRight = E;
lastChange = "2024-07-04 14:20:28 +0000";
layers = (
{
anchors = (
{
name = bottom;
pos = (276,-20);
},
{
name = ogonek;
pos = (488,-2);
},
{
name = top;
pos = (265,719);
},
{
name = topgr;
pos = (-60,500);
}
);
layerId = "3DC573FB-EF22-4F14-BBA7-D097D7391B70";
shapes = (
{
closed = 1;
nodes = (
(495,0,l),
(495,140,l),
(248,140,l),
(248,297,l),
(455,297,l),
(455,437,l),
(248,437,l),
(248,560,l),
(480,560,l),
(480,700,l),
(58,700,l),
(58,0,l)
);
}
);
width = 530;
},
{
anchors = (
{
name = bottom;
pos = (276,-20);
},
{
name = ogonek;
pos = (488,-2);
},
{
name = top;
pos = (265,719);
},
{
name = topgr;
pos = (-60,500);
}
);
layerId = "48315E7A-EC54-430B-915E-ECFED2D8F863";
shapes = (
{
closed = 1;
nodes = (
(495,0,l),
(495,130,l),
(224,130,l),
(224,300,l),
(455,300,l),
(455,430,l),
(224,430,l),
(224,570,l),
(480,570,l),
(480,700,l),
(58,700,l),
(58,0,l)
);
}
);
width = 530;
},
{
anchors = (
{
name = bottom;
pos = (276,-20);
},
{
name = ogonek;
pos = (490,-2);
},
{
name = top;
pos = (265,719);
},
{
name = topgr;
pos = (-50,500);
}
);
layerId = "87250A93-E16C-45E7-81EC-EDE6CBCB21F2";
shapes = (
{
closed = 1;
nodes = (
(495,0,l,{
name = ab01;
}),
(495,120,l,{
name = sv01;
}),
(204,120,l),
(204,305,l,{
name = dv01;
}),
(455,305,l),
(455,425,l),
(204,425,l,{
name = dv02;
}),
(204,580,l,{
name = sv02;
}),
(480,580,l),
(480,700,l,{
name = at01;
}),
(58,700,l),
(58,0,l)
);
}
);
width = 530;
},
{
anchors = (
{
name = bottom;
pos = (265,-20);
},
{
name = ogonek;
pos = (479,-2);
},
{
name = top;
pos = (265,719);
},
{
name = topgr;
pos = (-38,500);
}
);
layerId = "C3B1342C-4554-42D4-BF1D-4BC45B7A32A8";
shapes = (
{
closed = 1;
nodes = (
(485,0,l,{
name = ab01;
}),
(485,100,l,{
name = sv01;
}),
(184,100,l),
(184,315,l,{
name = dv01;
}),
(445,315,l),
(445,415,l),
(184,415,l,{
name = dv02;
}),
(184,600,l,{
name = sv02;
}),
(470,600,l),
(470,700,l,{
name = at01;
}),
(64,700,l),
(64,0,l)
);
}
);
width = 530;
},
{
anchors = (
{
name = bottom;
pos = (260,-20);
},
{
name = ogonek;
pos = (472,-2);
},
{
name = top;
pos = (265,719);
},
{
name = topgr;
pos = (-28,500);
}
);
layerId = "966EEAD7-910A-41B6-BB10-BC7C26207015";
shapes = (
{
closed = 1;
nodes = (
(475,0,l,{
name = ab01;
}),
(475,80,l,{
name = sv01;
}),
(164,80,l),
(164,325,l,{
name = dv01;
}),
(435,325,l),
(435,405,l),
(164,405,l,{
name = dv02;
}),
(164,620,l,{
name = sv02;
}),
(461,620,l),
(461,700,l,{
name = at01;
}),
(74,700,l),
(74,0,l)
);
}
);
width = 530;
},
{
anchors = (
{
name = bottom;
pos = (265,-20);
},
{
name = ogonek;
pos = (465,-3);
},
{
name = top;
pos = (265,719);
},
{
name = topgr;
pos = (-22,500);
}
);
layerId = "15700EBA-52AC-4D6B-A2D3-7F45C26CE079";
shapes = (
{
closed = 1;
nodes = (
(465,0,l,{
name = ab01;
}),
(465,54,l,{
name = sv01;
}),
(144,54,l),
(144,338,l,{
name = dv01;
}),
(425,338,l),
(425,392,l),
(144,392,l,{
name = dv02;
}),
(144,646,l,{
name = sv02;
}),
(453,646,l),
(453,700,l,{
name = at01;
}),
(84,700,l),
(84,0,l)
);
}
);
width = 530;
}
);
unicode = 69;
},
{
color = 6;
glyphname = Eogonek;
kernLeft = B;
kernRight = E;
lastChange = "2024-07-04 14:33:30 +0000";
layers = (
{
anchors = (
{
name = bottom;
pos = (286,-20);
},
{
name = top;
pos = (275,719);
},
{
name = topgr;
pos = (-50,500);
}
);
layerId = "3DC573FB-EF22-4F14-BBA7-D097D7391B70";
shapes = (
{
closed = 1;
nodes = (
(505,0,l),
(505,140,l),
(258,140,l),
(258,297,l),
(465,297,l),
(465,437,l),
(258,437,l),
(258,560,l),
(490,560,l),
(490,700,l),
(68,700,l),
(68,0,l)
);
},
{
closed = 1;
nodes = (
(506,-182,l),
(463.672,-168,o),
(443,-137,o),
(443,-103,cs),
(443,-66,o),
(466.619,-23,o),
(505,1,c),
(445.709,4,l),
(349.236,-13,o),
(301,-52,o),
(301,-104,cs),
(301,-157,o),
(352.25,-195,o),
(431.637,-205,c)
);
}
);
width = 550;
},
{
anchors = (
{
name = bottom;
pos = (286,-20);
},
{
name = top;
pos = (275,719);
},
{
name = topgr;
pos = (-50,500);
}
);
layerId = "48315E7A-EC54-430B-915E-ECFED2D8F863";
shapes = (
{
closed = 1;
nodes = (
(505,0,l),
(505,130,l),
(234,130,l),
(234,300,l),
(465,300,l),
(465,430,l),
(234,430,l),
(234,570,l),
(490,570,l),
(490,700,l),
(68,700,l),
(68,0,l)
);
},
{
closed = 1;
nodes = (
(506,-182,l),
(463,-168,o),
(442,-137,o),
(442,-103,cs),
(442,-66,o),
(466,-23,o),
(505,1,c),
(466,4,l),
(370,-13,o),
(322,-52,o),
(322,-105,cs),
(322,-157,o),
(368,-195,o),
(442,-205,c)
);
}
);
width = 550;
},
{
anchors = (
{
name = bottom;
pos = (286,-20);
},
{
name = top;
pos = (275,719);
},
{
name = topgr;
pos = (-40,500);
}
);
layerId = "87250A93-E16C-45E7-81EC-EDE6CBCB21F2";
shapes = (
{
closed = 1;
nodes = (
(505,0,l,{
name = ab01;
}),
(505,120,l,{
name = sv01;
}),
(214,120,l),
(214,305,l,{
name = dv01;
}),
(465,305,l),
(465,425,l),
(214,425,l,{
name = dv02;
}),
(214,580,l,{
name = sv02;
}),
(490,580,l),
(490,700,l,{
name = at01;
}),
(68,700,l),
(68,0,l)
);
},
{
closed = 1;
nodes = (
(506,-182,l),
(463,-168,o),
(442,-137,o),
(442,-103,cs),
(442,-66,o),
(466,-24,o),
(505,0,c,{
name = ab01;
}),
(472,3,l),
(383,-13,o),
(332,-55,o),
(332,-108,cs),
(332,-158,o),
(376,-195,o),
(449,-205,c)
);
}
);
width = 550;
},
{
anchors = (
{
name = bottom;
pos = (275,-20);
},
{
name = top;
pos = (275,719);
},
{
name = topgr;
pos = (-28,500);
}
);
layerId = "C3B1342C-4554-42D4-BF1D-4BC45B7A32A8";
shapes = (
{
closed = 1;
nodes = (
(495,0,l,{
name = ab01;
}),
(495,100,l,{
name = sv01;
}),
(194,100,l),
(194,315,l,{
name = dv01;
}),
(455,315,l),
(455,415,l),
(194,415,l,{
name = dv02;
}),
(194,600,l,{
name = sv02;
}),
(480,600,l),
(480,700,l,{
name = at01;
}),
(74,700,l),
(74,0,l)
);
},
{
closed = 1;
nodes = (
(496,-182,l),
(452,-168,o),
(430,-137,o),
(430,-103,cs),
(430,-66,o),
(455,-24,o),
(495,0,c,{
name = ab01;
}),
(472,3,l),
(389,-13,o),
(337,-55,o),
(337,-109,cs),
(337,-158,o),
(381,-195,o),
(449,-205,c)
);
}
);
width = 550;
},
{
anchors = (
{
name = bottom;
pos = (270,-20);
},
{
name = top;
pos = (275,719);
},
{
name = topgr;
pos = (-18,500);
}
);
layerId = "966EEAD7-910A-41B6-BB10-BC7C26207015";
shapes = (
{
closed = 1;
nodes = (
(485,0,l,{
name = ab01;
}),
(485,80,l,{
name = sv01;
}),
(174,80,l),
(174,325,l,{
name = dv01;
}),
(445,325,l),
(445,405,l),
(174,405,l,{
name = dv02;
}),
(174,620,l,{
name = sv02;
}),
(471,620,l),
(471,700,l,{
name = at01;
}),
(84,700,l),
(84,0,l)
);
},
{
closed = 1;
nodes = (
(486,-182,l),
(442,-170,o),
(419,-142,o),
(419,-102,cs),
(419,-61,o),
(444,-21,o),
(485,1,c),
(464,4,l),
(391,-11,o),
(344,-58,o),
(344,-109,cs),
(344,-156,o),
(384,-195,o),
(444,-205,c)
);
}
);
width = 550;
},
{
anchors = (
{
name = bottom;
pos = (275,-20);
},
{
name = top;
pos = (275,719);
},
{
name = topgr;
pos = (-12,500);
}
);
layerId = "15700EBA-52AC-4D6B-A2D3-7F45C26CE079";
shapes = (
{
closed = 1;
nodes = (
(475,0,l,{
name = ab01;
}),
(475,54,l,{
name = sv01;
}),
(154,54,l),
(154,338,l,{
name = dv01;
}),
(435,338,l),
(435,392,l),
(154,392,l,{
name = dv02;
}),
(154,646,l,{
name = sv02;
}),
(463,646,l),
(463,700,l,{
name = at01;
}),
(94,700,l),
(94,0,l)
);
},
{
closed = 1;
nodes = (
(476,-183,l),
(432,-171,o),
(409,-143,o),
(409,-103,cs),
(409,-62,o),
(434,-22,o),
(475,0,c,{
name = ab01;
}),
(457,3,l),
(397,-12,o),
(354,-59,o),
(354,-108,cs),
(354,-154,o),
(393,-196,o),
(440,-206,c)
);
}
);
width = 550;
}
);
unicode = 280;
},
{
color = 6;
glyphname = Schwa;
kernLeft = C1;
kernRight = C;
lastChange = "2024-07-04 14:33:30 +0000";
layers = (
{
anchors = (
{
name = bottom;
pos = (380,-20);
},
{
name = top;
pos = (380,719);
}
);
associatedMasterId = "15700EBA-52AC-4D6B-A2D3-7F45C26CE079";
layerId = "526B3205-964B-43ED-A08E-E7641FE0513C";
name = "#instance";
shapes = (
{
closed = 1;
nodes = (
(124,338,l,{
name = sh02;
}),
(124,155,o),
(225,35,o),
(380,35,cs,{
name = dv02;
}),
(535,35,o),
(635,156,o),
(635,360,cs),
(635,556,o),
(543,665,o),
(379,665,cs),
(284,665,o),
(210,628,o),
(156,556,c),
(113,599,l),
(181,680,o),
(268,720,o),
(374,720,cs),
(573,720,o),
(696,581,o),
(696,356,cs,{
name = sh03;
}),
(696,129,o),
(571,-20,o),
(382,-20,cs,{
name = dv01;
}),
(193,-20,o),
(63,129,o),
(63,331,cs,{
name = sh01;
}),
(63,356,o),
(65,377,o),
(67,392,c,{
name = sh04;
}),
(648,392,l,{
name = dv06;
}),
(649,338,l,{
name = dv05;
})
);
}
);
width = 759;
},
{
anchors = (
{
name = bottom;
pos = (380,-20);
},
{
name = top;
pos = (380,719);
}
);
layerId = "3DC573FB-EF22-4F14-BBA7-D097D7391B70";
shapes = (
{
closed = 1;
nodes = (
(586,-20,o),
(736,119,o),
(736,354,cs),
(736,590,o),
(584,720,o),
(366,720,cs),
(225,720,o),
(129,665,o),
(75,599,c),
(181,493,l),
(235,553.698,o),
(286,580,o),
(355,580,cs),
(470,580,o),
(546,508.69,o),
(546,337.948,cs),
(546,195.328,o),
(493,120,o),
(380,120,cs),
(284,120,o),
(229,175,o),
(219,280,c),
(555,280,l),
(556,417,l),
(30,417,l),
(26,402,o),
(23,376,o),
(23,344,cs),
(23,125,o),
(160,-20,o),
(375,-20,cs)
);
}
);
width = 759;
},
{
anchors = (
{
name = bottom;
pos = (380,-20);
},
{
name = top;
pos = (380,719);
}
);
layerId = "48315E7A-EC54-430B-915E-ECFED2D8F863";
shapes = (
{
closed = 1;
nodes = (
(583,-20,o),
(731,119,o),
(731,353,cs),
(731,581,o),
(591,720,o),
(370,720,cs),
(238,720,o),
(145,670,o),
(84,596,c),
(179,501,l),
(228,559,o),
(293,589,o),
(368,589,cs),
(485,589,o),
(564,517,o),
(564,350,cs),
(564,198,o),
(499,111,o),
(386,111,cs),
(288,111,o),
(210,176,o),
(200,288,c),
(584,288,l),
(585,412,l),
(32,412,l),
(30,397,o),
(28,374,o),
(28,348,cs),
(28,131,o),
(168,-20,o),
(380,-20,cs)
);
}
);
width = 759;
},
{
anchors = (
{
name = bottom;
pos = (380,-20);
},
{
name = top;
pos = (380,719);
}
);
layerId = "87250A93-E16C-45E7-81EC-EDE6CBCB21F2";
shapes = (
{
closed = 1;
nodes = (
(589,-20,o),
(726,129,o),
(726,355,cs,{
name = sh03;
}),
(726,581,o),
(590,720,o),
(369,720,cs,{
name = dv04;
}),
(242,720,o),
(153,674,o),
(89,595,c),
(174,510,l),
(222,566.629,o),
(284,600,o),
(371,600,cs,{
name = dv03;
}),
(504,600,o),
(577,521.687,o),
(577,356.024,cs),
(577,194.378,o),
(507,100,o),
(382,100,cs,{
name = dv02;
}),
(270,100,o),
(194,175.389,o),
(185,294,c,{
name = sh02;
}),
(589,294,l,{
name = dv05;
}),
(590,409,l,{
name = dv06;
}),
(37,409,l,{
name = sh04;
}),
(35,394,o),
(33,371,o),
(33,345,cs,{
name = sh01;
}),
(33,130,o),
(171,-20,o),
(380,-20,cs,{
name = dv01;
})
);
}
);
width = 759;
},
{
anchors = (
{
name = bottom;
pos = (380,-20);
},
{
name = top;
pos = (380,719);
}
);
layerId = "C3B1342C-4554-42D4-BF1D-4BC45B7A32A8";
shapes = (
{
closed = 1;
nodes = (
(583.099,-20,o),
(716,129,o),
(716,356,cs,{
name = sh03;
}),
(716,582,o),
(585,720,o),
(369,720,cs,{
name = dv04;
}),
(254,720,o),
(165,681,o),
(99,599,c),
(170,528,l),
(223,589.67,o),
(285,620,o),
(369,620,cs,{
name = dv03;
}),
(515,620,o),
(597,527.658,o),
(597,352.007,cs),
(597,178.364,o),
(516.908,80,o),
(380.751,80,cs,{
name = dv02;
}),
(254.605,80,o),
(173.512,165.374,o),
(163.5,308,c,{
name = sh02;
}),
(609,308,l,{
name = dv05;
}),
(608,408,l,{
name = dv06;
}),
(47,408,l,{
name = sh04;
}),
(45.25,393,o),
(43.5,371,o),
(43.5,345,cs,{
name = sh01;
}),
(43.5,129,o),
(177.4,-20,o),
(380.25,-20,cs,{
name = dv01;
})
);
}
);
width = 759;
},
{
anchors = (
{
name = bottom;
pos = (380,-20);
},
{
name = top;
pos = (380,719);
}
);
layerId = "966EEAD7-910A-41B6-BB10-BC7C26207015";
shapes = (
{
closed = 1;
nodes = (
(577,-20,o),
(706,129,o),
(706,355,cs,{
name = sh03;
}),
(706,581,o),
(577,720,o),
(381,720,cs,{
name = dv04;
}),
(260,720,o),
(169,677,o),
(107,599,c),
(165,541,l),
(231,613,o),
(288,640,o),
(378,640,cs,{
name = dv03;
}),
(531,640,o),
(617,538,o),
(617,354,cs),
(617,167,o),
(529,61,o),
(385,61,cs,{
name = dv02;
}),
(246,61,o),
(154,160,o),
(144,318,c,{
name = sh02;
}),
(629,318,l,{
name = dv05;
}),
(628,398,l,{
name = dv06;
}),
(57,398,l,{
name = sh04;
}),
(55,383,o),
(53,362,o),
(53,337,cs,{
name = sh01;
}),
(53,130,o),
(187,-20,o),
(382,-20,cs,{
name = dv01;
})
);
}
);
width = 759;
},
{
anchors = (
{
name = bottom;
pos = (380,-20);
},
{
name = top;
pos = (380,719);
}
);
layerId = "15700EBA-52AC-4D6B-A2D3-7F45C26CE079";
shapes = (
{
closed = 1;
nodes = (
(571,-20,o),
(696,129,o),
(696,356,cs,{
name = sh03;
}),
(696,581,o),
(573,720,o),
(374,720,cs),
(268,720,o),
(181,680,o),
(113,599,c),
(156,556,l),
(210,628,o),
(284,665,o),
(379,665,cs),
(543,665,o),
(635,556,o),
(635,360,cs),
(635,156,o),
(535,35,o),
(380,35,cs,{
name = dv02;
}),
(225,35,o),
(124,155,o),
(124,338,c,{
name = sh02;
}),
(649,338,l,{
name = dv05;
}),
(648,392,l,{
name = dv06;
}),
(67,392,l,{
name = sh04;
}),
(65,377,o),
(63,356,o),
(63,331,cs,{
name = sh01;
}),
(63,129,o),
(193,-20,o),
(382,-20,cs,{
name = dv01;
})
);
}
);
width = 759;
}
);
unicode = 399;
},
{
color = 6;
glyphname = F;
kernLeft = B;
kernRight = F;
lastChange = "2024-07-04 14:20:28 +0000";
layers = (
{
anchors = (
{
name = bottom;
pos = (271,-20);
},
{
name = top;
pos = (260,719);
}
);
associatedMasterId = "15700EBA-52AC-4D6B-A2D3-7F45C26CE079";
layerId = "526B3205-964B-43ED-A08E-E7641FE0513C";
name = "#instance";
shapes = (
{
closed = 1;
nodes = (
(84,0,l),
(144,0,l,{
name = ab01;
}),
(144,322,l,{
name = dv01;
}),
(433,322,l),
(433,376,l),
(144,376,l,{
name = dv02;
}),
(144,646,l,{
name = sv01;
}),
(473,646,l),
(473,700,l,{
name = at01;
}),
(84,700,l,{
name = dh01;
})
);
}
);
width = 510;
},
{
anchors = (
{
name = bottom;
pos = (271,-20);
},
{
name = top;
pos = (260,719);
}
);
layerId = "3DC573FB-EF22-4F14-BBA7-D097D7391B70";
shapes = (
{
closed = 1;
nodes = (
(248,0,l),
(248,270,l),
(463,270,l),
(463,410,l),
(248,410,l),
(248,560,l),
(488,560,l),
(488,700,l),
(58,700,l),
(58,0,l)
);
}
);
width = 510;
},
{
anchors = (
{
name = bottom;
pos = (271,-20);
},
{
name = top;
pos = (260,719);
}
);
layerId = "48315E7A-EC54-430B-915E-ECFED2D8F863";
shapes = (
{
closed = 1;
nodes = (
(224,0,l),
(224,280,l),
(454,280,l),
(454,410,l),
(224,410,l),
(224,570,l),
(485,570,l),
(485,700,l),
(58,700,l),
(58,0,l)
);
}
);
width = 510;
},
{
anchors = (
{
name = bottom;
pos = (271,-20);
},
{
name = top;
pos = (260,719);
}
);
layerId = "87250A93-E16C-45E7-81EC-EDE6CBCB21F2";
shapes = (
{
closed = 1;
nodes = (
(204,0,l,{
name = ab01;
}),
(204,290,l,{
name = dv01;
}),
(442,290,l),
(442,410,l),
(204,410,l,{
name = dv02;
}),
(204,580,l,{
name = sv01;
}),
(482,580,l),
(482,700,l,{
name = at01;
}),
(58,700,l,{
name = dh01;
}),
(58,0,l)
);
}
);
width = 510;
},
{
anchors = (
{
name = bottom;
pos = (271,-20);
},
{
name = top;
pos = (260,719);
}
);
layerId = "C3B1342C-4554-42D4-BF1D-4BC45B7A32A8";
shapes = (
{
closed = 1;
nodes = (
(184,0,l,{
name = ab01;
}),
(184,300,l,{
name = dv01;
}),
(433,300,l),
(433,400,l),
(184,400,l,{
name = dv02;
}),
(184,600,l,{
name = sv01;
}),
(478,600,l),
(478,700,l,{
name = at01;
}),
(64,700,l,{
name = dh01;
}),
(64,0,l)
);
}
);
width = 510;
},
{
anchors = (
{
name = bottom;
pos = (271,-20);
},
{
name = top;
pos = (260,719);
}
);
layerId = "966EEAD7-910A-41B6-BB10-BC7C26207015";
shapes = (
{
closed = 1;
nodes = (
(164,0,l,{
name = ab01;
}),
(164,310,l,{
name = dv01;
}),
(435,310,l),
(435,390,l),
(164,390,l,{
name = dv02;
}),
(164,620,l,{
name = sv01;
}),
(475,620,l),
(475,700,l,{
name = at01;
}),
(74,700,l,{
name = dh01;
}),
(74,0,l)
);
}
);
width = 510;
},
{
anchors = (
{
name = bottom;
pos = (271,-20);
},
{
name = top;
pos = (260,719);
}
);
layerId = "15700EBA-52AC-4D6B-A2D3-7F45C26CE079";
shapes = (
{
closed = 1;
nodes = (
(144,0,l,{
name = ab01;
}),
(144,322,l,{
name = dv01;
}),
(433,322,l),
(433,376,l),
(144,376,l,{
name = dv02;
}),
(144,646,l,{
name = sv01;
}),
(473,646,l),
(473,700,l,{
name = at01;
}),
(84,700,l,{
name = dh01;
}),
(84,0,l)
);
}
);
width = 510;
}
);
unicode = 70;
},
{
color = 6;
glyphname = G;
kernLeft = C1;
kernRight = G;
lastChange = "2024-07-04 14:33:30 +0000";
layers = (
{
anchors = (
{
name = bottom;
pos = (383,-20);
},
{
name = top;
pos = (383,719);
}
);
layerId = "3DC573FB-EF22-4F14-BBA7-D097D7391B70";
shapes = (
{
closed = 1;
nodes = (
(506,-20,o),
(614,96,o),
(614,219,c),
(566,307,l),
(566,193.855,o),
(481.483,124,o),
(380.062,124,cs),
(291.568,124,o),
(216,177.293,o),
(216,357.895,cs),
(216,504.943,o),
(266.706,576,o),
(384.026,576,cs),
(454.617,576,o),
(506.317,550.907,o),
(561,493,c),
(667,599,l),
(613,665,o),
(507,720,o),
(370,720,cs),
(156,720,o),
(23,587,o),
(23,350,cs),
(23,133,o),
(143,-20,o),
(337,-20,cs)
);
},
{
closed = 1;
nodes = (
(719,0,l),
(719,391,l),
(331,391,l),
(331,251,l),
(577,251,l),
(577,0,l)
);
}
);
width = 776;
},
{
anchors = (
{
name = bottom;
pos = (383,-20);
},
{
name = top;
pos = (383,719);
}
);
layerId = "48315E7A-EC54-430B-915E-ECFED2D8F863";
shapes = (
{
closed = 1;
nodes = (
(505,-20,o),
(625,90,o),
(629,220,c),
(591,312,l),
(591,178,o),
(496.24,111,o),
(387.515,111,cs),
(273.803,111,o),
(196,184,o),
(196,354,cs),
(196,524,o),
(273.796,589,o),
(387.499,589,cs),
(464.298,589,o),
(529.128,559,o),
(578,501,c),
(673,596,l),
(612,670,o),
(508,720,o),
(374,720,cs),
(164,720,o),
(28,597,o),
(28,348,cs),
(28,105,o),
(167,-20,o),
(341,-20,cs)
);
},
{
closed = 1;
nodes = (
(723,0,l),
(723,387,l),
(336,387,l),
(336,256,l),
(592,256,l),
(592,0,l)
);
}
);
width = 776;
},
{
anchors = (
{
name = bottom;
pos = (383,-20);
},
{
name = top;
pos = (383,719);
}
);
layerId = "87250A93-E16C-45E7-81EC-EDE6CBCB21F2";
shapes = (
{
closed = 1;
nodes = (
(539,-20,o),
(631,90,o),
(631,221,c),
(602,316,l,{
name = dv07;
}),
(602,179.926,o),
(505.459,104,o),
(384.035,104,cs,{
name = dv02;
}),
(252.66,104,o),
(181,193.904,o),
(181,350.988,cs),
(181,508.072,o),
(252.639,596,o),
(387.957,596,cs,{
name = dv03;
}),
(470.541,596,o),
(530.241,564.112,o),
(578,510,c),
(663,595,l),
(599,674,o),
(500,720,o),
(373,720,cs,{
name = dv04;
}),
(166,720,o),
(33,597,o),
(33,344,cs),
(33,105,o),
(160,-20,o),
(356,-20,cs,{
name = dv01;
})
);
},
{
closed = 1;
nodes = (
(720,0,l),
(720,381,l,{
name = dv06;
}),
(341,381,l,{
name = av02;
}),
(341,261,l,{
name = av03;
}),
(597,261,l,{
name = dv05;
}),
(597,0,l)
);
}
);
width = 776;
},
{
anchors = (
{
name = bottom;
pos = (383,-20);
},
{
name = top;
pos = (383,719);
}
);
layerId = "C3B1342C-4554-42D4-BF1D-4BC45B7A32A8";
shapes = (
{
closed = 1;
nodes = (
(553,-20,o),
(631,124,o),
(631,243,c),
(607,303,l,{
name = dv07;
}),
(607,169.824,o),
(519.793,84,o),
(377.09,84,cs,{
name = dv02;
}),
(240.458,84,o),
(167,177.061,o),
(167,350.156,cs),
(167,549.903,o),
(255.174,616,o),
(395.856,616,cs,{
name = dv03;
}),
(475.114,616,o),
(538.52,586.989,o),
(594,528,c),
(665,599,l),
(597,681,o),
(495,720,o),
(379,720,cs,{
name = dv04;
}),
(172,720,o),
(43,597,o),
(43,350,cs),
(43,105,o),
(179,-20,o),
(359,-20,cs,{
name = dv01;
})
);
},
{
closed = 1;
nodes = (
(711,0,l),
(711,376,l,{
name = dv06;
}),
(341,376,l,{
name = av02;
}),
(341,276,l,{
name = av03;
}),
(607,276,l,{
name = dv05;
}),
(607,0,l)
);
}
);
width = 776;
},
{
anchors = (
{
name = bottom;
pos = (383,-20);
},
{
name = top;
pos = (383,719);
}
);
layerId = "966EEAD7-910A-41B6-BB10-BC7C26207015";
shapes = (
{
closed = 1;
nodes = (
(513,-20,o),
(623,92,o),
(622,233,c),
(608,307,l,{
name = dv07;
}),
(608,156.39,o),
(527.697,60,o),
(376.013,60,cs,{
name = dv02;
}),
(225.32,60,o),
(147,154.325,o),
(147,345.986,cs),
(147,540.657,o),
(228.278,640,o),
(382.903,640,cs,{
name = dv03;
}),
(467.154,640,o),
(531.581,609.694,o),
(597,541,c),
(655,599,l),
(588,681,o),
(490,720,o),
(377,720,cs,{
name = dv04;
}),
(177,720,o),
(53,597,o),
(53,350,cs),
(53,105,o),
(184,-20,o),
(363,-20,cs,{
name = dv01;
})
);
},
{
closed = 1;
nodes = (
(697,0,l),
(697,366,l,{
name = dv06;
}),
(341,366,l,{
name = av02;
}),
(341,286,l,{
name = av03;
}),
(607,286,l,{
name = dv05;
}),
(607,0,l)
);
}
);
width = 776;
},
{
anchors = (
{
name = bottom;
pos = (383,-20);
},
{
name = top;
pos = (383,719);
}
);
layerId = "15700EBA-52AC-4D6B-A2D3-7F45C26CE079";
shapes = (
{
closed = 1;
nodes = (
(542,-20,o),
(641,113,o),
(640,254,c),
(628,303,l,{
name = dv07;
}),
(628,140,o),
(540,35,o),
(374,35,cs,{
name = dv02;
}),
(214,35,o),
(124,151,o),
(124,342,cs),
(124,565,o),
(233,665,o),
(387,665,cs),
(477,665,o),
(549,628,o),
(602,556,c),
(645,599,l),
(578,680,o),
(493,720,o),
(387,720,cs),
(203,720,o),
(63,597,o),
(63,348,cs),
(63,105,o),
(197,-20,o),
(372,-20,cs,{
name = dv01;
})
);
},
{
closed = 1;
nodes = (
(688,0,l),
(688,357,l,{
name = dv06;
}),
(341,357,l,{
name = av02;
}),
(341,303,l,{
name = av03;
}),
(628,303,l,{
name = dv07;
}),
(628,0,l)
);
}
);
width = 776;
}
);
unicode = 71;
},
{
color = 6;
glyphname = H;
kernLeft = B;
kernRight = H;
lastChange = "2024-07-04 14:20:28 +0000";
layers = (
{
anchors = (
{
name = bottom;
pos = (358,-20);
},
{
name = top;
pos = (358,719);
},
{
name = topgr;
pos = (-60,500);
}
);
layerId = "3DC573FB-EF22-4F14-BBA7-D097D7391B70";
shapes = (
{
closed = 1;
nodes = (
(248,0,l),
(248,300,l),
(468,300,l),
(468,0,l),
(658,0,l),
(658,700,l),
(468,700,l),
(468,440,l),
(248,440,l),
(248,700,l),
(58,700,l),
(58,0,l)
);
}
);
width = 716;
},
{
anchors = (
{
name = bottom;
pos = (358,-20);
},
{
name = top;
pos = (358,719);
},
{
name = topgr;
pos = (-60,500);
}
);
layerId = "48315E7A-EC54-430B-915E-ECFED2D8F863";
shapes = (
{
closed = 1;
nodes = (
(222,0,l),
(222,305,l),
(494,305,l),
(494,0,l),
(659,0,l),
(659,700,l),
(494,700,l),
(494,435,l),
(222,435,l),
(222,700,l),
(57,700,l),
(57,0,l)
);
}
);
width = 716;
},
{
anchors = (
{
name = bottom;
pos = (358,-20);
},
{
name = top;
pos = (358,719);
},
{
name = topgr;
pos = (-50,500);
}
);
layerId = "87250A93-E16C-45E7-81EC-EDE6CBCB21F2";
shapes = (
{
closed = 1;
nodes = (
(212,0,l),
(212,310,l,{
name = dv01;
}),
(504,310,l),
(504,0,l,{
name = ab02;
}),
(649,0,l),
(649,700,l,{
name = at01;
}),
(504,700,l),
(504,430,l),
(212,430,l,{
name = dv02;
}),
(212,700,l,{
name = at02;
}),
(67,700,l),
(67,0,l,{
name = ab01;
})
);
}
);
width = 716;
},
{
anchors = (
{
name = bottom;
pos = (358,-20);
},
{
name = top;
pos = (358,719);
},
{
name = topgr;
pos = (-38,500);
}
);
layerId = "C3B1342C-4554-42D4-BF1D-4BC45B7A32A8";
shapes = (
{
closed = 1;
nodes = (
(197,0,l),
(197,320,l,{
name = dv01;
}),
(519,320,l),
(519,0,l,{
name = ab02;
}),
(639,0,l),
(639,700,l,{
name = at01;
}),
(519,700,l),
(519,420,l),
(197,420,l,{
name = dv02;
}),
(197,700,l,{
name = at02;
}),
(77,700,l),
(77,0,l,{
name = ab01;
})
);
}
);
width = 716;
},
{
anchors = (
{
name = bottom;
pos = (358,-20);
},
{
name = top;
pos = (358,719);
},
{
name = topgr;
pos = (-28,500);
}
);
layerId = "966EEAD7-910A-41B6-BB10-BC7C26207015";
shapes = (
{
closed = 1;
nodes = (
(177,0,l),
(177,330,l,{
name = dv01;
}),
(539,330,l),
(539,0,l,{
name = ab02;
}),
(629,0,l),
(629,700,l,{
name = at01;
}),
(539,700,l),
(539,410,l),
(177,410,l,{
name = dv02;
}),
(177,700,l,{
name = at02;
}),
(87,700,l),
(87,0,l,{
name = ab01;
})
);
}
);
width = 716;
},
{
anchors = (
{
name = bottom;
pos = (358,-20);
},
{
name = top;
pos = (358,719);
},
{
name = topgr;
pos = (-22,500);
}
);
layerId = "15700EBA-52AC-4D6B-A2D3-7F45C26CE079";
shapes = (
{
closed = 1;
nodes = (
(157,0,l),
(157,343,l,{
name = dv01;
}),
(559,343,l),
(559,0,l,{
name = ab02;
}),
(619,0,l),
(619,700,l,{
name = at01;
}),
(559,700,l),
(559,397,l),
(157,397,l,{
name = dv02;
}),
(157,700,l,{
name = at02;
}),
(97,700,l),
(97,0,l,{
name = ab01;
})
);
}
);
width = 716;
}
);
unicode = 72;
},
{
color = 6;
glyphname = Hbar;
kernLeft = Eth;
lastChange = "2024-07-04 14:33:30 +0000";
layers = (
{
layerId = "3DC573FB-EF22-4F14-BBA7-D097D7391B70";
shapes = (
{
closed = 1;
nodes = (
(259,0,l),
(259,300,l),
(479,300,l),
(479,0,l),
(669,0,l),
(669,700,l),
(479,700,l),
(479,440,l),
(259,440,l),
(259,700,l),
(69,700,l),
(69,0,l)
);
},
{
closed = 1;
nodes = (
(737.266,514,l),
(737.266,548,l),
(0.27,548,l),
(0.27,514,l)
);
}
);
width = 737;
},
{
layerId = "48315E7A-EC54-430B-915E-ECFED2D8F863";
shapes = (
{
closed = 1;
nodes = (
(233,0,l),
(233,305,l),
(505,305,l),
(505,0,l),
(670,0,l),
(670,700,l),
(505,700,l),
(505,435,l),
(233,435,l),
(233,700,l),
(68,700,l),
(68,0,l)
);
},
{
closed = 1;
nodes = (
(737.266,514,l),
(737.266,548,l),
(0.27,548,l),
(0.27,514,l)
);
}
);
width = 737;
},
{
layerId = "87250A93-E16C-45E7-81EC-EDE6CBCB21F2";
shapes = (
{
closed = 1;
nodes = (
(223,0,l),
(223,310,l,{
name = dv01;
}),
(515,310,l),
(515,0,l,{
name = ab02;
}),
(660,0,l),
(660,700,l,{
name = at01;
}),
(515,700,l),
(515,430,l),
(223,430,l,{
name = dv02;
}),
(223,700,l,{
name = at02;
}),
(78,700,l),
(78,0,l,{
name = ab01;
})
);
},
{
closed = 1;
nodes = (
(737.266,514,l),
(737.266,548,l),
(0.27,548,l),
(0.27,514,l)
);
}
);
width = 737;
},
{
layerId = "C3B1342C-4554-42D4-BF1D-4BC45B7A32A8";
shapes = (
{
closed = 1;
nodes = (
(208,0,l),
(208,320,l,{
name = dv01;
}),
(530,320,l),
(530,0,l,{
name = ab02;
}),
(650,0,l),
(650,700,l,{
name = at01;
}),
(530,700,l),
(530,420,l),
(208,420,l,{
name = dv02;
}),
(208,700,l,{
name = at02;
}),
(88,700,l),
(88,0,l,{
name = ab01;
})
);
},
{
closed = 1;
nodes = (
(737.266,514,l),
(737.266,548,l),
(0.27,548,l),
(0.27,514,l)
);
}
);
width = 737;
},
{
layerId = "966EEAD7-910A-41B6-BB10-BC7C26207015";
shapes = (
{
closed = 1;
nodes = (
(188,0,l),
(188,330,l,{
name = dv01;
}),
(550,330,l),
(550,0,l,{
name = ab02;
}),
(640,0,l),
(640,700,l,{
name = at01;
}),
(550,700,l),
(550,410,l),
(188,410,l,{
name = dv02;
}),
(188,700,l,{
name = at02;
}),
(98,700,l),
(98,0,l,{
name = ab01;
})
);
},
{
closed = 1;
nodes = (
(737.266,514,l),
(737.266,548,l),
(0.27,548,l),
(0.27,514,l)
);
}
);
width = 737;
},
{
layerId = "15700EBA-52AC-4D6B-A2D3-7F45C26CE079";
shapes = (
{
closed = 1;
nodes = (
(168,0,l),
(168,343,l,{
name = dv01;
}),
(570,343,l),
(570,0,l,{
name = ab02;
}),
(630,0,l),
(630,700,l,{
name = at01;
}),
(570,700,l),
(570,397,l),
(168,397,l,{
name = dv02;
}),
(168,700,l,{
name = at02;
}),
(108,700,l),
(108,0,l,{
name = ab01;
})
);
},
{
closed = 1;
nodes = (
(737.266,515,l),
(737.266,547,l),
(0.27,547,l),
(0.27,515,l)
);
}
);
width = 737;
}
);
unicode = 294;
},
{
color = 6;
glyphname = I;
kernLeft = B;
kernRight = H;
lastChange = "2024-07-04 14:20:28 +0000";
layers = (
{
anchors = (
{
name = bottom;
pos = (163,-20);
},
{
name = ogonek;
pos = (251,-3);
},
{
name = top;
pos = (163,719);
},
{
name = topgr;
pos = (-50,500);
}
);
layerId = "3DC573FB-EF22-4F14-BBA7-D097D7391B70";
shapes = (
{
closed = 1;
nodes = (
(258,0,l),
(258,700,l),
(68,700,l),
(68,0,l)
);
}
);
width = 326;
},
{
anchors = (
{
name = bottom;
pos = (163,-20);
},
{
name = ogonek;
pos = (239,-3);
},
{
name = top;
pos = (163,719);
},
{
name = topgr;
pos = (-33,500);
}
);
layerId = "48315E7A-EC54-430B-915E-ECFED2D8F863";
shapes = (
{
closed = 1;
nodes = (
(246,0,l),
(246,700,l),
(80,700,l),
(80,0,l)
);
}
);
width = 326;
},
{
anchors = (
{
name = bottom;
pos = (163,-20);
},
{
name = ogonek;
pos = (231,-2);
},
{
name = top;
pos = (163,719);
},
{
name = topgr;
pos = (-23,500);
}
);
layerId = "87250A93-E16C-45E7-81EC-EDE6CBCB21F2";
shapes = (
{
closed = 1;
nodes = (
(236,0,l),
(236,700,l,{
name = at01;
}),
(90,700,l),
(90,0,l,{
name = ab01;
})
);
}
);
width = 326;
},
{
anchors = (
{
name = bottom;
pos = (163,-20);
},
{
name = ogonek;
pos = (217,-2);
},
{
name = top;
pos = (163,719);
},
{
name = topgr;
pos = (-13,500);
}
);
layerId = "C3B1342C-4554-42D4-BF1D-4BC45B7A32A8";
shapes = (
{
closed = 1;
nodes = (
(223,0,l),
(223,700,l,{
name = at01;
}),
(103,700,l),
(103,0,l,{
name = ab01;
})
);
}
);
width = 326;
},
{
anchors = (
{
name = bottom;
pos = (163,-20);
},
{
name = ogonek;
pos = (205,-3);
},
{
name = top;
pos = (163,719);
},
{
name = topgr;
pos = (1,500);
}
);
layerId = "966EEAD7-910A-41B6-BB10-BC7C26207015";
shapes = (
{
closed = 1;
nodes = (
(208,0,l),
(208,700,l,{
name = at01;
}),
(118,700,l),
(118,0,l,{
name = ab01;
})
);
}
);
width = 326;
},
{
anchors = (
{
name = bottom;
pos = (163,-20);
},
{
name = ogonek;
pos = (193,-3);
},
{
name = top;
pos = (168,719);
},
{
name = topgr;
pos = (13,500);
}
);
layerId = "15700EBA-52AC-4D6B-A2D3-7F45C26CE079";
shapes = (
{
closed = 1;
nodes = (
(193,0,l),
(193,700,l),
(133,700,l),
(133,0,l)
);
}
);
width = 326;
}
);
unicode = 73;
},
{
color = 6;
glyphname = Iogonek;
kernLeft = B;
kernRight = H;
lastChange = "2024-07-04 14:33:30 +0000";
layers = (
{
anchors = (
{
name = bottom;
pos = (163,-20);
},
{
name = top;
pos = (163,719);
},
{
name = topgr;
pos = (-50,500);
}
);
layerId = "3DC573FB-EF22-4F14-BBA7-D097D7391B70";
shapes = (
{
closed = 1;
nodes = (
(258,0,l),
(258,700,l),
(68,700,l),
(68,0,l)
);
},
{
closed = 1;
nodes = (
(259,-183,l),
(216.672,-169,o),
(196,-138,o),
(196,-104,cs),
(196,-67,o),
(219.619,-24,o),
(258,0,c),
(198.709,3,l),
(102.236,-14,o),
(54,-53,o),
(54,-105,cs),
(54,-158,o),
(105.25,-196,o),
(184.637,-206,c)
);
}
);
width = 326;
},
{
anchors = (
{
name = bottom;
pos = (163,-20);
},
{
name = top;
pos = (163,719);
},
{
name = topgr;
pos = (-33,500);
}
);
layerId = "48315E7A-EC54-430B-915E-ECFED2D8F863";
shapes = (
{
closed = 1;
nodes = (
(246,0,l),
(246,700,l),
(80,700,l),
(80,0,l)
);
},
{
closed = 1;
nodes = (
(247,-183,l),
(204,-169,o),
(183,-138,o),
(183,-104,cs),
(183,-67,o),
(207,-24,o),
(246,0,c),
(207,3,l),
(111,-14,o),
(63,-53,o),
(63,-106,cs),
(63,-158,o),
(109,-196,o),
(183,-206,c)
);
}
);
width = 326;
},
{
anchors = (
{
name = bottom;
pos = (163,-20);
},
{
name = top;
pos = (163,719);
},
{
name = topgr;
pos = (-23,500);
}
);
layerId = "87250A93-E16C-45E7-81EC-EDE6CBCB21F2";
shapes = (
{
closed = 1;
nodes = (
(236,0,l),
(236,700,l,{
name = at01;
}),
(90,700,l),
(90,0,l,{
name = ab01;
})
);
},
{
closed = 1;
nodes = (
(237,-182,l),
(194,-168,o),
(173,-137,o),
(173,-103,cs),
(173,-66,o),
(197,-24,o),
(236,0,c),
(203,3,l),
(114,-13,o),
(63,-55,o),
(63,-108,cs),
(63,-158,o),
(107,-195,o),
(180,-205,c)
);
}
);
width = 326;
},
{
anchors = (
{
name = bottom;
pos = (163,-20);
},
{
name = top;
pos = (163,719);
},
{
name = topgr;
pos = (-13,500);
}
);
layerId = "C3B1342C-4554-42D4-BF1D-4BC45B7A32A8";
shapes = (
{
closed = 1;
nodes = (
(223,0,l),
(223,700,l,{
name = at01;
}),
(103,700,l),
(103,0,l,{
name = ab01;
})
);
},
{
closed = 1;
nodes = (
(224,-182,l),
(180,-168,o),
(158,-137,o),
(158,-103,cs),
(158,-66,o),
(183,-24,o),
(223,0,c),
(200,3,l),
(117,-13,o),
(65,-55,o),
(65,-109,cs),
(65,-158,o),
(109,-195,o),
(177,-205,c)
);
}
);
width = 326;
},
{
anchors = (
{
name = bottom;
pos = (163,-20);
},
{
name = top;
pos = (163,719);
},
{
name = topgr;
pos = (1,500);
}
);
layerId = "966EEAD7-910A-41B6-BB10-BC7C26207015";
shapes = (
{
closed = 1;
nodes = (
(208,0,l),
(208,700,l,{
name = at01;
}),
(118,700,l),
(118,0,l,{
name = ab01;
})
);
},
{
closed = 1;
nodes = (
(209,-183,l),
(165,-171,o),
(142,-143,o),
(142,-103,cs),
(142,-62,o),
(167,-22,o),
(208,0,c),
(187,3,l),
(114,-12,o),
(67,-59,o),
(67,-110,cs),
(67,-157,o),
(107,-196,o),
(167,-206,c)
);
}
);
width = 326;
},
{
anchors = (
{
name = bottom;
pos = (163,-20);
},
{
name = top;
pos = (168,719);
},
{
name = topgr;
pos = (13,500);
}
);
layerId = "15700EBA-52AC-4D6B-A2D3-7F45C26CE079";
shapes = (
{
closed = 1;
nodes = (
(193,0,l),
(193,700,l),
(133,700,l),
(133,0,l)
);
},
{
closed = 1;
nodes = (
(194,-183,l),
(150,-171,o),
(127,-143,o),
(127,-103,cs),
(127,-62,o),
(152,-22,o),
(193,0,c),
(175,3,l),
(115,-12,o),
(72,-59,o),
(72,-108,cs),
(72,-154,o),
(111,-196,o),
(158,-206,c)
);
}
);
width = 326;
}
);
unicode = 302;
},
{
color = 6;
glyphname = J;
kernLeft = J;
kernRight = J1;
lastChange = "2024-07-04 14:33:30 +0000";
layers = (
{
anchors = (
{
name = bottom;
pos = (248,-20);
},
{
name = top;
pos = (422,719);
}
);
associatedMasterId = "15700EBA-52AC-4D6B-A2D3-7F45C26CE079";
layerId = "526B3205-964B-43ED-A08E-E7641FE0513C";
name = "#instance";
shapes = (
{
closed = 1;
nodes = (
(26,122,l),
(89,25,o),
(155,-20,o),
(249,-20,cs,{
name = dv01;
}),
(378,-20,o),
(451,64,o),
(451,222,cs),
(451,700,l,{
name = at01;
}),
(391,700,l),
(391,196,ls),
(391,92,o),
(339,35,o),
(248,35,cs,{
name = dv02;
}),
(170.403,35,o),
(117.207,79.516,o),
(69,165,c)
);
}
);
width = 540;
},
{
anchors = (
{
name = bottom;
pos = (248,-20);
},
{
name = top;
pos = (399,719);
}
);
layerId = "3DC573FB-EF22-4F14-BBA7-D097D7391B70";
shapes = (
{
closed = 1;
nodes = (
(412,-20,o),
(490,80,o),
(490,242,cs),
(490,700,l),
(300,700,l),
(300,249,ls),
(300,164,o),
(283.534,120,o),
(233.967,120,cs),
(187.576,120,o),
(146.102,159.569,o),
(106,228,c),
(0,122,l),
(65,24,o),
(139,-20,o),
(248,-20,cs)
);
}
);
width = 540;
},
{
anchors = (
{
name = bottom;
pos = (248,-20);
},
{
name = top;
pos = (403,719);
}
);
layerId = "48315E7A-EC54-430B-915E-ECFED2D8F863";
shapes = (
{
closed = 1;
nodes = (
(394,-20,o),
(487,67,o),
(487,222,cs),
(487,700,l),
(321,700,l),
(321,240,ls),
(321,148,o),
(297,110,o),
(239,110,cs),
(187,110,o),
(151,140,o),
(95,217,c),
(0,122,l),
(59,30,o),
(138,-20,o),
(248,-20,cs)
);
}
);
width = 540;
},
{
anchors = (
{
name = bottom;
pos = (248,-20);
},
{
name = top;
pos = (413,719);
}
);
layerId = "87250A93-E16C-45E7-81EC-EDE6CBCB21F2";
shapes = (
{
closed = 1;
nodes = (
(400,-20,o),
(486,64,o),
(486,222,cs),
(486,700,l,{
name = at01;
}),
(340,700,l),
(340,239,ls),
(340,151,o),
(312,100,o),
(242,100,cs,{
name = dv02;
}),
(186,100,o),
(138,132,o),
(85,207,c),
(0,122,l),
(67,25,o),
(141,-20,o),
(250,-20,cs,{
name = dv01;
})
);
}
);
width = 540;
},
{
anchors = (
{
name = bottom;
pos = (248,-20);
},
{
name = top;
pos = (418,719);
}
);
layerId = "C3B1342C-4554-42D4-BF1D-4BC45B7A32A8";
shapes = (
{
closed = 1;
nodes = (
(394,-20,o),
(476,64,o),
(476,222,cs),
(476,700,l,{
name = at01;
}),
(356,700,l),
(356,230,ls),
(356,127,o),
(322,80,o),
(251,80,cs,{
name = dv02;
}),
(191,80,o),
(127,114,o),
(77,193,c),
(6,122,l),
(72,25,o),
(146,-20,o),
(251,-20,cs,{
name = dv01;
})
);
}
);
width = 540;
},
{
anchors = (
{
name = bottom;
pos = (248,-20);
},
{
name = top;
pos = (418,719);
}
);
layerId = "966EEAD7-910A-41B6-BB10-BC7C26207015";
shapes = (
{
closed = 1;
nodes = (
(384,-20,o),
(461,64,o),
(461,222,cs),
(461,700,l,{
name = at01;
}),
(371,700,l),
(371,215,ls),
(371,117,o),
(326,60,o),
(244,60,cs,{
name = dv02;
}),
(178,60,o),
(124,97,o),
(74,180,c),
(16,122,l),
(80,25,o),
(150,-20,o),
(249,-20,cs,{
name = dv01;
})
);
}
);
width = 540;
},
{
anchors = (
{
name = bottom;
pos = (248,-20);
},
{
name = top;
pos = (422,719);
}
);
layerId = "15700EBA-52AC-4D6B-A2D3-7F45C26CE079";
shapes = (
{
closed = 1;
nodes = (
(378,-20,o),
(451,64,o),
(451,222,cs),
(451,700,l,{
name = at01;
}),
(391,700,l),
(391,196,ls),
(391,92,o),
(339,35,o),
(248,35,cs,{
name = dv02;
}),
(170.403,35,o),
(117.207,79.516,o),
(69,165,c),
(26,122,l),
(89,25,o),
(155,-20,o),
(249,-20,cs,{
name = dv01;
})
);
}
);
width = 540;
}
);
unicode = 74;
},
{
color = 6;
glyphname = K;
kernLeft = B;
kernRight = K;
lastChange = "2024-07-04 14:20:28 +0000";
layers = (
{
anchors = (
{
name = bottom;
pos = (335,-20);
},
{
name = top;
pos = (335,719);
}
);
layerId = "3DC573FB-EF22-4F14-BBA7-D097D7391B70";
shapes = (
{
closed = 1;
nodes = (
(679,0,l),
(467,367,l),
(675,700,l),
(474,700,l),
(316,426,l),
(140,426,l),
(129,282,l),
(304,282,l),
(460,0,l)
);
},
{
closed = 1;
nodes = (
(248,0,l),
(248,700,l),
(58,700,l),
(58,0,l)
);
}
);
width = 670;
},
{
anchors = (
{
name = bottom;
pos = (335,-20);
},
{
name = top;
pos = (335,719);
}
);
layerId = "48315E7A-EC54-430B-915E-ECFED2D8F863";
shapes = (
{
closed = 1;
nodes = (
(658,0,l),
(446,367,l),
(654,700,l),
(480,700,l),
(319,421,l),
(116,421,l),
(105,287,l),
(307,287,l),
(466,0,l)
);
},
{
closed = 1;
nodes = (
(223,0,l),
(223,700,l),
(57,700,l),
(57,0,l)
);
}
);
width = 670;
},
{
anchors = (
{
name = bottom;
pos = (335,-20);
},
{
name = top;
pos = (335,719);
}
);
layerId = "87250A93-E16C-45E7-81EC-EDE6CBCB21F2";
shapes = (
{
closed = 1;
nodes = (
(653,0,l),
(441,367,l),
(649,700,l),
(498,700,l),
(337,421,l),
(111,421,l),
(100,299,l),
(325,299,l),
(484,0,l)
);
},
{
closed = 1;
nodes = (
(212,0,l),
(212,700,l),
(67,700,l),
(67,0,l)
);
}
);
width = 670;
},
{
anchors = (
{
name = bottom;
pos = (335,-20);
},
{
name = top;
pos = (335,719);
}
);
layerId = "C3B1342C-4554-42D4-BF1D-4BC45B7A32A8";
shapes = (
{
closed = 1;
nodes = (
(633,0,l),
(421,367,l),
(629,700,l),
(488,700,l),
(327,410,l),
(101,410,l),
(110,312,l),
(320,312,l),
(493,0,l)
);
},
{
closed = 1;
nodes = (
(198,0,l),
(198,700,l),
(78,700,l,{
name = at01;
}),
(78,0,l,{
name = ab01;
})
);
}
);
width = 670;
},
{
anchors = (
{
name = bottom;
pos = (335,-20);
},
{
name = top;
pos = (335,719);
}
);
layerId = "966EEAD7-910A-41B6-BB10-BC7C26207015";
shapes = (
{
closed = 1;
nodes = (
(623,0,l),
(411,367,l),
(619,700,l),
(512,700,l),
(338,399,l),
(101,399,l),
(110,318,l),
(350,318,l),
(519,0,l)
);
},
{
closed = 1;
nodes = (
(178,0,l),
(178,700,l),
(88,700,l,{
name = at01;
}),
(88,0,l,{
name = ab01;
})
);
}
);
width = 670;
},
{
anchors = (
{
name = bottom;
pos = (335,-20);
},
{
name = top;
pos = (335,719);
}
);
layerId = "15700EBA-52AC-4D6B-A2D3-7F45C26CE079";
shapes = (
{
closed = 1;
nodes = (
(613,0,l),
(401,367,l),
(609,700,l),
(538,700,l),
(351,389,l),
(121,389,l),
(130,335,l),
(357,335,l),
(543,0,l)
);
},
{
closed = 1;
nodes = (
(158,0,l),
(158,700,l,{
name = av02;
}),
(98,700,l),
(98,0,l,{
name = av01;
})
);
}
);
width = 670;
}
);
unicode = 75;
},
{
color = 6;
glyphname = L;
kernLeft = B;
kernRight = L;
lastChange = "2024-07-04 14:20:28 +0000";
layers = (
{
anchors = (
{
name = bottom;
pos = (277,-20);
},
{
name = top;
pos = (162,719);
},
{
name = topright;
pos = (332,700);
}
);
layerId = "3DC573FB-EF22-4F14-BBA7-D097D7391B70";
shapes = (
{
closed = 1;
nodes = (
(514,0,l),
(514,140,l),
(248,140,l),
(248,700,l),
(58,700,l),
(58,0,l)
);
}
);
width = 524;
},
{
anchors = (
{
name = bottom;
pos = (277,-20);
},
{
name = top;
pos = (151,719);
},
{
name = topright;
pos = (318,700);
}
);
layerId = "48315E7A-EC54-430B-915E-ECFED2D8F863";
shapes = (
{
closed = 1;
nodes = (
(511,0,l),
(511,130,l),
(224,130,l),
(224,700,l),
(58,700,l),
(58,0,l)
);
}
);
width = 524;
},
{
anchors = (
{
name = bottom;
pos = (277,-20);
},
{
name = top;
pos = (140,719);
},
{
name = topright;
pos = (314,700);
}
);
layerId = "87250A93-E16C-45E7-81EC-EDE6CBCB21F2";
shapes = (
{
closed = 1;
nodes = (
(508,0,l),
(508,120,l,{
name = sv01;
}),
(214,120,l),
(214,700,l,{
name = at01;
}),
(68,700,l),
(68,0,l,{
name = ab01;
})
);
}
);
width = 524;
},
{
anchors = (
{
name = bottom;
pos = (277,-20);
},
{
name = top;
pos = (138,719);
},
{
name = topright;
pos = (312,700);
}
);
layerId = "C3B1342C-4554-42D4-BF1D-4BC45B7A32A8";
shapes = (
{
closed = 1;
nodes = (
(506,0,l),
(506,100,l,{
name = sv01;
}),
(198,100,l),
(198,700,l,{
name = at01;
}),
(78,700,l),
(78,0,l,{
name = ab01;
})
);
}
);
width = 524;
},
{
anchors = (
{
name = bottom;
pos = (277,-20);
},
{
name = top;
pos = (133,719);
},
{
name = topright;
pos = (296,700);
}
);
layerId = "966EEAD7-910A-41B6-BB10-BC7C26207015";
shapes = (
{
closed = 1;
nodes = (
(504,0,l),
(504,80,l,{
name = sv01;
}),
(178,80,l),
(178,700,l,{
name = at01;
}),
(88,700,l),
(88,0,l,{
name = ab01;
})
);
}
);
width = 524;
},
{
anchors = (
{
name = bottom;
pos = (277,-20);
},
{
name = top;
pos = (132,719);
},
{
name = topright;
pos = (288,700);
}
);
layerId = "15700EBA-52AC-4D6B-A2D3-7F45C26CE079";
shapes = (
{
closed = 1;
nodes = (
(502,0,l),
(502,54,l,{
name = sv01;
}),
(158,54,l),
(158,700,l,{
name = at01;
}),
(98,700,l),
(98,0,l,{
name = ab01;
})
);
}
);
width = 524;
}
);
unicode = 76;
},
{
color = 6;
glyphname = Lslash;
kernLeft = Eth;
kernRight = L;
lastChange = "2024-07-04 14:20:28 +0000";
layers = (
{
layerId = "3DC573FB-EF22-4F14-BBA7-D097D7391B70";
shapes = (
{
closed = 1;
nodes = (
(514,0,l),
(514,140,l),
(258,140,l),
(258,700,l),
(68,700,l),
(68,0,l)
);
},
{
closed = 1;
nodes = (
(413,510,l),
(413,559,l),
(0,280,l),
(0,231,l)
);
}
);
width = 554;
},
{
layerId = "48315E7A-EC54-430B-915E-ECFED2D8F863";
shapes = (
{
closed = 1;
nodes = (
(514,0,l),
(514,130,l),
(234,130,l),
(234,700,l),
(68,700,l),
(68,0,l)
);
},
{
closed = 1;
nodes = (
(399,500,l),
(399,549,l),
(0,280,l),
(0,231,l)
);
}
);
width = 554;
},
{
layerId = "87250A93-E16C-45E7-81EC-EDE6CBCB21F2";
shapes = (
{
closed = 1;
nodes = (
(514,0,l),
(514,120,l,{
name = sv01;
}),
(214,120,l),
(214,700,l,{
name = at01;
}),
(68,700,l),
(68,0,l,{
name = ab01;
})
);
},
{
closed = 1;
nodes = (
(388,494,l),
(388,543,l),
(0,280,l),
(0,231,l)
);
}
);
width = 554;
},
{
layerId = "C3B1342C-4554-42D4-BF1D-4BC45B7A32A8";
shapes = (
{
closed = 1;
nodes = (
(504,0,l),
(504,100,l,{
name = sv01;
}),
(198,100,l),
(198,700,l,{
name = at01;
}),
(78,700,l),
(78,0,l,{
name = ab01;
})
);
},
{
closed = 1;
nodes = (
(369,481,l),
(369,530,l),
(0,280,l),
(0,231,l)
);
}
);
width = 554;
},
{
layerId = "966EEAD7-910A-41B6-BB10-BC7C26207015";
shapes = (
{
closed = 1;
nodes = (
(494,0,l),
(494,80,l,{
name = sv01;
}),
(178,80,l),
(178,700,l,{
name = at01;
}),
(88,700,l),
(88,0,l,{
name = ab01;
})
);
},
{
closed = 1;
nodes = (
(350,469,l),
(350,518,l),
(0,280,l),
(0,231,l)
);
}
);
width = 554;
},
{
layerId = "15700EBA-52AC-4D6B-A2D3-7F45C26CE079";
shapes = (
{
closed = 1;
nodes = (
(484,0,l),
(484,54,l,{
name = sv01;
}),
(158,54,l),
(158,700,l,{
name = at01;
}),
(98,700,l),
(98,0,l,{
name = ab01;
})
);
},
{
closed = 1;
nodes = (
(350,469,l),
(350,518,l),
(0,280,l),
(0,231,l)
);
}
);
width = 554;
}
);
unicode = 321;
},
{
color = 6;
glyphname = M;
kernLeft = B;
kernRight = H;
lastChange = "2024-07-04 14:20:28 +0000";
layers = (
{
anchors = (
{
name = bottom;
pos = (444,-20);
},
{
name = top;
pos = (444,719);
}
);
associatedMasterId = "15700EBA-52AC-4D6B-A2D3-7F45C26CE079";
layerId = "526B3205-964B-43ED-A08E-E7641FE0513C";
name = "#instance";
shapes = (
{
closed = 1;
nodes = (
(97,0,l,{
name = ab03;
}),
(157,0,l),
(157,570,l,{
name = iv01;
}),
(423,0,l,{
name = ab01;
}),
(465,0,l),
(731,570,l,{
name = iv02;
}),
(731,0,l,{
name = ab02;
}),
(791,0,l),
(791,700,l,{
name = at01;
}),
(731,700,l),
(444,85,l,{
name = iv03;
}),
(157,700,l,{
name = at02;
}),
(97,700,l)
);
}
);
width = 888;
},
{
anchors = (
{
name = bottom;
pos = (444,-20);
},
{
name = top;
pos = (444,719);
}
);
layerId = "3DC573FB-EF22-4F14-BBA7-D097D7391B70";
shapes = (
{
closed = 1;
nodes = (
(238,0,l),
(238,321,l),
(384,0,l),
(504,0,l),
(650,321,l),
(650,0,l),
(830,0,l),
(830,700,l),
(650,700,l),
(444,249,l),
(238,700,l),
(58,700,l),
(58,0,l)
);
}
);
width = 888;
},
{
anchors = (
{
name = bottom;
pos = (444,-20);
},
{
name = top;
pos = (444,719);
}
);
layerId = "48315E7A-EC54-430B-915E-ECFED2D8F863";
shapes = (
{
closed = 1;
nodes = (
(217,0,l),
(217,382,l,{
name = iv01;
}),
(401,0,l,{
name = ab01;
}),
(487,0,l),
(671,382,l,{
name = iv02;
}),
(671,0,l,{
name = ab02;
}),
(831,0,l),
(831,700,l,{
name = at01;
}),
(671,700,l),
(444,226,l,{
name = iv03;
}),
(217,700,l,{
name = at02;
}),
(57,700,l),
(57,0,l,{
name = ab03;
})
);
}
);
width = 888;
},
{
anchors = (
{
name = bottom;
pos = (444,-20);
},
{
name = top;
pos = (444,719);
}
);
layerId = "87250A93-E16C-45E7-81EC-EDE6CBCB21F2";
shapes = (
{
closed = 1;
nodes = (
(213,0,l),
(213,414,l,{
name = iv01;
}),
(406,0,l,{
name = ab01;
}),
(482,0,l),
(675,414,l,{
name = iv02;
}),
(675,0,l,{
name = ab02;
}),
(821,0,l),
(821,700,l,{
name = at01;
}),
(675,700,l),
(444,204,l,{
name = iv03;
}),
(213,700,l,{
name = at02;
}),
(67,700,l),
(67,0,l,{
name = ab03;
})
);
}
);
width = 888;
},
{
anchors = (
{
name = bottom;
pos = (444,-20);
},
{
name = top;
pos = (444,719);
}
);
layerId = "C3B1342C-4554-42D4-BF1D-4BC45B7A32A8";
shapes = (
{
closed = 1;
nodes = (
(197,0,l),
(197,464,l,{
name = iv01;
}),
(413,0,l,{
name = ab01;
}),
(475,0,l),
(691,464,l,{
name = iv02;
}),
(691,0,l,{
name = ab02;
}),
(811,0,l),
(811,700,l,{
name = at01;
}),
(691,700,l),
(444,170,l,{
name = iv03;
}),
(197,700,l,{
name = at02;
}),
(77,700,l),
(77,0,l,{
name = ab03;
})
);
}
);
width = 888;
},
{
anchors = (
{
name = bottom;
pos = (444,-20);
},
{
name = top;
pos = (444,719);
}
);
layerId = "966EEAD7-910A-41B6-BB10-BC7C26207015";
shapes = (
{
closed = 1;
nodes = (
(177,0,l),
(177,525,l,{
name = iv01;
}),
(422,0,l,{
name = ab01;
}),
(466,0,l),
(711,525,l,{
name = iv02;
}),
(711,0,l,{
name = ab02;
}),
(801,0,l),
(801,700,l,{
name = at01;
}),
(711,700,l),
(444,127,l,{
name = iv03;
}),
(177,700,l,{
name = at02;
}),
(87,700,l),
(87,0,l,{
name = ab03;
})
);
}
);
width = 888;
},
{
anchors = (
{
name = bottom;
pos = (444,-20);
},
{
name = top;
pos = (444,719);
}
);
layerId = "15700EBA-52AC-4D6B-A2D3-7F45C26CE079";
shapes = (
{
closed = 1;
nodes = (
(157,0,l),
(157,570,l,{
name = iv01;
}),
(423,0,l,{
name = ab01;
}),
(465,0,l),
(731,570,l,{
name = iv02;
}),
(731,0,l,{
name = ab02;
}),
(791,0,l),
(791,700,l,{
name = at01;
}),
(731,700,l),
(444,85,l,{
name = iv03;
}),
(157,700,l,{
name = at02;
}),
(97,700,l),
(97,0,l,{
name = ab03;
})
);
}
);
width = 888;
}
);
unicode = 77;
},
{
color = 6;
glyphname = N;
kernLeft = B;
kernRight = H;
lastChange = "2024-07-04 14:20:28 +0000";
layers = (
{
anchors = (
{
name = bottom;
pos = (366,-20);
},
{
name = top;
pos = (366,719);
}
);
associatedMasterId = "15700EBA-52AC-4D6B-A2D3-7F45C26CE079";
layerId = "526B3205-964B-43ED-A08E-E7641FE0513C";
name = "#instance";
shapes = (
{
closed = 1;
nodes = (
(97,0,l),
(157,0,l,{
name = ab01;
}),
(157,593,l,{
name = iv01;
}),
(585,0,l,{
name = ab02;
}),
(635,0,l),
(635,700,l,{
name = at01;
}),
(575,700,l),
(575,107,l,{
name = iv02;
}),
(147,700,l,{
name = at02;
}),
(97,700,l)
);
}
);
width = 732;
},
{
anchors = (
{
name = bottom;
pos = (366,-20);
},
{
name = top;
pos = (366,719);
}
);
layerId = "3DC573FB-EF22-4F14-BBA7-D097D7391B70";
shapes = (
{
closed = 1;
nodes = (
(248,0,l),
(248,389,l),
(494,0,l),
(674,0,l),
(674,700,l),
(484,700,l),
(484,311,l),
(238,700,l),
(58,700,l),
(58,0,l)
);
}
);
width = 732;
},
{
anchors = (
{
name = bottom;
pos = (366,-20);
},
{
name = top;
pos = (366,719);
}
);
layerId = "48315E7A-EC54-430B-915E-ECFED2D8F863";
shapes = (
{
closed = 1;
nodes = (
(223,0,l),
(223,439,l),
(519,0,l),
(675,0,l),
(675,700,l),
(509,700,l),
(509,261,l),
(213,700,l),
(57,700,l),
(57,0,l)
);
}
);
width = 732;
},
{
anchors = (
{
name = bottom;
pos = (366,-20);
},
{
name = top;
pos = (366,719);
}
);
layerId = "87250A93-E16C-45E7-81EC-EDE6CBCB21F2";
shapes = (
{
closed = 1;
nodes = (
(213,0,l,{
name = ab01;
}),
(213,468,l,{
name = iv01;
}),
(529,0,l,{
name = ab02;
}),
(665,0,l),
(665,700,l,{
name = at01;
}),
(519,700,l),
(519,232,l,{
name = iv02;
}),
(203,700,l,{
name = at02;
}),
(67,700,l),
(67,0,l)
);
}
);
width = 732;
},
{
anchors = (
{
name = bottom;
pos = (366,-20);
},
{
name = top;
pos = (366,719);
}
);
layerId = "C3B1342C-4554-42D4-BF1D-4BC45B7A32A8";
shapes = (
{
closed = 1;
nodes = (
(197,0,l,{
name = ab01;
}),
(197,515,l,{
name = iv01;
}),
(545,0,l,{
name = ab02;
}),
(655,0,l),
(655,700,l,{
name = at01;
}),
(535,700,l),
(535,185,l,{
name = iv02;
}),
(187,700,l,{
name = at02;
}),
(77,700,l),
(77,0,l)
);
}
);
width = 732;
},
{
anchors = (
{
name = bottom;
pos = (366,-20);
},
{
name = top;
pos = (366,719);
}
);
layerId = "966EEAD7-910A-41B6-BB10-BC7C26207015";
shapes = (
{
closed = 1;
nodes = (
(177,0,l,{
name = ab01;
}),
(177,554,l,{
name = iv01;
}),
(565,0,l,{
name = ab02;
}),
(645,0,l),
(645,700,l,{
name = at01;
}),
(555,700,l),
(555,146,l,{
name = iv02;
}),
(167,700,l,{
name = at02;
}),
(87,700,l),
(87,0,l)
);
}
);
width = 732;
},
{
anchors = (
{
name = bottom;
pos = (366,-20);
},
{
name = top;
pos = (366,719);
}
);
layerId = "15700EBA-52AC-4D6B-A2D3-7F45C26CE079";
shapes = (
{
closed = 1;
nodes = (
(157,0,l,{
name = ab01;
}),
(157,593,l,{
name = iv01;
}),
(585,0,l,{
name = ab02;
}),
(635,0,l),
(635,700,l,{
name = at01;
}),
(575,700,l),
(575,107,l,{
name = iv02;
}),
(147,700,l,{
name = at02;
}),
(97,700,l),
(97,0,l)
);
}
);
width = 732;
}
);
unicode = 78;
},
{
color = 6;
glyphname = Eng;
kernLeft = B;
kernRight = H;
lastChange = "2024-07-04 14:33:30 +0000";
layers = (
{
anchors = (
{
name = bottom;
pos = (411,-229);
},
{
name = top;
pos = (376,719);
}
);
layerId = "3DC573FB-EF22-4F14-BBA7-D097D7391B70";
shapes = (
{
closed = 1;
nodes = (
(258,0,l),
(258,379,l),
(504,0,l),
(684,107.569,l),
(684,700,l),
(494,700,l),
(494,321,l),
(248,700,l),
(68,700,l),
(68,0,l)
);
},
{
closed = 1;
nodes = (
(606,-240,o),
(684,-140,o),
(684,22,cs),
(684,480,l),
(494,480,l),
(494,29,ls),
(494,-56,o),
(477.534,-100,o),
(427.967,-100,cs),
(381.576,-100,o),
(340.102,-60.431,o),
(300,8,c),
(194,-98,l),
(259,-196,o),
(333,-240,o),
(442,-240,cs)
);
}
);
width = 752;
},
{
anchors = (
{
name = bottom;
pos = (402,-217);
},
{
name = top;
pos = (376,719);
}
);
layerId = "48315E7A-EC54-430B-915E-ECFED2D8F863";
shapes = (
{
closed = 1;
nodes = (
(233,0,l),
(233,439,l),
(529,0,l),
(685,106.164,l),
(685,700,l),
(519,700,l),
(519,261,l),
(223,700,l),
(67,700,l),
(67,0,l)
);
},
{
closed = 1;
nodes = (
(592,-230,o),
(685,-143,o),
(685,12,cs),
(685,490,l),
(519,490,l),
(519,30,ls),
(519,-62,o),
(495,-100,o),
(437,-100,cs),
(385,-100,o),
(346,-70,o),
(290,7,c),
(195,-88,l),
(254,-180,o),
(336,-230,o),
(446,-230,cs)
);
}
);
width = 752;
},
{
anchors = (
{
name = bottom;
pos = (390,-218);
},
{
name = top;
pos = (376,719);
}
);
layerId = "87250A93-E16C-45E7-81EC-EDE6CBCB21F2";
shapes = (
{
closed = 1;
nodes = (
(223,0,l,{
name = ab01;
}),
(223,468,l,{
name = iv01;
}),
(539,0,l,{
name = ab02;
}),
(675,60.785,l),
(675,700,l,{
name = at01;
}),
(529,700,l),
(529,232,l,{
name = iv02;
}),
(213,700,l,{
name = at02;
}),
(77,700,l),
(77,0,l)
);
},
{
closed = 1;
nodes = (
(589,-221,o),
(675,-137,o),
(675,21,cs),
(675,499,l,{
name = at01;
}),
(529,499,l),
(529,38,ls),
(529,-50,o),
(501,-101,o),
(431,-101,cs,{
name = dv02;
}),
(375,-101,o),
(323,-69,o),
(270,6,c),
(185,-79,l),
(252,-176,o),
(330,-221,o),
(439,-221,cs,{
name = dv01;
})
);
}
);
width = 752;
},
{
anchors = (
{
name = bottom;
pos = (384,-190);
},
{
name = top;
pos = (376,719);
}
);
layerId = "C3B1342C-4554-42D4-BF1D-4BC45B7A32A8";
shapes = (
{
closed = 1;
nodes = (
(207,0,l,{
name = ab01;
}),
(207,515,l,{
name = iv01;
}),
(555,0,l,{
name = ab02;
}),
(665,24.998,l),
(665,700,l,{
name = at01;
}),
(545,700,l),
(545,185,l,{
name = iv02;
}),
(197,700,l,{
name = at02;
}),
(87,700,l),
(87,0,l)
);
},
{
closed = 1;
nodes = (
(583,-220,o),
(665,-136,o),
(665,22,cs),
(665,500,l,{
name = at01;
}),
(545,500,l),
(545,30,ls),
(545,-73,o),
(511,-120,o),
(440,-120,cs,{
name = dv02;
}),
(380,-120,o),
(316,-86,o),
(266,-7,c),
(195,-78,l),
(261,-175,o),
(335,-220,o),
(440,-220,cs,{
name = dv01;
})
);
}
);
width = 752;
},
{
anchors = (
{
name = bottom;
pos = (378,-202);
},
{
name = top;
pos = (376,719);
}
);
layerId = "966EEAD7-910A-41B6-BB10-BC7C26207015";
shapes = (
{
closed = 1;
nodes = (
(187,0,l,{
name = ab01;
}),
(187,554,l,{
name = iv01;
}),
(575,0,l,{
name = ab02;
}),
(655,24.601,l),
(655,700,l,{
name = at01;
}),
(565,700,l),
(565,146,l,{
name = iv02;
}),
(177,700,l,{
name = at02;
}),
(97,700,l),
(97,0,l)
);
},
{
closed = 1;
nodes = (
(578,-221,o),
(655,-137,o),
(655,21,cs),
(655,499,l,{
name = at01;
}),
(565,499,l),
(565,14,ls),
(565,-84,o),
(520,-141,o),
(438,-141,cs,{
name = dv02;
}),
(372,-141,o),
(318,-104,o),
(268,-21,c),
(210,-79,l),
(274,-176,o),
(344,-221,o),
(443,-221,cs,{
name = dv01;
})
);
}
);
width = 752;
},
{
anchors = (
{
name = bottom;
pos = (376,-205);
},
{
name = top;
pos = (376,719);
}
);
layerId = "15700EBA-52AC-4D6B-A2D3-7F45C26CE079";
shapes = (
{
closed = 1;
nodes = (
(167,0,l,{
name = ab01;
}),
(167,589,l,{
name = iv01;
}),
(595,0,l,{
name = ab02;
}),
(645,23.392,l),
(645,700,l,{
name = at01;
}),
(585,700,l),
(585,111,l,{
name = iv02;
}),
(157,700,l,{
name = at02;
}),
(107,700,l),
(107,0,l)
);
},
{
closed = 1;
nodes = (
(572,-221,o),
(645,-137,o),
(645,21,cs),
(645,499,l,{
name = at01;
}),
(585,499,l),
(585,-5,ls),
(585,-109,o),
(533,-166,o),
(442,-166,cs,{
name = dv02;
}),
(364.403,-166,o),
(311.207,-121.484,o),
(263,-36,c),
(220,-79,l),
(283,-176,o),
(349,-221,o),
(443,-221,cs,{
name = dv01;
})
);
}
);
width = 752;
}
);
unicode = 330;
},
{
color = 6;
glyphname = O;
kernLeft = C1;
kernRight = C;
lastChange = "2024-07-04 14:33:30 +0000";
layers = (
{
anchors = (
{
name = bottom;
pos = (388,-20);
},
{
name = ogonek;
pos = (512,-2);
},
{
name = top;
pos = (388,719);
},
{
name = topgr;
pos = (-24,500);
}
);
layerId = "3DC573FB-EF22-4F14-BBA7-D097D7391B70";
shapes = (
{
closed = 1;
nodes = (
(604,-20,o),
(752,125,o),
(752,350,cs),
(752,568,o),
(608,720,o),
(388,720,cs),
(168,720,o),
(23,569,o),
(23,350,cs),
(23,127,o),
(171,-20,o),
(387,-20,cs)
);
},
{
closed = 1;
nodes = (
(280.251,124,o),
(216,210.847,o),
(216,352.961,cs),
(216,496.061,o),
(276.297,576,o),
(385.029,576,cs),
(495.738,576,o),
(559,491.127,o),
(559,346.052,cs),
(559,202.952,o),
(498.703,124,o),
(388.983,124,cs)
);
}
);
width = 775;
},
{
anchors = (
{
name = bottom;
pos = (388,-20);
},
{
name = ogonek;
pos = (512,-1);
},
{
name = top;
pos = (388,719);
},
{
name = topgr;
pos = (-14,500);
}
);
layerId = "48315E7A-EC54-430B-915E-ECFED2D8F863";
shapes = (
{
closed = 1;
nodes = (
(611,-20,o),
(747,144,o),
(747,350,cs),
(747,557,o),
(606,720,o),
(388,720,cs),
(170,720,o),
(28,560,o),
(28,350,cs),
(28,142,o),
(168,-20,o),
(387,-20,cs)
);
},
{
closed = 1;
nodes = (
(271.605,111,o),
(196,210,o),
(196,353,cs),
(196,498,o),
(265.636,589,o),
(385.013,589,cs),
(505.384,589,o),
(579,493,o),
(579,346,cs),
(579,204,o),
(507.374,111,o),
(388.992,111,cs)
);
}
);
width = 775;
},
{
anchors = (
{
name = bottom;
pos = (388,-20);
},
{
name = ogonek;
pos = (518,-1);
},
{
name = top;
pos = (388,719);
},
{
name = topgr;
pos = (-4,500);
}
);
layerId = "87250A93-E16C-45E7-81EC-EDE6CBCB21F2";
shapes = (
{
closed = 1;
nodes = (
(611,-20,o),
(742,124,o),
(742,350,cs,{
name = dv06;
}),
(742,567,o),
(606,720,o),
(388,720,cs,{
name = dv04;
}),
(170,720,o),
(33,570,o),
(33,350,cs),
(33,122,o),
(168,-20,o),
(387,-20,cs,{
name = dv01;
})
);
},
{
closed = 1;
nodes = (
(268.156,104,o),
(181,189.952,o),
(181,352.964,cs),
(181,510.048,o),
(262.213,596,o),
(385.024,596,cs,{
name = dv03;
}),
(508.825,596,o),
(594,504.12,o),
(594,346.048,cs,{
name = dv05;
}),
(594,183.036,o),
(510.806,104,o),
(388.986,104,cs,{
name = dv02;
})
);
}
);
width = 775;
},
{
anchors = (
{
name = bottom;
pos = (388,-20);
},
{
name = ogonek;
pos = (513,-1);
},
{
name = top;
pos = (388,719);
},
{
name = topgr;
pos = (2,500);
}
);
layerId = "C3B1342C-4554-42D4-BF1D-4BC45B7A32A8";
shapes = (
{
closed = 1;
nodes = (
(589,-20,o),
(732,107,o),
(732,350,cs,{
name = dv06;
}),
(732,575,o),
(602,720,o),
(388,720,cs,{
name = dv04;
}),
(182,720,o),
(43,586,o),
(43,350,cs),
(43,109,o),
(186,-20,o),
(387,-20,cs,{
name = dv01;
})
);
},
{
closed = 1;
nodes = (
(252.45,84,o),
(167,183.84,o),
(167,349.967,cs),
(167,518.071,o),
(245.575,616,o),
(383.08,616,cs,{
name = dv03;
}),
(524.514,616,o),
(608,520.126,o),
(608,350.045,cs,{
name = dv05;
}),
(608,184.907,o),
(527.461,84,o),
(390.938,84,cs,{
name = dv02;
})
);
}
);
width = 775;
},
{
anchors = (
{
name = bottom;
pos = (388,-20);
},
{
name = ogonek;
pos = (514,-1);
},
{
name = top;
pos = (388,719);
},
{
name = topgr;
pos = (6,500);
}
);
layerId = "966EEAD7-910A-41B6-BB10-BC7C26207015";
shapes = (
{
closed = 1;
nodes = (
(583,-20,o),
(722,107,o),
(722,350,cs,{
name = dv06;
}),
(722,575,o),
(596,720,o),
(388,720,cs,{
name = dv04;
}),
(188,720,o),
(53,586,o),
(53,350,cs),
(53,109,o),
(192,-20,o),
(387,-20,cs,{
name = dv01;
})
);
},
{
closed = 1;
nodes = (
(233.916,60,o),
(147,158.541,o),
(147,349.512,cs),
(147,531.827,o),
(233.916,640,o),
(384.043,640,cs,{
name = dv03;
}),
(546.023,640,o),
(628,543.671,o),
(628,350.003,cs,{
name = dv05;
}),
(628,170.384,o),
(539.109,60,o),
(389.969,60,cs,{
name = dv02;
})
);
}
);
width = 775;
},
{
anchors = (
{
name = bottom;
pos = (388,-20);
},
{
name = ogonek;
pos = (513,-1);
},
{
name = top;
pos = (388,719);
},
{
name = topgr;
pos = (6,500);
}
);
layerId = "15700EBA-52AC-4D6B-A2D3-7F45C26CE079";
shapes = (
{
closed = 1;
nodes = (
(577,-20,o),
(712,110,o),
(712,350,cs,{
name = dv06;
}),
(712,578,o),
(590,720,o),
(389,720,cs,{
name = dv04;
}),
(194,720,o),
(63,587,o),
(63,350,cs),
(63,110,o),
(198,-20,o),
(388,-20,cs,{
name = dv01;
})
);
},
{
closed = 1;
nodes = (
(221,35,o),
(124,146,o),
(124,350,cs),
(124,548,o),
(220,665,o),
(386,665,cs,{
name = dv03;
}),
(558,665,o),
(651,554,o),
(651,350,cs,{
name = dv05;
}),
(651,153,o),
(550,35,o),
(390,35,cs,{
name = dv02;
})
);
}
);
width = 775;
}
);
unicode = 79;
},
{
color = 6;
glyphname = Oslash;
kernLeft = C1;
kernRight = C;
lastChange = "2024-07-04 14:33:30 +0000";
layers = (
{
anchors = (
{
name = bottom;
pos = (398,-20);
},
{
name = ogonek;
pos = (522,-2);
},
{
name = top;
pos = (398,719);
}
);
layerId = "3DC573FB-EF22-4F14-BBA7-D097D7391B70";
shapes = (
{
closed = 1;
nodes = (
(614,-20,o),
(762,125,o),
(762,350,cs),
(762,568,o),
(618,720,o),
(398,720,cs),
(178,720,o),
(33,569,o),
(33,350,cs),
(33,127,o),
(181,-20,o),
(397,-20,cs)
);
},
{
closed = 1;
nodes = (
(210.209,-67,l),
(631.239,767.75,l),
(588.23,767.75,l),
(167.201,-67,l)
);
},
{
closed = 1;
nodes = (
(290.251,124,o),
(226,210.847,o),
(226,352.961,cs),
(226,496.061,o),
(286.297,576,o),
(395.029,576,cs),
(505.738,576,o),
(569,491.127,o),
(569,346.052,cs),
(569,202.952,o),
(508.703,124,o),
(398.983,124,cs)
);
}
);
width = 795;
},
{
anchors = (
{
name = bottom;
pos = (398,-20);
},
{
name = ogonek;
pos = (522,-1);
},
{
name = top;
pos = (398,719);
}
);
layerId = "48315E7A-EC54-430B-915E-ECFED2D8F863";
shapes = (
{
closed = 1;
nodes = (
(621,-20,o),
(757,144,o),
(757,350,cs),
(757,557,o),
(616,720,o),
(398,720,cs),
(180,720,o),
(38,560,o),
(38,350,cs),
(38,142,o),
(178,-20,o),
(397,-20,cs)
);
},
{
closed = 1;
nodes = (
(207.946,-67,l),
(628.975,767.75,l),
(590.494,767.75,l),
(169.464,-67,l)
);
},
{
closed = 1;
nodes = (
(281.605,111,o),
(206,210,o),
(206,353,cs),
(206,498,o),
(275.636,589,o),
(395.013,589,cs),
(515.384,589,o),
(589,493,o),
(589,346,cs),
(589,204,o),
(517.374,111,o),
(398.992,111,cs)
);
}
);
width = 795;
},
{
anchors = (
{
name = bottom;
pos = (398,-20);
},
{
name = ogonek;
pos = (528,-1);
},
{
name = top;
pos = (398,719);
}
);
layerId = "87250A93-E16C-45E7-81EC-EDE6CBCB21F2";
shapes = (
{
closed = 1;
nodes = (
(621,-20,o),
(752,124,o),
(752,350,cs,{
name = dv06;
}),
(752,567,o),
(616,720,o),
(398,720,cs,{
name = dv04;
}),
(180,720,o),
(43,570,o),
(43,350,cs),
(43,122,o),
(178,-20,o),
(397,-20,cs,{
name = dv01;
})
);
},
{
closed = 1;
nodes = (
(205.682,-67,l),
(626.712,767.75,l),
(592.758,767.75,l),
(171.728,-67,l)
);
},
{
closed = 1;
nodes = (
(278.156,104,o),
(191,189.952,o),
(191,352.964,cs),
(191,510.048,o),
(272.213,596,o),
(395.024,596,cs,{
name = dv03;
}),
(518.825,596,o),
(604,504.12,o),
(604,346.048,cs,{
name = dv05;
}),
(604,183.036,o),
(520.806,104,o),
(398.986,104,cs,{
name = dv02;
})
);
}
);
width = 795;
},
{
anchors = (
{
name = bottom;
pos = (398,-20);
},
{
name = ogonek;
pos = (523,-1);
},
{
name = top;
pos = (398,719);
}
);
layerId = "C3B1342C-4554-42D4-BF1D-4BC45B7A32A8";
shapes = (
{
closed = 1;
nodes = (
(599,-20,o),
(742,107,o),
(742,350,cs,{
name = dv06;
}),
(742,575,o),
(612,720,o),
(398,720,cs,{
name = dv04;
}),
(192,720,o),
(53,586,o),
(53,350,cs),
(53,109,o),
(196,-20,o),
(397,-20,cs,{
name = dv01;
})
);
},
{
closed = 1;
nodes = (
(201.155,-67,l),
(622.184,767.75,l),
(592.758,767.75,l),
(171.728,-67,l)
);
},
{
closed = 1;
nodes = (
(262.45,84,o),
(177,183.84,o),
(177,349.967,cs),
(177,518.071,o),
(255.575,616,o),
(393.08,616,cs,{
name = dv03;
}),
(534.514,616,o),
(618,520.126,o),
(618,350.045,cs,{
name = dv05;
}),
(618,184.907,o),
(537.461,84,o),
(400.938,84,cs,{
name = dv02;
})
);
}
);
width = 795;
},
{
anchors = (
{
name = bottom;
pos = (398,-20);
},
{
name = ogonek;
pos = (524,-1);
},
{
name = top;
pos = (398,719);
}
);
layerId = "966EEAD7-910A-41B6-BB10-BC7C26207015";
shapes = (
{
closed = 1;
nodes = (
(593,-20,o),
(732,107,o),
(732,350,cs,{
name = dv06;
}),
(732,575,o),
(606,720,o),
(398,720,cs,{
name = dv04;
}),
(198,720,o),
(63,586,o),
(63,350,cs),
(63,109,o),
(202,-20,o),
(397,-20,cs,{
name = dv01;
})
);
},
{
closed = 1;
nodes = (
(201.155,-67,l),
(622.184,767.75,l),
(592.758,767.75,l),
(171.728,-67,l)
);
},
{
closed = 1;
nodes = (
(243.916,60,o),
(157,158.541,o),
(157,349.512,cs),
(157,531.827,o),
(243.916,640,o),
(394.043,640,cs,{
name = dv03;
}),
(556.023,640,o),
(638,543.671,o),
(638,350.003,cs,{
name = dv05;
}),
(638,170.384,o),
(549.109,60,o),
(399.969,60,cs,{
name = dv02;
})
);
}
);
width = 795;
},
{
anchors = (
{
name = bottom;
pos = (398,-20);
},
{
name = ogonek;
pos = (523,-1);
},
{
name = top;
pos = (398,719);
}
);
layerId = "15700EBA-52AC-4D6B-A2D3-7F45C26CE079";
shapes = (
{
closed = 1;
nodes = (
(587,-20,o),
(722,110,o),
(722,350,cs,{
name = dv06;
}),
(722,578,o),
(600,720,o),
(399,720,cs,{
name = dv04;
}),
(204,720,o),
(73,587,o),
(73,350,cs),
(73,110,o),
(208,-20,o),
(398,-20,cs,{
name = dv01;
})
);
},
{
closed = 1;
nodes = (
(201.155,-67,l),
(622.184,767.75,l),
(592.758,767.75,l),
(171.728,-67,l)
);
},
{
closed = 1;
nodes = (
(231,35,o),
(134,146,o),
(134,350,cs),
(134,548,o),
(230,665,o),
(396,665,cs,{
name = dv03;
}),
(568,665,o),
(661,554,o),
(661,350,cs,{
name = dv05;
}),
(661,153,o),
(560,35,o),
(400,35,cs,{
name = dv02;
})
);
}
);
width = 795;
}
);
unicode = 216;
},
{
color = 6;
glyphname = OE;
kernLeft = C1;
kernRight = E;
lastChange = "2024-07-04 14:33:30 +0000";
layers = (
{
anchors = (
{
name = bottom;
pos = (484,-20);
},
{
name = top;
pos = (484,719);
}
);
layerId = "3DC573FB-EF22-4F14-BBA7-D097D7391B70";
shapes = (
{
closed = 1;
nodes = (
(670,0,l),
(670,700,l),
(390.557,700,ls),
(178.226,700,o),
(33,558,o),
(33,350,cs),
(33,141,o),
(177.225,0,o),
(390.557,0,cs)
);
},
{
closed = 1;
nodes = (
(296.727,140,o),
(226,224,o),
(226,359,cs),
(226,489,o),
(291.746,560,o),
(411.285,560,cs),
(485,560,l),
(485,140,l),
(411.285,140,ls)
);
},
{
closed = 1;
nodes = (
(923,0,l),
(923,140,l),
(676,140,l),
(676,297,l),
(883,297,l),
(883,437,l),
(676,437,l),
(676,560,l),
(908,560,l),
(908,700,l),
(491,700,l),
(491,0,l)
);
}
);
width = 968;
},
{
anchors = (
{
name = bottom;
pos = (484,-20);
},
{
name = top;
pos = (484,719);
}
);
layerId = "48315E7A-EC54-430B-915E-ECFED2D8F863";
shapes = (
{
closed = 1;
nodes = (
(646.17,0,l),
(646.17,700,l),
(392,700,ls),
(182,700,o),
(38,558,o),
(38,350,cs),
(38,141,o),
(181,0,o),
(392,0,cs)
);
},
{
closed = 1;
nodes = (
(291,130,o),
(206,218,o),
(206,352,cs),
(206,481,o),
(285,570,o),
(413,570,cs),
(485.17,570,l),
(485.17,130,l),
(413,130,ls)
);
},
{
closed = 1;
nodes = (
(922.17,0,l),
(922.17,130,l),
(651.17,130,l),
(651.17,300,l),
(882.17,300,l),
(882.17,430,l),
(651.17,430,l),
(651.17,570,l),
(907.17,570,l),
(907.17,700,l),
(491.17,700,l),
(491.17,0,l)
);
}
);
width = 968;
},
{
anchors = (
{
name = bottom;
pos = (484,-20);
},
{
name = top;
pos = (484,719);
}
);
layerId = "87250A93-E16C-45E7-81EC-EDE6CBCB21F2";
shapes = (
{
closed = 1;
nodes = (
(624.334,0,l,{
name = ab01;
}),
(624.334,700,l),
(400,700,ls,{
name = at01;
}),
(188,700,o),
(43,558,o),
(43,350,cs),
(43,141,o),
(187,0,o),
(400,0,cs)
);
},
{
closed = 1;
nodes = (
(283.726,120,o),
(191,209,o),
(191,349,cs),
(191,484,o),
(277.743,580,o),
(414.339,580,cs),
(484.334,580,l,{
name = sv02;
}),
(484.334,120,l,{
name = sv01;
}),
(414.339,120,ls)
);
},
{
closed = 1;
nodes = (
(922.334,0,l,{
name = ab01;
}),
(922.334,120,l,{
name = sv01;
}),
(631.334,120,l),
(631.334,305,l,{
name = dv01;
}),
(882.334,305,l),
(882.334,425,l),
(631.334,425,l,{
name = dv02;
}),
(631.334,580,l,{
name = sv02;
}),
(907.334,580,l),
(907.334,700,l,{
name = at01;
}),
(490.334,700,l),
(490.334,0,l)
);
}
);
width = 968;
},
{
anchors = (
{
name = bottom;
pos = (484,-20);
},
{
name = top;
pos = (484,719);
}
);
layerId = "C3B1342C-4554-42D4-BF1D-4BC45B7A32A8";
shapes = (
{
closed = 1;
nodes = (
(600.13,0,l,{
name = ab01;
}),
(600.13,700,l),
(401,700,ls,{
name = at01;
}),
(195,700,o),
(53,558,o),
(53,350,cs),
(53,141,o),
(194,0,o),
(401,0,cs)
);
},
{
closed = 1;
nodes = (
(277.912,100,o),
(177,197,o),
(177,349,cs),
(177,499,o),
(274.944,600,o),
(421.365,600,cs),
(490.13,600,l,{
name = sv02;
}),
(490.13,100,l,{
name = sv01;
}),
(421.365,100,ls)
);
},
{
closed = 1;
nodes = (
(912.13,0,l,{
name = ab01;
}),
(912.13,100,l,{
name = sv01;
}),
(611.13,100,l),
(611.13,315,l,{
name = dv01;
}),
(872.13,315,l),
(872.13,415,l),
(611.13,415,l,{
name = dv02;
}),
(611.13,600,l,{
name = sv02;
}),
(897.13,600,l),
(897.13,700,l,{
name = at01;
}),
(501.13,700,l),
(501.13,0,l)
);
}
);
width = 968;
},
{
anchors = (
{
name = bottom;
pos = (484,-20);
},
{
name = top;
pos = (484,719);
}
);
layerId = "966EEAD7-910A-41B6-BB10-BC7C26207015";
shapes = (
{
closed = 1;
nodes = (
(580.315,0,l,{
name = ab01;
}),
(580.315,700,l),
(399,700,ls,{
name = at01;
}),
(200,700,o),
(63,557,o),
(63,350,cs),
(63,142,o),
(199,0,o),
(399,0,cs)
);
},
{
closed = 1;
nodes = (
(251.084,80,o),
(157,181,o),
(157,349,cs),
(157,518,o),
(251.084,620,o),
(407.561,620,cs),
(500.316,620,l,{
name = sv02;
}),
(500.316,80,l,{
name = sv01;
}),
(407.561,80,ls)
);
},
{
closed = 1;
nodes = (
(902.315,0,l,{
name = ab01;
}),
(902.315,80,l,{
name = sv01;
}),
(591.315,80,l),
(591.315,325,l,{
name = dv01;
}),
(862.315,325,l),
(862.315,405,l),
(591.315,405,l,{
name = dv02;
}),
(591.315,620,l,{
name = sv02;
}),
(888.315,620,l),
(888.315,700,l,{
name = at01;
}),
(511.315,700,l),
(511.315,0,l)
);
}
);
width = 968;
},
{
anchors = (
{
name = bottom;
pos = (484,-20);
},
{
name = top;
pos = (484,719);
}
);
layerId = "15700EBA-52AC-4D6B-A2D3-7F45C26CE079";
shapes = (
{
closed = 1;
nodes = (
(565.418,0,l,{
name = ab01;
}),
(565.418,700,l),
(397,700,ls,{
name = at01;
}),
(206,700,o),
(73,557,o),
(73,350,cs),
(73,142,o),
(205,0,o),
(397,0,cs)
);
},
{
closed = 1;
nodes = (
(239,54,o),
(134,165,o),
(134,346,cs),
(134,534,o),
(239,646,o),
(410,646,cs),
(510.418,646,l,{
name = sv02;
}),
(510.418,54,l,{
name = sv01;
}),
(410,54,ls)
);
},
{
closed = 1;
nodes = (
(892.418,0,l,{
name = ab01;
}),
(892.418,54,l,{
name = sv01;
}),
(571.418,54,l),
(571.418,338,l,{
name = dv01;
}),
(852.418,338,l),
(852.418,392,l),
(571.418,392,l,{
name = dv02;
}),
(571.418,646,l,{
name = sv02;
}),
(880.418,646,l),
(880.418,700,l,{
name = at01;
}),
(516.418,700,l),
(516.418,0,l)
);
}
);
width = 968;
}
);
unicode = 338;
},
{
color = 6;
glyphname = P;
kernLeft = B;
kernRight = P;
lastChange = "2024-07-04 14:33:30 +0000";
layers = (
{
anchors = (
{
name = bottom;
pos = (322,-20);
},
{
name = top;
pos = (322,719);
}
);
associatedMasterId = "15700EBA-52AC-4D6B-A2D3-7F45C26CE079";
layerId = "526B3205-964B-43ED-A08E-E7641FE0513C";
name = "#instance";
shapes = (
{
closed = 1;
nodes = (
(98,0,l),
(158,0,l,{
name = ab01;
}),
(158,249,l,{
name = dv01;
}),
(305,249,ls),
(483,249,o),
(575,338,o),
(575,483,cs),
(575,612,o),
(502,700,o),
(304,700,cs,{
name = at01;
}),
(98,700,l)
);
},
{
closed = 1;
nodes = (
(158,303,l,{
name = dv02;
}),
(158,646,l,{
name = sv01;
}),
(305,646,ls),
(453,646,o),
(514,597,o),
(514,482,cs),
(514,362,o),
(447,303,o),
(304,303,cs)
);
}
);
width = 628;
},
{
anchors = (
{
name = bottom;
pos = (322,-20);
},
{
name = top;
pos = (322,719);
}
);
layerId = "3DC573FB-EF22-4F14-BBA7-D097D7391B70";
shapes = (
{
closed = 1;
nodes = (
(248,0,l),
(248,216,l),
(334,216,ls),
(524,216,o),
(605,334,o),
(605,460,cs),
(605,585,o),
(524,700,o),
(334,700,cs),
(58,700,l),
(58,0,l)
);
},
{
closed = 1;
nodes = (
(248,560,l),
(299,560,ls),
(357,560,o),
(414,543.842,o),
(414,458,cs),
(414,372.158,o),
(358,356,o),
(299,356,cs),
(248,356,l)
);
}
);
width = 628;
},
{
anchors = (
{
name = bottom;
pos = (322,-20);
},
{
name = top;
pos = (322,719);
}
);
layerId = "48315E7A-EC54-430B-915E-ECFED2D8F863";
shapes = (
{
closed = 1;
nodes = (
(234,0,l),
(234,216,l),
(334,216,ls),
(524,216,o),
(605,334,o),
(605,460,cs),
(605,585,o),
(524,700,o),
(334,700,cs),
(68,700,l),
(68,0,l)
);
},
{
closed = 1;
nodes = (
(234,570,l),
(299,570,ls),
(381,570,o),
(438,537,o),
(438,458,cs),
(438,380,o),
(382,347,o),
(299,347,cs),
(234,347,l)
);
}
);
width = 628;
},
{
anchors = (
{
name = bottom;
pos = (322,-20);
},
{
name = top;
pos = (322,719);
}
);
layerId = "87250A93-E16C-45E7-81EC-EDE6CBCB21F2";
shapes = (
{
closed = 1;
nodes = (
(214,0,l,{
name = ab01;
}),
(214,216,l,{
name = dv01;
}),
(334,216,ls),
(499,216,o),
(605,311,o),
(605,459,cs),
(605,606,o),
(500,700,o),
(334,700,cs,{
name = at01;
}),
(68,700,l),
(68,0,l)
);
},
{
closed = 1;
nodes = (
(214,580,l,{
name = sv01;
}),
(299,580,ls),
(410,580,o),
(459,543,o),
(459,457,cs),
(459,372,o),
(411,336,o),
(299,336,cs),
(214,336,l,{
name = dv02;
})
);
}
);
width = 628;
},
{
anchors = (
{
name = bottom;
pos = (322,-20);
},
{
name = top;
pos = (322,719);
}
);
layerId = "C3B1342C-4554-42D4-BF1D-4BC45B7A32A8";
shapes = (
{
closed = 1;
nodes = (
(198,0,l,{
name = ab01;
}),
(198,226,l,{
name = dv01;
}),
(320,226,ls),
(488,226,o),
(595,319,o),
(595,466,cs),
(595,608,o),
(494,700,o),
(334,700,cs,{
name = at01;
}),
(78,700,l),
(78,0,l)
);
},
{
closed = 1;
nodes = (
(198,600,l,{
name = sv01;
}),
(293,600,ls),
(419,600,o),
(475,557.846,o),
(475,467.516,cs),
(475,373.172,o),
(413,326,o),
(293,326,cs),
(198,326,l,{
name = dv02;
})
);
}
);
width = 628;
},
{
anchors = (
{
name = bottom;
pos = (322,-20);
},
{
name = top;
pos = (322,719);
}
);
layerId = "966EEAD7-910A-41B6-BB10-BC7C26207015";
shapes = (
{
closed = 1;
nodes = (
(178,0,l,{
name = ab01;
}),
(178,237,l,{
name = dv01;
}),
(310,237,ls),
(483,237,o),
(585,328,o),
(585,472,cs),
(585,612,o),
(488,700,o),
(314,700,cs,{
name = at01;
}),
(88,700,l),
(88,0,l)
);
},
{
closed = 1;
nodes = (
(178,620,l,{
name = sv01;
}),
(311,620,ls),
(439,620,o),
(495,576,o),
(495,474,cs),
(495,368,o),
(435,317,o),
(308,317,cs),
(178,317,l,{
name = dv02;
})
);
}
);
width = 628;
},
{
anchors = (
{
name = bottom;
pos = (322,-20);
},
{
name = top;
pos = (322,719);
}
);
layerId = "15700EBA-52AC-4D6B-A2D3-7F45C26CE079";
shapes = (
{
closed = 1;
nodes = (
(158,0,l,{
name = ab01;
}),
(158,249,l,{
name = dv01;
}),
(305,249,ls),
(483,249,o),
(575,338,o),
(575,483,cs),
(575,612,o),
(502,700,o),
(304,700,cs,{
name = at01;
}),
(98,700,l),
(98,0,l)
);
},
{
closed = 1;
nodes = (
(158,646,l,{
name = sv01;
}),
(305,646,ls),
(453,646,o),
(514,597,o),
(514,482,cs),
(514,362,o),
(447,303,o),
(304,303,cs),
(158,303,l,{
name = dv02;
})
);
}
);
width = 628;
}
);
unicode = 80;
},
{
color = 6;
glyphname = Thorn;
kernLeft = B;
kernRight = P;
lastChange = "2024-07-04 14:20:28 +0000";
layers = (
{
layerId = "3DC573FB-EF22-4F14-BBA7-D097D7391B70";
shapes = (
{
closed = 1;
nodes = (
(306,137,ls),
(469,137,o),
(578,207,o),
(578,362,cs),
(578,516,o),
(471,584,o),
(306,584,cs),
(128,584,l),
(128,444,l),
(252,444,ls),
(353,444,o),
(387,423,o),
(387,365,cs),
(387,302,o),
(347,277,o),
(252,277,cs),
(140,277,l),
(140,137,l)
);
},
{
closed = 1;
nodes = (
(258,0,l),
(258,700,l),
(68,700,l),
(68,0,l)
);
}
);
width = 617;
},
{
layerId = "48315E7A-EC54-430B-915E-ECFED2D8F863";
shapes = (
{
closed = 1;
nodes = (
(306,147,ls),
(472,147,o),
(578,211,o),
(578,363,cs),
(578,513,o),
(474,574,o),
(306,574,cs),
(128,574,l),
(128,444,l),
(276,444,ls),
(384,444,o),
(411,413,o),
(411,365,cs),
(411,316,o),
(384,277,o),
(276,277,cs),
(140,277,l),
(140,147,l)
);
},
{
closed = 1;
nodes = (
(234,0,l),
(234,700,l),
(68,700,l),
(68,0,l)
);
}
);
width = 617;
},
{
layerId = "87250A93-E16C-45E7-81EC-EDE6CBCB21F2";
shapes = (
{
closed = 1;
nodes = (
(307,153,ls),
(475,153,o),
(578,213,o),
(578,363,cs),
(578,511,o),
(477,568,o),
(307,568,cs),
(128,568,l),
(128,448,l),
(277,448,ls),
(392,448,o),
(432,425,o),
(432,364,cs),
(432,299,o),
(387,273,o),
(277,273,cs),
(140,273,l),
(140,153,l)
);
},
{
closed = 1;
nodes = (
(214,0,l),
(214,700,l),
(68,700,l),
(68,0,l)
);
}
);
width = 617;
},
{
layerId = "C3B1342C-4554-42D4-BF1D-4BC45B7A32A8";
shapes = (
{
closed = 1;
nodes = (
(303,163,ls),
(467,163,o),
(568,219,o),
(568,363,cs),
(568,505,o),
(469,558,o),
(303,558,cs),
(128,558,l),
(128,458,l),
(285,458,ls),
(407,458,o),
(448,434,o),
(448,365,cs),
(448,291,o),
(401,263,o),
(285,263,cs),
(140,263,l),
(140,163,l)
);
},
{
closed = 1;
nodes = (
(198,0,l),
(198,700,l),
(78,700,l),
(78,0,l)
);
}
);
width = 617;
},
{
layerId = "966EEAD7-910A-41B6-BB10-BC7C26207015";
shapes = (
{
closed = 1;
nodes = (
(315,173,ls),
(475,173,o),
(558,227,o),
(558,363,cs),
(558,497,o),
(477,548,o),
(315,548,cs),
(128,548,l),
(128,468,l),
(305,468,ls),
(427,468,o),
(468,442,o),
(468,365,cs),
(468,283,o),
(421,253,o),
(305,253,cs),
(140,253,l),
(140,173,l)
);
},
{
closed = 1;
nodes = (
(178,0,l),
(178,700,l),
(88,700,l),
(88,0,l)
);
}
);
width = 617;
},
{
layerId = "15700EBA-52AC-4D6B-A2D3-7F45C26CE079";
shapes = (
{
closed = 1;
nodes = (
(305,183,ls),
(477,183,o),
(548,236,o),
(548,363,cs),
(548,497,o),
(467,538,o),
(305,538,cs),
(128,538,l),
(128,484,l),
(305,484,ls),
(444,484,o),
(488,454,o),
(488,364,cs),
(488,275,o),
(449,237,o),
(305,237,cs),
(140,237,l),
(140,183,l)
);
},
{
closed = 1;
nodes = (
(158,0,l),
(158,700,l,{
name = av02;
}),
(98,700,l),
(98,0,l,{
name = av01;
})
);
}
);
width = 617;
}
);
unicode = 222;
},
{
color = 6;
glyphname = Q;
kernLeft = C1;
kernRight = C;
lastChange = "2024-07-04 14:33:30 +0000";
layers = (
{
anchors = (
{
name = bottom;
pos = (388,-20);
},
{
name = ogonek;
pos = (513,-1);
},
{
name = top;
pos = (388,719);
}
);
associatedMasterId = "15700EBA-52AC-4D6B-A2D3-7F45C26CE079";
layerId = "526B3205-964B-43ED-A08E-E7641FE0513C";
name = "#instance";
shapes = (
{
closed = 1;
nodes = (
(221,35,o),
(124,146,o),
(124,350,cs),
(124,548,o),
(220,665,o),
(386,665,cs,{
name = dv03;
}),
(558,665,o),
(651,554,o),
(651,350,cs,{
name = dv05;
}),
(651,153,o),
(550,35,o),
(390,35,cs,{
name = dv02;
})
);
},
{
closed = 1;
nodes = (
(577,-20,o),
(712,110,o),
(712,350,cs,{
name = dv06;
}),
(712,578,o),
(590,720,o),
(389,720,cs,{
name = dv04;
}),
(194,720,o),
(63,587,o),
(63,350,cs),
(63,110,o),
(198,-20,o),
(388,-20,cs,{
name = dv01;
})
);
},
{
closed = 1;
nodes = (
(370,-3,l,{
name = ab02;
}),
(370,-154,o),
(423,-184,o),
(634,-184,c),
(634,-129,l),
(456,-129,o),
(430,-118,o),
(430,-3,c,{
name = ab01;
})
);
}
);
width = 775;
},
{
anchors = (
{
name = bottom;
pos = (388,-20);
},
{
name = ogonek;
pos = (512,-2);
},
{
name = top;
pos = (388,719);
}
);
layerId = "3DC573FB-EF22-4F14-BBA7-D097D7391B70";
shapes = (
{
closed = 1;
nodes = (
(604,-20,o),
(752,125,o),
(752,350,cs),
(752,568,o),
(608,720,o),
(388,720,cs),
(168,720,o),
(23,569,o),
(23,350,cs),
(23,127,o),
(171,-20,o),
(387,-20,cs)
);
},
{
closed = 1;
nodes = (
(634,-90,l),
(513,-90,o),
(483,-87,o),
(483,-3,c),
(323,-3,l),
(323,-194,o),
(386,-230,o),
(634,-230,c)
);
},
{
closed = 1;
nodes = (
(280.251,124,o),
(216,210.847,o),
(216,352.961,cs),
(216,496.061,o),
(276.297,576,o),
(385.029,576,cs),
(495.738,576,o),
(559,491.127,o),
(559,346.052,cs),
(559,202.952,o),
(498.703,124,o),
(388.983,124,cs)
);
}
);
width = 775;
},
{
anchors = (
{
name = bottom;
pos = (388,-20);
},
{
name = ogonek;
pos = (512,-1);
},
{
name = top;
pos = (388,719);
}
);
layerId = "48315E7A-EC54-430B-915E-ECFED2D8F863";
shapes = (
{
closed = 1;
nodes = (
(611,-20,o),
(747,144,o),
(747,350,cs),
(747,557,o),
(606,720,o),
(388,720,cs),
(170,720,o),
(28,560,o),
(28,350,cs),
(28,142,o),
(168,-20,o),
(387,-20,cs)
);
},
{
closed = 1;
nodes = (
(634,-91,l),
(493,-91,o),
(483,-84,o),
(483,-3,c),
(330,-3,l),
(330,-197,o),
(393,-221,o),
(634,-221,c)
);
},
{
closed = 1;
nodes = (
(271.605,111,o),
(196,210,o),
(196,353,cs),
(196,498,o),
(265.636,589,o),
(385.013,589,cs),
(505.384,589,o),
(579,493,o),
(579,346,cs),
(579,204,o),
(507.374,111,o),
(388.992,111,cs)
);
}
);
width = 775;
},
{
anchors = (
{
name = bottom;
pos = (388,-20);
},
{
name = ogonek;
pos = (518,-1);
},
{
name = top;
pos = (388,719);
}
);
layerId = "87250A93-E16C-45E7-81EC-EDE6CBCB21F2";
shapes = (
{
closed = 1;
nodes = (
(611,-20,o),
(742,124,o),
(742,350,cs,{
name = dv06;
}),
(742,567,o),
(606,720,o),
(388,720,cs,{
name = dv04;
}),
(170,720,o),
(33,570,o),
(33,350,cs),
(33,122,o),
(168,-20,o),
(387,-20,cs,{
name = dv01;
})
);
},
{
closed = 1;
nodes = (
(634,-102,l),
(492,-102,o),
(463,-90.81,o),
(463,-3,c,{
name = ab01;
}),
(340,-3,l,{
name = ab02;
}),
(340,-182,o),
(392,-222,o),
(634,-222,c)
);
},
{
closed = 1;
nodes = (
(268.156,104,o),
(181,189.952,o),
(181,352.964,cs),
(181,510.048,o),
(262.213,596,o),
(385.024,596,cs,{
name = dv03;
}),
(508.825,596,o),
(594,504.12,o),
(594,346.048,cs,{
name = dv05;
}),
(594,183.036,o),
(510.806,104,o),
(388.986,104,cs,{
name = dv02;
})
);
}
);
width = 775;
},
{
anchors = (
{
name = bottom;
pos = (388,-20);
},
{
name = ogonek;
pos = (513,-1);
},
{
name = top;
pos = (388,719);
}
);
layerId = "C3B1342C-4554-42D4-BF1D-4BC45B7A32A8";
shapes = (
{
closed = 1;
nodes = (
(589,-20,o),
(732,107,o),
(732,350,cs,{
name = dv06;
}),
(732,575,o),
(602,720,o),
(388,720,cs,{
name = dv04;
}),
(182,720,o),
(43,586,o),
(43,350,cs),
(43,109,o),
(186,-20,o),
(387,-20,cs,{
name = dv01;
})
);
},
{
closed = 1;
nodes = (
(634,-111,l),
(484,-111,o),
(453,-117,o),
(453,-3,c,{
name = ab01;
}),
(350,-3,l,{
name = ab02;
}),
(350,-180,o),
(402,-204,o),
(634,-204,c)
);
},
{
closed = 1;
nodes = (
(252.45,84,o),
(167,183.84,o),
(167,349.967,cs),
(167,518.071,o),
(245.575,616,o),
(383.08,616,cs,{
name = dv03;
}),
(524.514,616,o),
(608,520.126,o),
(608,350.045,cs,{
name = dv05;
}),
(608,184.907,o),
(527.461,84,o),
(390.938,84,cs,{
name = dv02;
})
);
}
);
width = 775;
},
{
anchors = (
{
name = bottom;
pos = (388,-20);
},
{
name = ogonek;
pos = (514,-1);
},
{
name = top;
pos = (388,719);
}
);
layerId = "966EEAD7-910A-41B6-BB10-BC7C26207015";
shapes = (
{
closed = 1;
nodes = (
(583,-20,o),
(722,107,o),
(722,350,cs,{
name = dv06;
}),
(722,575,o),
(596,720,o),
(388,720,cs,{
name = dv04;
}),
(188,720,o),
(53,586,o),
(53,350,cs),
(53,109,o),
(192,-20,o),
(387,-20,cs,{
name = dv01;
})
);
},
{
closed = 1;
nodes = (
(634,-121,l),
(468,-121,o),
(443,-111,o),
(443,-3,c,{
name = ab01;
}),
(360,-3,l,{
name = ab02;
}),
(360,-166,o),
(412,-194,o),
(634,-194,c)
);
},
{
closed = 1;
nodes = (
(233.916,60,o),
(147,158.541,o),
(147,349.512,cs),
(147,531.827,o),
(233.916,640,o),
(384.043,640,cs,{
name = dv03;
}),
(546.023,640,o),
(628,543.671,o),
(628,350.003,cs,{
name = dv05;
}),
(628,170.384,o),
(539.109,60,o),
(389.969,60,cs,{
name = dv02;
})
);
}
);
width = 775;
},
{
anchors = (
{
name = bottom;
pos = (388,-20);
},
{
name = ogonek;
pos = (513,-1);
},
{
name = top;
pos = (388,719);
}
);
layerId = "15700EBA-52AC-4D6B-A2D3-7F45C26CE079";
shapes = (
{
closed = 1;
nodes = (
(577,-20,o),
(712,110,o),
(712,350,cs,{
name = dv06;
}),
(712,578,o),
(590,720,o),
(389,720,cs,{
name = dv04;
}),
(194,720,o),
(63,587,o),
(63,350,cs),
(63,110,o),
(198,-20,o),
(388,-20,cs,{
name = dv01;
})
);
},
{
closed = 1;
nodes = (
(634,-129,l),
(456,-129,o),
(430,-118,o),
(430,-3,c,{
name = ab01;
}),
(370,-3,l,{
name = ab02;
}),
(370,-154,o),
(423,-184,o),
(634,-184,c)
);
},
{
closed = 1;
nodes = (
(221,35,o),
(124,146,o),
(124,350,cs),
(124,548,o),
(220,665,o),
(386,665,cs,{
name = dv03;
}),
(558,665,o),
(651,554,o),
(651,350,cs,{
name = dv05;
}),
(651,153,o),
(550,35,o),
(390,35,cs,{
name = dv02;
})
);
}
);
width = 775;
}
);
unicode = 81;
},
{
color = 6;
glyphname = R;
kernLeft = B;
kernRight = R;
lastChange = "2024-07-04 14:20:28 +0000";
layers = (
{
anchors = (
{
name = bottom;
pos = (324,-20);
},
{
name = top;
pos = (324,719);
}
);
associatedMasterId = "15700EBA-52AC-4D6B-A2D3-7F45C26CE079";
layerId = "526B3205-964B-43ED-A08E-E7641FE0513C";
name = "#instance";
shapes = (
{
closed = 1;
nodes = (
(98,0,l),
(158,0,l,{
name = ab01;
}),
(158,646,l,{
name = sv01;
}),
(344,646,ls),
(464,646,o),
(518,583,o),
(518,482,cs),
(518,381,o),
(465,328,o),
(348,328,cs),
(110,328,l,{
name = dv02;
}),
(110,274,l,{
name = dv01;
}),
(344,274,ls),
(489,274,o),
(579,348,o),
(579,484,cs),
(579,619,o),
(492,700,o),
(348,700,cs,{
name = at01;
}),
(98,700,l)
);
},
{
closed = 1;
nodes = (
(529,0,l,{
name = ab02;
}),
(597,0,l),
(427,333,l),
(386,281,l)
);
}
);
width = 648;
},
{
anchors = (
{
name = bottom;
pos = (324,-20);
},
{
name = top;
pos = (324,719);
}
);
layerId = "3DC573FB-EF22-4F14-BBA7-D097D7391B70";
shapes = (
{
closed = 1;
nodes = (
(248,0,l),
(248,560,l),
(309,560,ls),
(393,560,o),
(418,534,o),
(418,472,cs),
(418,410,o),
(393,384,o),
(309,384,cs),
(100,384,l),
(100,244,l),
(348,244,ls),
(507,244,o),
(609,334,o),
(609,476,cs),
(609,615,o),
(511,700,o),
(348,700,cs),
(58,700,l),
(58,0,l)
);
},
{
closed = 1;
nodes = (
(627,0,l),
(457,333,l),
(280,281,l),
(423,0,l)
);
}
);
width = 648;
},
{
anchors = (
{
name = bottom;
pos = (324,-20);
},
{
name = top;
pos = (324,719);
}
);
layerId = "48315E7A-EC54-430B-915E-ECFED2D8F863";
shapes = (
{
closed = 1;
nodes = (
(224,0,l),
(224,570,l),
(314,570,ls),
(410,570,o),
(442,537,o),
(442,472,cs),
(442,407,o),
(410,374,o),
(314,374,cs),
(100,374,l),
(100,244,l),
(348,244,ls),
(507,244,o),
(609,334,o),
(609,476,cs),
(609,615,o),
(511,700,o),
(348,700,cs),
(58,700,l),
(58,0,l)
);
},
{
closed = 1;
nodes = (
(627,0,l),
(457,333,l),
(306,281,l),
(449,0,l)
);
}
);
width = 648;
},
{
anchors = (
{
name = bottom;
pos = (324,-20);
},
{
name = top;
pos = (324,719);
}
);
layerId = "87250A93-E16C-45E7-81EC-EDE6CBCB21F2";
shapes = (
{
closed = 1;
nodes = (
(214,0,l,{
name = ab01;
}),
(214,580,l,{
name = sv01;
}),
(298,580,ls),
(415,580,o),
(463,548,o),
(463,472,cs),
(463,396,o),
(415,364,o),
(298,364,cs),
(100,364,l,{
name = dv02;
}),
(100,244,l,{
name = dv01;
}),
(348,244,ls),
(507,244,o),
(609,334,o),
(609,476,cs),
(609,615,o),
(511,700,o),
(348,700,cs,{
name = at01;
}),
(68,700,l),
(68,0,l)
);
},
{
closed = 1;
nodes = (
(627,0,l),
(457,333,l),
(326,281,l),
(469,0,l,{
name = ab02;
})
);
}
);
width = 648;
},
{
anchors = (
{
name = bottom;
pos = (324,-20);
},
{
name = top;
pos = (324,719);
}
);
layerId = "C3B1342C-4554-42D4-BF1D-4BC45B7A32A8";
shapes = (
{
closed = 1;
nodes = (
(198,0,l,{
name = ab01;
}),
(198,600,l,{
name = sv01;
}),
(308,600,ls),
(441,600,o),
(479,565,o),
(479,478,cs),
(479,389,o),
(439,354,o),
(306,354,cs),
(100,354,l,{
name = dv02;
}),
(100,254,l,{
name = dv01;
}),
(349,254,ls),
(505,254,o),
(599,342,o),
(599,479,cs),
(599,617,o),
(504,700,o),
(348,700,cs,{
name = at01;
}),
(78,700,l),
(78,0,l)
);
},
{
closed = 1;
nodes = (
(617,0,l),
(447,333,l),
(339,281,l),
(482,0,l,{
name = ab02;
})
);
}
);
width = 648;
},
{
anchors = (
{
name = bottom;
pos = (324,-20);
},
{
name = top;
pos = (324,719);
}
);
layerId = "966EEAD7-910A-41B6-BB10-BC7C26207015";
shapes = (
{
closed = 1;
nodes = (
(178,0,l,{
name = ab01;
}),
(178,620,l,{
name = sv01;
}),
(340,620,ls),
(456,620,o),
(499,583,o),
(499,482,cs),
(499,381,o),
(456,344,o),
(339,344,cs),
(100,344,l,{
name = dv02;
}),
(100,264,l,{
name = dv01;
}),
(344,264,ls),
(495,264,o),
(589,348,o),
(589,484,cs),
(589,619,o),
(498,700,o),
(348,700,cs,{
name = at01;
}),
(88,700,l),
(88,0,l)
);
},
{
closed = 1;
nodes = (
(607,0,l),
(437,333,l),
(363,281,l),
(506,0,l,{
name = ab02;
})
);
}
);
width = 648;
},
{
anchors = (
{
name = bottom;
pos = (324,-20);
},
{
name = top;
pos = (324,719);
}
);
layerId = "15700EBA-52AC-4D6B-A2D3-7F45C26CE079";
shapes = (
{
closed = 1;
nodes = (
(158,0,l,{
name = ab01;
}),
(158,646,l,{
name = sv01;
}),
(344,646,ls),
(464,646,o),
(518,583,o),
(518,482,cs),
(518,381,o),
(465,328,o),
(348,328,cs),
(110,328,l,{
name = dv02;
}),
(110,274,l,{
name = dv01;
}),
(344,274,ls),
(489,274,o),
(579,348,o),
(579,484,cs),
(579,619,o),
(492,700,o),
(348,700,cs,{
name = at01;
}),
(98,700,l),
(98,0,l)
);
},
{
closed = 1;
nodes = (
(597,0,l),
(427,333,l),
(386,281,l),
(529,0,l,{
name = ab02;
})
);
}
);
width = 648;
}
);
unicode = 82;
},
{
color = 6;
glyphname = S;
kernLeft = S1;
kernRight = S;
lastChange = "2024-07-04 14:33:30 +0000";
layers = (
{
anchors = (
{
name = bottom;
pos = (300,-20);
},
{
name = top;
pos = (286,719);
}
);
associatedMasterId = "15700EBA-52AC-4D6B-A2D3-7F45C26CE079";
layerId = "526B3205-964B-43ED-A08E-E7641FE0513C";
name = "#instance";
shapes = (
{
closed = 1;
nodes = (
(59,101,l),
(125,23,o),
(208,-20,o),
(310,-20,cs),
(433,-20,o),
(531,45,o),
(531,163,cs),
(531,312,o),
(406,341,o),
(295,375,cs),
(207,402,o),
(129,433,o),
(129,531,cs),
(129,626,o),
(203,665,o),
(278,665,cs),
(356,665,o),
(429,628,o),
(479,556,c),
(522,599,l),
(456,677,o),
(373,720,o),
(277,720,cs),
(151,720,o),
(68,643,o),
(68,537,cs),
(68,390,o),
(183,354,o),
(290,321,cs),
(383,292,o),
(470,265,o),
(470,168,cs),
(470,70,o),
(390,35,o),
(309,35,cs),
(225,35,o),
(152,72,o),
(102,144,c)
);
}
);
width = 600;
},
{
anchors = (
{
name = bottom;
pos = (310,-20);
},
{
name = top;
pos = (286,719);
}
);
layerId = "3DC573FB-EF22-4F14-BBA7-D097D7391B70";
shapes = (
{
closed = 1;
nodes = (
(466,-20,o),
(563,61.135,o),
(563,209.382,cs),
(563,308.548,o),
(499.006,369.673,o),
(356,407.713,cs),
(258.006,433.78,o),
(230,453.79,o),
(230,500.868,cs),
(230,546.945,o),
(257,580,o),
(309,580,cs),
(358,580,o),
(405,549.651,o),
(455,493,c),
(561,599,l),
(509,663,o),
(417,720,o),
(291,720,cs),
(135,720,o),
(40,632.855,o),
(40,492.621,cs),
(40,379.432,o),
(117.746,305.222,o),
(279.281,266.244,cs),
(346.06,250.13,o),
(373,236.194,o),
(373,193.122,cs),
(373,147.045,o),
(343.124,120,o),
(287.355,120,cs),
(228.599,120,o),
(181.793,150.349,o),
(132,207,c),
(26,101,l),
(78,37,o),
(169,-20,o),
(304,-20,cs)
);
}
);
width = 600;
},
{
anchors = (
{
name = bottom;
pos = (310,-20);
},
{
name = top;
pos = (286,719);
}
);
layerId = "48315E7A-EC54-430B-915E-ECFED2D8F863";
shapes = (
{
closed = 1;
nodes = (
(473,-20,o),
(561,61,o),
(561,197,cs),
(561,298,o),
(497.807,363.922,o),
(336.373,399,cs),
(240.087,419.922,o),
(203,442,o),
(203,501,cs),
(203,553,o),
(232.112,589,o),
(294.353,589,cs),
(354.585,589,o),
(415.822,556,o),
(462,501,c),
(557,596,l),
(497,668,o),
(407,720,o),
(287,720,cs),
(133,720,o),
(38,635,o),
(38,498,cs),
(38,386,o),
(109.23,315.139,o),
(280.678,277,cs),
(369.958,257.139,o),
(396,238,o),
(396,191,cs),
(396,138,o),
(362.878,111,o),
(300.648,111,cs),
(232.396,111,o),
(171.17,144,o),
(125,199,c),
(30,104,l),
(90,32,o),
(180,-20,o),
(310,-20,cs)
);
}
);
width = 600;
},
{
anchors = (
{
name = bottom;
pos = (310,-20);
},
{
name = top;
pos = (286,719);
}
);
layerId = "87250A93-E16C-45E7-81EC-EDE6CBCB21F2";
shapes = (
{
closed = 1;
nodes = (
(465,-20,o),
(561,63.134,o),
(561,195.347,cs),
(561,303.522,o),
(496.844,361.683,o),
(315.35,399.677,cs),
(224.123,418.775,o),
(183,443.748,o),
(183,500.84,cs),
(183,557.932,o),
(225.147,600,o),
(302.416,600,cs),
(369.65,600,o),
(424.843,563.596,o),
(470,510,c),
(555,595,l),
(492,672,o),
(406,720,o),
(289,720,cs),
(134,720,o),
(38,634.863,o),
(38,501.648,cs),
(38,384.459,o),
(112.102,317.843,o),
(297,279.289,cs),
(381.104,261.752,o),
(416,243.231,o),
(416,194.152,cs),
(416,136.058,o),
(368,100,o),
(293,100,cs),
(218,100,o),
(163,136.404,o),
(118,190,c),
(33,105,l),
(95,28,o),
(180,-20,o),
(303,-20,cs)
);
}
);
width = 600;
},
{
anchors = (
{
name = bottom;
pos = (304,-20);
},
{
name = top;
pos = (286,719);
}
);
layerId = "C3B1342C-4554-42D4-BF1D-4BC45B7A32A8";
shapes = (
{
closed = 1;
nodes = (
(455,-20,o),
(551,60.125,o),
(551,183.318,cs),
(551,289.484,o),
(479.004,353.602,o),
(324,388.639,cs),
(222.004,411.693,o),
(168,444.726,o),
(168,508.826,cs),
(168,570.923,o),
(219,620,o),
(301,620,cs),
(368,620,o),
(426,586.637,o),
(477,528,c),
(548,599,l),
(484,679,o),
(397,720,o),
(292,720,cs),
(141,720,o),
(48,634.867,o),
(48,505.665,cs),
(48,393.49,o),
(118.967,326.226,o),
(290,290.329,cs),
(390.967,269.137,o),
(434,242.254,o),
(434,188.169,cs),
(434,125.07,o),
(377,80,o),
(291,80,cs),
(218,80,o),
(160,113.363,o),
(109,172,c),
(38,101,l),
(102,21,o),
(189,-20,o),
(300,-20,cs)
);
}
);
width = 600;
},
{
anchors = (
{
name = bottom;
pos = (300,-20);
},
{
name = top;
pos = (286,719);
}
);
layerId = "966EEAD7-910A-41B6-BB10-BC7C26207015";
shapes = (
{
closed = 1;
nodes = (
(435,-20,o),
(541,45.099,o),
(541,174.294,cs),
(541,280.455,o),
(469.009,353.606,o),
(313,389.621,cs),
(187.009,418.705,o),
(148,464.734,o),
(148,526.829,cs),
(148,600.941,o),
(203,640,o),
(281,640,cs),
(353,640,o),
(415,605.653,o),
(474,541,c),
(532,599,l),
(469,679,o),
(386,720,o),
(284,720,cs),
(147,720,o),
(58,646.889,o),
(58,529.712,cs),
(58,418.543,o),
(137.988,344.373,o),
(288,312.382,cs),
(400.988,288.288,o),
(451,245.281,o),
(451,176.176,cs),
(451,99.059,o),
(390,60,o),
(306,60,cs),
(227,60,o),
(165,94.347,o),
(106,159,c),
(48,101,l),
(111,21,o),
(194,-20,o),
(301,-20,cs)
);
}
);
width = 600;
},
{
anchors = (
{
name = bottom;
pos = (300,-20);
},
{
name = top;
pos = (286,719);
}
);
layerId = "15700EBA-52AC-4D6B-A2D3-7F45C26CE079";
shapes = (
{
closed = 1;
nodes = (
(433,-20,o),
(531,45,o),
(531,163,cs),
(531,312,o),
(406,341,o),
(295,375,cs),
(207,402,o),
(129,433,o),
(129,531,cs),
(129,626,o),
(203,665,o),
(278,665,cs),
(356,665,o),
(429,628,o),
(479,556,c),
(522,599,l),
(456,677,o),
(373,720,o),
(277,720,cs),
(151,720,o),
(68,643,o),
(68,537,cs),
(68,390,o),
(183,354,o),
(290,321,cs),
(383,292,o),
(470,265,o),
(470,168,cs),
(470,70,o),
(390,35,o),
(309,35,cs),
(225,35,o),
(152,72,o),
(102,144,c),
(59,101,l),
(125,23,o),
(208,-20,o),
(310,-20,cs)
);
}
);
width = 600;
}
);
unicode = 83;
},
{
color = 6;
glyphname = Scedilla;
kernLeft = S1;
kernRight = S;
lastChange = "2024-07-04 14:33:30 +0000";
layers = (
{
anchors = (
{
name = bottom;
pos = (280,-218);
},
{
name = top;
pos = (286,719);
}
);
associatedMasterId = "15700EBA-52AC-4D6B-A2D3-7F45C26CE079";
layerId = "526B3205-964B-43ED-A08E-E7641FE0513C";
name = "#instance";
shapes = (
{
closed = 1;
nodes = (
(59,101,l),
(125,23,o),
(208,-20,o),
(310,-20,cs),
(433,-20,o),
(531,45,o),
(531,163,cs),
(531,312,o),
(406,341,o),
(295,375,cs),
(207,402,o),
(129,433,o),
(129,531,cs),
(129,626,o),
(203,665,o),
(278,665,cs),
(356,665,o),
(429,628,o),
(479,556,c),
(522,599,l),
(456,677,o),
(373,720,o),
(277,720,cs),
(151,720,o),
(68,643,o),
(68,537,cs),
(68,390,o),
(183,354,o),
(290,321,cs),
(383,292,o),
(470,265,o),
(470,168,cs),
(470,70,o),
(390,35,o),
(309,35,cs),
(225,35,o),
(152,72,o),
(102,144,c)
);
},
{
closed = 1;
nodes = (
(189,-205,l),
(209,-211,o),
(232,-218,o),
(270,-218,cs),
(348,-218,o),
(389,-188,o),
(389,-140,cs),
(389,-92,o),
(349,-64,o),
(291,-64,c),
(331.194,12.137,l),
(286.194,12.137,l),
(236,-82,l),
(248,-79,o),
(258,-78,o),
(268,-78,cs),
(313,-78,o),
(337,-98,o),
(337,-132,cs),
(337,-166,o),
(312,-188,o),
(267,-188,cs),
(246,-188,o),
(222,-183,o),
(204,-177,c)
);
}
);
width = 600;
},
{
anchors = (
{
name = bottom;
pos = (290,-218);
},
{
name = top;
pos = (286,719);
}
);
layerId = "3DC573FB-EF22-4F14-BBA7-D097D7391B70";
shapes = (
{
closed = 1;
nodes = (
(466,-20,o),
(563,61.135,o),
(563,209.382,cs),
(563,308.548,o),
(499.006,369.673,o),
(356,407.713,cs),
(258.006,433.78,o),
(230,453.79,o),
(230,500.868,cs),
(230,546.945,o),
(257,580,o),
(309,580,cs),
(358,580,o),
(405,549.651,o),
(455,493,c),
(561,599,l),
(509,663,o),
(417,720,o),
(291,720,cs),
(135,720,o),
(40,632.855,o),
(40,492.621,cs),
(40,379.432,o),
(117.746,305.222,o),
(279.281,266.244,cs),
(346.06,250.13,o),
(373,236.194,o),
(373,193.122,cs),
(373,147.045,o),
(343.124,120,o),
(287.355,120,cs),
(228.599,120,o),
(181.793,150.349,o),
(132,207,c),
(26,101,l),
(78,37,o),
(169,-20,o),
(304,-20,cs)
);
},
{
closed = 1;
nodes = (
(369,-218,o),
(418,-191,o),
(418,-134,cs),
(418,-87,o),
(385,-64,o),
(317,-64,c),
(364.423,20.41,l),
(262.423,20.41,l),
(194,-109,l),
(210,-107,o),
(235,-105,o),
(252,-105,cs),
(282,-105,o),
(298,-111,o),
(298,-133,cs),
(298,-151,o),
(287,-164,o),
(250,-164,cs),
(229,-164,o),
(200,-160,o),
(184,-154,c),
(158,-205,l),
(180,-211,o),
(213,-218,o),
(266,-218,cs)
);
}
);
width = 600;
},
{
anchors = (
{
name = bottom;
pos = (290,-218);
},
{
name = top;
pos = (286,719);
}
);
layerId = "48315E7A-EC54-430B-915E-ECFED2D8F863";
shapes = (
{
closed = 1;
nodes = (
(473,-20,o),
(561,61,o),
(561,197,cs),
(561,298,o),
(497.807,363.922,o),
(336.373,399,cs),
(240.087,419.922,o),
(203,442,o),
(203,501,cs),
(203,553,o),
(232.112,589,o),
(294.353,589,cs),
(354.585,589,o),
(415.822,556,o),
(462,501,c),
(557,596,l),
(497,668,o),
(407,720,o),
(287,720,cs),
(133,720,o),
(38,635,o),
(38,498,cs),
(38,386,o),
(109.23,315.139,o),
(280.678,277,cs),
(369.958,257.139,o),
(396,238,o),
(396,191,cs),
(396,138,o),
(362.878,111,o),
(300.648,111,cs),
(232.396,111,o),
(171.17,144,o),
(125,199,c),
(30,104,l),
(90,32,o),
(180,-20,o),
(310,-20,cs)
);
},
{
closed = 1;
nodes = (
(362,-218,o),
(414,-192,o),
(414,-133,cs),
(414,-87,o),
(383,-64,o),
(313,-64,c),
(360.224,19,l),
(267.224,19,l),
(202,-104,l),
(217,-102,o),
(235,-100,o),
(249,-100,cs),
(282,-100,o),
(301,-111,o),
(301,-134,cs),
(301,-155,o),
(285,-168,o),
(256,-168,cs),
(238,-168,o),
(203,-163,o),
(183,-157,c),
(163,-205,l),
(185,-211,o),
(218,-218,o),
(265,-218,cs)
);
}
);
width = 600;
},
{
anchors = (
{
name = bottom;
pos = (290,-218);
},
{
name = top;
pos = (286,719);
}
);
layerId = "87250A93-E16C-45E7-81EC-EDE6CBCB21F2";
shapes = (
{
closed = 1;
nodes = (
(465,-20,o),
(561,63.134,o),
(561,195.347,cs),
(561,303.522,o),
(496.844,361.683,o),
(315.35,399.677,cs),
(224.123,418.775,o),
(183,443.748,o),
(183,500.84,cs),
(183,557.932,o),
(225.147,600,o),
(302.416,600,cs),
(369.65,600,o),
(424.843,563.596,o),
(470,510,c),
(555,595,l),
(492,672,o),
(406,720,o),
(289,720,cs),
(134,720,o),
(38,634.863,o),
(38,501.648,cs),
(38,384.459,o),
(112.102,317.843,o),
(297,279.289,cs),
(381.104,261.752,o),
(416,243.231,o),
(416,194.152,cs),
(416,136.058,o),
(368,100,o),
(293,100,cs),
(218,100,o),
(163,136.404,o),
(118,190,c),
(33,105,l),
(95,28,o),
(180,-20,o),
(303,-20,cs)
);
},
{
closed = 1;
nodes = (
(365,-218,o),
(414,-188,o),
(414,-135,cs),
(414,-89,o),
(378,-64,o),
(316,-64,c),
(360.665,16.274,l),
(274.665,16.274,l),
(217,-96,l),
(233,-94,o),
(246,-92,o),
(260,-92,cs),
(294,-92,o),
(314,-105,o),
(314,-132,cs),
(314,-158,o),
(294,-172,o),
(261,-172,cs),
(241,-172,o),
(213,-167,o),
(193,-161,c),
(173,-205,l),
(197,-213,o),
(231,-218,o),
(270,-218,cs)
);
}
);
width = 600;
},
{
anchors = (
{
name = bottom;
pos = (284,-218);
},
{
name = top;
pos = (286,719);
}
);
layerId = "C3B1342C-4554-42D4-BF1D-4BC45B7A32A8";
shapes = (
{
closed = 1;
nodes = (
(455,-20,o),
(551,60.125,o),
(551,183.318,cs),
(551,289.484,o),
(479.004,353.602,o),
(324,388.639,cs),
(222.004,411.693,o),
(168,444.726,o),
(168,508.826,cs),
(168,570.923,o),
(219,620,o),
(301,620,cs),
(368,620,o),
(426,586.637,o),
(477,528,c),
(548,599,l),
(484,679,o),
(397,720,o),
(292,720,cs),
(141,720,o),
(48,634.867,o),
(48,505.665,cs),
(48,393.49,o),
(118.967,326.226,o),
(290,290.329,cs),
(390.967,269.137,o),
(434,242.254,o),
(434,188.169,cs),
(434,125.07,o),
(377,80,o),
(291,80,cs),
(218,80,o),
(160,113.363,o),
(109,172,c),
(38,101,l),
(102,21,o),
(189,-20,o),
(300,-20,cs)
);
},
{
closed = 1;
nodes = (
(356,-218,o),
(403,-189,o),
(403,-136,cs),
(403,-89,o),
(367,-64,o),
(307,-64,c),
(349.784,13.546,l),
(276.784,13.546,l),
(224,-90,l),
(239,-88,o),
(250,-86,o),
(263,-86,cs),
(298,-86,o),
(319,-101,o),
(319,-130,cs),
(319,-158,o),
(299,-177,o),
(263,-177,cs),
(245,-177,o),
(217,-172,o),
(196,-166,c),
(177,-205,l),
(203,-211,o),
(232,-218,o),
(273,-218,cs)
);
}
);
width = 600;
},
{
anchors = (
{
name = bottom;
pos = (280,-218);
},
{
name = top;
pos = (286,719);
}
);
layerId = "966EEAD7-910A-41B6-BB10-BC7C26207015";
shapes = (
{
closed = 1;
nodes = (
(435,-20,o),
(541,45.099,o),
(541,174.294,cs),
(541,280.455,o),
(469.009,353.606,o),
(313,389.621,cs),
(187.009,418.705,o),
(148,464.734,o),
(148,526.829,cs),
(148,600.941,o),
(203,640,o),
(281,640,cs),
(353,640,o),
(415,605.653,o),
(474,541,c),
(532,599,l),
(469,679,o),
(386,720,o),
(284,720,cs),
(147,720,o),
(58,646.889,o),
(58,529.712,cs),
(58,418.543,o),
(137.988,344.373,o),
(288,312.382,cs),
(400.988,288.288,o),
(451,245.281,o),
(451,176.176,cs),
(451,99.059,o),
(390,60,o),
(306,60,cs),
(227,60,o),
(165,94.347,o),
(106,159,c),
(48,101,l),
(111,21,o),
(194,-20,o),
(301,-20,cs)
);
},
{
closed = 1;
nodes = (
(348,-218,o),
(394,-189,o),
(394,-137,cs),
(394,-90,o),
(357,-64,o),
(298,-64,c),
(342.74,14.895,l),
(285.74,14.895,l),
(231,-86,l),
(246,-84,o),
(257,-82,o),
(270,-82,cs),
(305,-82,o),
(326,-97,o),
(326,-132,cs),
(326,-166,o),
(307,-182,o),
(265,-182,cs),
(242,-182,o),
(220,-177,o),
(203,-171,c),
(184,-205,l),
(205,-211,o),
(229,-218,o),
(268,-218,cs)
);
}
);
width = 600;
},
{
anchors = (
{
name = bottom;
pos = (280,-218);
},
{
name = top;
pos = (286,719);
}
);
layerId = "15700EBA-52AC-4D6B-A2D3-7F45C26CE079";
shapes = (
{
closed = 1;
nodes = (
(433,-20,o),
(531,45,o),
(531,163,cs),
(531,312,o),
(406,341,o),
(295,375,cs),
(207,402,o),
(129,433,o),
(129,531,cs),
(129,626,o),
(203,665,o),
(278,665,cs),
(356,665,o),
(429,628,o),
(479,556,c),
(522,599,l),
(456,677,o),
(373,720,o),
(277,720,cs),
(151,720,o),
(68,643,o),
(68,537,cs),
(68,390,o),
(183,354,o),
(290,321,cs),
(383,292,o),
(470,265,o),
(470,168,cs),
(470,70,o),
(390,35,o),
(309,35,cs),
(225,35,o),
(152,72,o),
(102,144,c),
(59,101,l),
(125,23,o),
(208,-20,o),
(310,-20,cs)
);
},
{
closed = 1;
nodes = (
(348,-218,o),
(389,-188,o),
(389,-140,cs),
(389,-92,o),
(349,-64,o),
(291,-64,c),
(331.194,12.137,l),
(286.194,12.137,l),
(236,-82,l),
(248,-79,o),
(258,-78,o),
(268,-78,cs),
(313,-78,o),
(337,-98,o),
(337,-132,cs),
(337,-166,o),
(312,-188,o),
(267,-188,cs),
(246,-188,o),
(222,-183,o),
(204,-177,c),
(189,-205,l),
(209,-211,o),
(232,-218,o),
(270,-218,cs)
);
}
);
width = 600;
}
);
unicode = 350;
},
{
color = 6;
glyphname = Germandbls;
lastChange = "2024-07-04 14:33:30 +0000";
layers = (
{
layerId = "3DC573FB-EF22-4F14-BBA7-D097D7391B70";
shapes = (
{
closed = 1;
nodes = (
(642,-20,o),
(698,84,o),
(698,171,cs),
(698,347,o),
(529,334,o),
(529,422,cs),
(529,455,o),
(544.919,483.609,o),
(560,505,cs),
(666.853,656.554,l),
(661.642,635.659,l),
(595.176,679.179,o),
(532.38,720,o),
(349,720,cs),
(154.373,720,o),
(46,637.379,o),
(46,489,c),
(46,0,l),
(236,0,l),
(236,452.597,ls),
(236,542.758,o),
(268.079,576,o),
(365.212,576,cs),
(409.232,576,o),
(423.59,571.254,o),
(449.934,559.772,c),
(421.302,584.775,l),
(380.067,531.837,ls),
(351.166,494.733,o),
(339,445.68,o),
(339,402.315,cs),
(339,233.21,o),
(514,241.023,o),
(514,161.629,cs),
(514,136.864,o),
(496,120,o),
(463,120,cs),
(433,120,o),
(404,134,o),
(373,174,c),
(272.144,73.144,l),
(317.04,9.828,o),
(382.643,-20,o),
(477,-20,cs)
);
}
);
width = 715;
},
{
layerId = "48315E7A-EC54-430B-915E-ECFED2D8F863";
shapes = (
{
closed = 1;
nodes = (
(640.447,-20,o),
(696,81,o),
(696,170,cs),
(696,352,o),
(509,338,o),
(509,413,cs),
(509,445,o),
(524.614,473.827,o),
(540,495,cs),
(657.818,657.135,l),
(648.651,638.713,l),
(583.236,682.465,o),
(492.262,720,o),
(357.038,720,cs),
(157.92,720,o),
(50,638.806,o),
(50,489,c),
(50,0,l),
(216,0,l),
(216,456.335,ls),
(216,557.006,o),
(247.668,589,o),
(370.41,589,cs),
(399.617,589,o),
(430.528,584.498,o),
(449.103,573.656,c),
(433.451,591.689,l),
(393.911,540.675,ls),
(365.671,504.24,o),
(343,467.208,o),
(343,398.169,cs),
(343,228.072,o),
(532,255.082,o),
(532,160.028,cs),
(532,135.014,o),
(517.111,111,o),
(471.514,111,cs),
(429.639,111,o),
(398,131,o),
(367,169,c),
(273,75,l),
(312,18,o),
(374.376,-20,o),
(475.736,-20,cs)
);
}
);
width = 715;
},
{
layerId = "87250A93-E16C-45E7-81EC-EDE6CBCB21F2";
shapes = (
{
closed = 1;
nodes = (
(608.284,-20,o),
(696,54,o),
(696,160,cs),
(696,340,o),
(493,346,o),
(493,406,cs),
(493,433,o),
(511.256,465.349,o),
(533,495,cs),
(651.87,657.096,l),
(642.631,637.937,l),
(578.709,686.834,o),
(480.13,720,o),
(355.803,720,cs),
(151.153,720,o),
(56,640.282,o),
(56,479,c),
(56,0,l),
(202,0,l),
(202,463.887,ls),
(202,562.413,o),
(237.813,596,o),
(342.87,596,cs),
(398.426,596,o),
(436.313,588.26,o),
(461.629,578.64,c),
(459.219,613.957,l),
(403.376,536.643,ls),
(365.447,484.13,o),
(347,445.778,o),
(347,394.958,cs),
(347,237.518,o),
(550,245.447,o),
(550,155.802,cs),
(550,122.918,o),
(523.609,100,o),
(480.253,100,cs),
(435.011,100,o),
(386,124,o),
(362,164,c),
(273,75,l),
(312,18,o),
(374.376,-20,o),
(471.838,-20,cs)
);
}
);
width = 715;
},
{
layerId = "C3B1342C-4554-42D4-BF1D-4BC45B7A32A8";
shapes = (
{
closed = 1;
nodes = (
(600.286,-20,o),
(686,54,o),
(686,160,cs),
(686,340,o),
(473,316,o),
(473,406,cs),
(473,433,o),
(496.752,454.833,o),
(519,485,cs),
(645.903,657.072,l),
(634.911,638.196,l),
(584.142,684.58,o),
(482.353,720,o),
(354,720,cs),
(165,720,o),
(66,643,o),
(66,489,c),
(66,0,l),
(186,0,l),
(186,477.897,ls),
(186,583.343,o),
(223.362,616,o),
(344,616,cs),
(399.408,616,o),
(450.75,604.492,o),
(476.582,595.935,c),
(472.434,609.776,l),
(411,526,ls),
(370.437,470.686,o),
(352,445.16,o),
(352,395.682,cs),
(352,236.362,o),
(567,261.101,o),
(567,151.259,cs),
(567,106.729,o),
(525.2,81,o),
(472.95,81,cs),
(420.7,81,o),
(377,107,o),
(352,154,c),
(273,75,l),
(311,18,o),
(372.364,-20,o),
(467.818,-20,cs)
);
}
);
width = 715;
},
{
layerId = "966EEAD7-910A-41B6-BB10-BC7C26207015";
shapes = (
{
closed = 1;
nodes = (
(592.287,-20,o),
(676,54,o),
(676,151,cs),
(676,313,o),
(451,312,o),
(451,414,cs),
(451,443,o),
(473.004,466.205,o),
(497,495,cs),
(631.603,656.523,l),
(627.112,636.257,l),
(564.369,693.262,o),
(475.94,720,o),
(363,720,cs),
(165.804,720,o),
(76,648.905,o),
(76,489,c),
(76,0,l),
(166,0,l),
(166,485.415,ls),
(166,599.858,o),
(216.881,640,o),
(361.39,640,cs),
(422.731,640,o),
(475.576,630.018,o),
(506.053,619.811,c),
(511.853,633.354,l),
(438.534,541,ls),
(394.703,485.79,o),
(361,449.261,o),
(361,402.267,cs),
(361,257.369,o),
(587,265.411,o),
(587,145.967,cs),
(587,88.204,o),
(531.348,51,o),
(460.344,51,cs),
(400.854,51,o),
(350,78,o),
(323,125,c),
(273,75,l),
(310,18,o),
(370.351,-20,o),
(462.824,-20,cs)
);
}
);
width = 715;
},
{
layerId = "15700EBA-52AC-4D6B-A2D3-7F45C26CE079";
shapes = (
{
closed = 1;
nodes = (
(586.578,-20,o),
(666,54,o),
(666,150,cs),
(666,313,o),
(433,312,o),
(433,414,cs),
(433,443,o),
(454.669,466.487,o),
(479,495,cs),
(616.737,656.41,l),
(616.011,636.923,l),
(563.8,686.374,o),
(475.988,720,o),
(368,720,cs),
(174,720,o),
(86,651,o),
(86,499,c),
(86,0,l),
(146,0,l),
(146,507,ls),
(146,607,o),
(208,665,o),
(357,665,cs),
(425.769,665,o),
(492.154,648.319,o),
(524.942,626.662,c),
(526.818,642.391,l),
(450,549,ls),
(405.97,495.471,o),
(372,458,o),
(372,408,cs),
(372,262,o),
(605,270,o),
(605,144,cs),
(605,82,o),
(550.338,35,o),
(463.25,35,cs),
(398.397,35,o),
(353,61,o),
(319,111,c),
(283,75,l),
(319,18,o),
(376.676,-20,o),
(464.608,-20,cs)
);
}
);
width = 715;
}
);
unicode = 7838;
},
{
color = 6;
glyphname = T;
kernLeft = T;
kernRight = T1;
lastChange = "2024-07-04 14:20:28 +0000";
layers = (
{
anchors = (
{
name = bottom;
pos = (313,-20);
},
{
name = top;
pos = (313,719);
}
);
associatedMasterId = "15700EBA-52AC-4D6B-A2D3-7F45C26CE079";
layerId = "526B3205-964B-43ED-A08E-E7641FE0513C";
name = "#instance";
shapes = (
{
closed = 1;
nodes = (
(283,0,l,{
name = ab01;
}),
(343,0,l),
(343,646,l,{
name = sv02;
}),
(591,646,l,{
name = sv03;
}),
(591,700,l),
(35,700,l,{
name = at01;
}),
(35,646,l,{
name = sv01;
}),
(283,646,l)
);
}
);
width = 626;
},
{
anchors = (
{
name = bottom;
pos = (313,-20);
},
{
name = top;
pos = (313,719);
}
);
layerId = "3DC573FB-EF22-4F14-BBA7-D097D7391B70";
shapes = (
{
closed = 1;
nodes = (
(408,0,l),
(408,560,l),
(616,560,l),
(616,700,l),
(10,700,l),
(10,560,l),
(218,560,l),
(218,0,l)
);
}
);
width = 626;
},
{
anchors = (
{
name = bottom;
pos = (313,-20);
},
{
name = top;
pos = (313,719);
}
);
layerId = "48315E7A-EC54-430B-915E-ECFED2D8F863";
shapes = (
{
closed = 1;
nodes = (
(396,0,l),
(396,570,l),
(616,570,l),
(616,700,l),
(10,700,l),
(10,570,l),
(230,570,l),
(230,0,l)
);
}
);
width = 626;
},
{
anchors = (
{
name = bottom;
pos = (313,-20);
},
{
name = top;
pos = (313,719);
}
);
layerId = "87250A93-E16C-45E7-81EC-EDE6CBCB21F2";
shapes = (
{
closed = 1;
nodes = (
(386,0,l),
(386,580,l,{
name = sv02;
}),
(616,580,l,{
name = sv03;
}),
(616,700,l),
(10,700,l,{
name = at01;
}),
(10,580,l,{
name = sv01;
}),
(240,580,l),
(240,0,l,{
name = ab01;
})
);
}
);
width = 626;
},
{
anchors = (
{
name = bottom;
pos = (313,-20);
},
{
name = top;
pos = (313,719);
}
);
layerId = "C3B1342C-4554-42D4-BF1D-4BC45B7A32A8";
shapes = (
{
closed = 1;
nodes = (
(373,0,l),
(373,600,l,{
name = sv02;
}),
(606,600,l,{
name = sv03;
}),
(606,700,l),
(20,700,l,{
name = at01;
}),
(20,600,l,{
name = sv01;
}),
(253,600,l),
(253,0,l,{
name = ab01;
})
);
}
);
width = 626;
},
{
anchors = (
{
name = bottom;
pos = (313,-20);
},
{
name = top;
pos = (313,719);
}
);
layerId = "966EEAD7-910A-41B6-BB10-BC7C26207015";
shapes = (
{
closed = 1;
nodes = (
(358,0,l),
(358,620,l,{
name = sv02;
}),
(596,620,l,{
name = sv03;
}),
(596,700,l),
(30,700,l,{
name = at01;
}),
(30,620,l,{
name = sv01;
}),
(268,620,l),
(268,0,l,{
name = ab01;
})
);
}
);
width = 626;
},
{
anchors = (
{
name = bottom;
pos = (313,-20);
},
{
name = top;
pos = (313,719);
}
);
layerId = "15700EBA-52AC-4D6B-A2D3-7F45C26CE079";
shapes = (
{
closed = 1;
nodes = (
(343,0,l),
(343,646,l,{
name = sv02;
}),
(591,646,l,{
name = sv03;
}),
(591,700,l),
(35,700,l,{
name = at01;
}),
(35,646,l,{
name = sv01;
}),
(283,646,l),
(283,0,l,{
name = ab01;
})
);
}
);
width = 626;
}
);
unicode = 84;
},
{
color = 6;
glyphname = Tbar;
kernLeft = T;
kernRight = T1;
lastChange = "2024-07-04 14:20:28 +0000";
layers = (
{
anchors = (
{
name = bottom;
pos = (324,-20);
},
{
name = top;
pos = (324,719);
}
);
layerId = "3DC573FB-EF22-4F14-BBA7-D097D7391B70";
shapes = (
{
closed = 1;
nodes = (
(419,0,l),
(419,560,l),
(627,560,l),
(627,700,l),
(21,700,l),
(21,560,l),
(229,560,l),
(229,0,l)
);
},
{
closed = 1;
nodes = (
(574,338,l),
(574,374,l),
(74,374,l),
(74,338,l)
);
}
);
width = 648;
},
{
anchors = (
{
name = bottom;
pos = (324,-20);
},
{
name = top;
pos = (324,719);
}
);
layerId = "48315E7A-EC54-430B-915E-ECFED2D8F863";
shapes = (
{
closed = 1;
nodes = (
(407,0,l),
(407,570,l),
(627,570,l),
(627,700,l),
(21,700,l),
(21,570,l),
(241,570,l),
(241,0,l)
);
},
{
closed = 1;
nodes = (
(574,338,l),
(574,374,l),
(74,374,l),
(74,338,l)
);
}
);
width = 648;
},
{
anchors = (
{
name = bottom;
pos = (324,-20);
},
{
name = top;
pos = (324,719);
}
);
layerId = "87250A93-E16C-45E7-81EC-EDE6CBCB21F2";
shapes = (
{
closed = 1;
nodes = (
(397,0,l),
(397,580,l,{
name = sv02;
}),
(627,580,l,{
name = sv03;
}),
(627,700,l),
(21,700,l,{
name = at01;
}),
(21,580,l,{
name = sv01;
}),
(251,580,l),
(251,0,l,{
name = ab01;
})
);
},
{
closed = 1;
nodes = (
(574,338,l),
(574,374,l),
(74,374,l),
(74,338,l)
);
}
);
width = 648;
},
{
anchors = (
{
name = bottom;
pos = (324,-20);
},
{
name = top;
pos = (324,719);
}
);
layerId = "C3B1342C-4554-42D4-BF1D-4BC45B7A32A8";
shapes = (
{
closed = 1;
nodes = (
(384,0,l),
(384,600,l,{
name = sv02;
}),
(617,600,l,{
name = sv03;
}),
(617,700,l),
(31,700,l,{
name = at01;
}),
(31,600,l,{
name = sv01;
}),
(264,600,l),
(264,0,l,{
name = ab01;
})
);
},
{
closed = 1;
nodes = (
(574,338,l),
(574,374,l),
(74,374,l),
(74,338,l)
);
}
);
width = 648;
},
{
anchors = (
{
name = bottom;
pos = (324,-20);
},
{
name = top;
pos = (324,719);
}
);
layerId = "966EEAD7-910A-41B6-BB10-BC7C26207015";
shapes = (
{
closed = 1;
nodes = (
(369,0,l),
(369,620,l,{
name = sv02;
}),
(607,620,l,{
name = sv03;
}),
(607,700,l),
(41,700,l,{
name = at01;
}),
(41,620,l,{
name = sv01;
}),
(279,620,l),
(279,0,l,{
name = ab01;
})
);
},
{
closed = 1;
nodes = (
(574,338,l),
(574,374,l),
(74,374,l),
(74,338,l)
);
}
);
width = 648;
},
{
anchors = (
{
name = bottom;
pos = (324,-20);
},
{
name = top;
pos = (324,719);
}
);
layerId = "15700EBA-52AC-4D6B-A2D3-7F45C26CE079";
shapes = (
{
closed = 1;
nodes = (
(354,0,l),
(354,646,l,{
name = sv02;
}),
(597,646,l,{
name = sv03;
}),
(597,700,l),
(51,700,l,{
name = at01;
}),
(51,646,l,{
name = sv01;
}),
(294,646,l),
(294,0,l,{
name = ab01;
})
);
},
{
closed = 1;
nodes = (
(564,338,l),
(564,374,l),
(84,374,l),
(84,338,l)
);
}
);
width = 648;
}
);
unicode = 358;
},
{
color = 6;
glyphname = Tcedilla;
kernLeft = T;
kernRight = T1;
lastChange = "2024-07-04 14:33:30 +0000";
layers = (
{
anchors = (
{
name = bottom;
pos = (304,-218);
},
{
name = top;
pos = (324,719);
}
);
layerId = "3DC573FB-EF22-4F14-BBA7-D097D7391B70";
shapes = (
{
closed = 1;
nodes = (
(419,0,l),
(419,560,l),
(627,560,l),
(627,700,l),
(21,700,l),
(21,560,l),
(229,560,l),
(229,0,l)
);
},
{
closed = 1;
nodes = (
(383,-218,o),
(432,-191,o),
(432,-134,cs),
(432,-87,o),
(399,-64,o),
(331,-64,c),
(378.423,20.41,l),
(276.423,20.41,l),
(208,-109,l),
(224,-107,o),
(249,-105,o),
(266,-105,cs),
(296,-105,o),
(312,-111,o),
(312,-133,cs),
(312,-151,o),
(301,-164,o),
(264,-164,cs),
(243,-164,o),
(214,-160,o),
(198,-154,c),
(172,-205,l),
(194,-211,o),
(227,-218,o),
(280,-218,cs)
);
}
);
width = 648;
},
{
anchors = (
{
name = bottom;
pos = (304,-218);
},
{
name = top;
pos = (324,719);
}
);
layerId = "48315E7A-EC54-430B-915E-ECFED2D8F863";
shapes = (
{
closed = 1;
nodes = (
(407,0,l),
(407,570,l),
(627,570,l),
(627,700,l),
(21,700,l),
(21,570,l),
(241,570,l),
(241,0,l)
);
},
{
closed = 1;
nodes = (
(376,-218,o),
(428,-192,o),
(428,-133,cs),
(428,-87,o),
(397,-64,o),
(327,-64,c),
(374.224,19,l),
(281.224,19,l),
(216,-104,l),
(231,-102,o),
(249,-100,o),
(263,-100,cs),
(296,-100,o),
(315,-111,o),
(315,-134,cs),
(315,-155,o),
(299,-168,o),
(270,-168,cs),
(252,-168,o),
(217,-163,o),
(197,-157,c),
(177,-205,l),
(199,-211,o),
(232,-218,o),
(279,-218,cs)
);
}
);
width = 648;
},
{
anchors = (
{
name = bottom;
pos = (304,-218);
},
{
name = top;
pos = (324,719);
}
);
layerId = "87250A93-E16C-45E7-81EC-EDE6CBCB21F2";
shapes = (
{
closed = 1;
nodes = (
(397,0,l),
(397,580,l,{
name = sv02;
}),
(627,580,l,{
name = sv03;
}),
(627,700,l),
(21,700,l,{
name = at01;
}),
(21,580,l,{
name = sv01;
}),
(251,580,l),
(251,0,l,{
name = ab01;
})
);
},
{
closed = 1;
nodes = (
(379,-218,o),
(428,-188,o),
(428,-135,cs),
(428,-89,o),
(392,-64,o),
(330,-64,c),
(374.665,16.274,l),
(288.665,16.274,l),
(231,-96,l),
(247,-94,o),
(260,-92,o),
(274,-92,cs),
(308,-92,o),
(328,-105,o),
(328,-132,cs),
(328,-158,o),
(308,-172,o),
(275,-172,cs),
(255,-172,o),
(227,-167,o),
(207,-161,c),
(187,-205,l),
(211,-213,o),
(245,-218,o),
(284,-218,cs)
);
}
);
width = 648;
},
{
anchors = (
{
name = bottom;
pos = (304,-218);
},
{
name = top;
pos = (324,719);
}
);
layerId = "C3B1342C-4554-42D4-BF1D-4BC45B7A32A8";
shapes = (
{
closed = 1;
nodes = (
(384,0,l),
(384,600,l,{
name = sv02;
}),
(617,600,l,{
name = sv03;
}),
(617,700,l),
(31,700,l,{
name = at01;
}),
(31,600,l,{
name = sv01;
}),
(264,600,l),
(264,0,l,{
name = ab01;
})
);
},
{
closed = 1;
nodes = (
(376,-218,o),
(423,-189,o),
(423,-136,cs),
(423,-89,o),
(387,-64,o),
(327,-64,c),
(369.784,13.546,l),
(296.784,13.546,l),
(244,-90,l),
(259,-88,o),
(270,-86,o),
(283,-86,cs),
(318,-86,o),
(339,-101,o),
(339,-130,cs),
(339,-158,o),
(319,-177,o),
(283,-177,cs),
(265,-177,o),
(237,-172,o),
(216,-166,c),
(197,-205,l),
(223,-211,o),
(252,-218,o),
(293,-218,cs)
);
}
);
width = 648;
},
{
anchors = (
{
name = bottom;
pos = (304,-218);
},
{
name = top;
pos = (324,719);
}
);
layerId = "966EEAD7-910A-41B6-BB10-BC7C26207015";
shapes = (
{
closed = 1;
nodes = (
(369,0,l),
(369,620,l,{
name = sv02;
}),
(607,620,l,{
name = sv03;
}),
(607,700,l),
(41,700,l,{
name = at01;
}),
(41,620,l,{
name = sv01;
}),
(279,620,l),
(279,0,l,{
name = ab01;
})
);
},
{
closed = 1;
nodes = (
(372,-218,o),
(418,-189,o),
(418,-137,cs),
(418,-90,o),
(381,-64,o),
(322,-64,c),
(366.74,14.895,l),
(309.74,14.895,l),
(255,-86,l),
(270,-84,o),
(281,-82,o),
(294,-82,cs),
(329,-82,o),
(350,-97,o),
(350,-132,cs),
(350,-166,o),
(331,-182,o),
(289,-182,cs),
(266,-182,o),
(244,-177,o),
(227,-171,c),
(208,-205,l),
(229,-211,o),
(253,-218,o),
(292,-218,cs)
);
}
);
width = 648;
},
{
anchors = (
{
name = bottom;
pos = (304,-218);
},
{
name = top;
pos = (324,719);
}
);
layerId = "15700EBA-52AC-4D6B-A2D3-7F45C26CE079";
shapes = (
{
closed = 1;
nodes = (
(354,0,l),
(354,646,l,{
name = sv02;
}),
(597,646,l,{
name = sv03;
}),
(597,700,l),
(51,700,l,{
name = at01;
}),
(51,646,l,{
name = sv01;
}),
(294,646,l),
(294,0,l,{
name = ab01;
})
);
},
{
closed = 1;
nodes = (
(372,-218,o),
(413,-188,o),
(413,-140,cs),
(413,-92,o),
(373,-64,o),
(315,-64,c),
(355.194,12.137,l),
(310.194,12.137,l),
(260,-82,l),
(272,-79,o),
(282,-78,o),
(292,-78,cs),
(337,-78,o),
(361,-98,o),
(361,-132,cs),
(361,-166,o),
(336,-188,o),
(291,-188,cs),
(270,-188,o),
(246,-183,o),
(228,-177,c),
(213,-205,l),
(233,-211,o),
(256,-218,o),
(294,-218,cs)
);
}
);
width = 648;
}
);
unicode = 354;
},
{
color = 6;
glyphname = U;
kernLeft = U;
kernRight = J1;
lastChange = "2024-07-04 14:33:30 +0000";
layers = (
{
anchors = (
{
name = bottom;
pos = (338,-20);
},
{
name = ogonek;
pos = (454,-1);
},
{
name = top;
pos = (338,719);
}
);
layerId = "3DC573FB-EF22-4F14-BBA7-D097D7391B70";
shapes = (
{
closed = 1;
nodes = (
(513.108,-20,o),
(625,89,o),
(625,262,cs),
(625,700,l),
(435,700,l),
(435,278,ls),
(435,170,o),
(403.8,120,o),
(336.943,120,cs),
(270.086,120,o),
(240,169,o),
(240,278,cs),
(240,700,l),
(50,700,l),
(50,262,ls),
(50,88,o),
(158.784,-20,o),
(335.946,-20,cs)
);
}
);
width = 675;
},
{
anchors = (
{
name = bottom;
pos = (338,-20);
},
{
name = ogonek;
pos = (454,-1);
},
{
name = top;
pos = (338,719);
}
);
layerId = "48315E7A-EC54-430B-915E-ECFED2D8F863";
shapes = (
{
closed = 1;
nodes = (
(513.108,-20,o),
(625,89,o),
(625,262,cs),
(625,700,l),
(459,700,l),
(459,285,ls),
(459,168,o),
(418.682,110,o),
(338.045,110,cs),
(256.318,110,o),
(216,168,o),
(216,285,cs),
(216,700,l),
(50,700,l),
(50,262,ls),
(50,88,o),
(158.784,-20,o),
(335.946,-20,cs)
);
}
);
width = 675;
},
{
anchors = (
{
name = bottom;
pos = (338,-20);
},
{
name = ogonek;
pos = (449,-1);
},
{
name = top;
pos = (338,719);
}
);
layerId = "87250A93-E16C-45E7-81EC-EDE6CBCB21F2";
shapes = (
{
closed = 1;
nodes = (
(507,-20,o),
(615,89,o),
(615,262,cs),
(615,700,l,{
name = at02;
}),
(469,700,l),
(469,292,ls),
(469,157,o),
(430,100,o),
(337,100,cs,{
name = dv02;
}),
(245,100,o),
(206,156,o),
(206,292,cs),
(206,700,l),
(60,700,l,{
name = at01;
}),
(60,262,ls),
(60,88,o),
(165,-20,o),
(336,-20,cs,{
name = dv01;
})
);
}
);
width = 675;
},
{
anchors = (
{
name = bottom;
pos = (338,-20);
},
{
name = ogonek;
pos = (447,-1);
},
{
name = top;
pos = (338,719);
}
);
layerId = "C3B1342C-4554-42D4-BF1D-4BC45B7A32A8";
shapes = (
{
closed = 1;
nodes = (
(507,-20,o),
(605,89,o),
(605,262,cs),
(605,700,l,{
name = at02;
}),
(485,700,l),
(485,278,ls),
(485,139,o),
(430,80,o),
(337,80,cs,{
name = dv02;
}),
(245,80,o),
(190,138,o),
(190,278,cs),
(190,700,l),
(70,700,l,{
name = at01;
}),
(70,262,ls),
(70,88,o),
(165,-20,o),
(336,-20,cs,{
name = dv01;
})
);
}
);
width = 675;
},
{
anchors = (
{
name = bottom;
pos = (338,-20);
},
{
name = ogonek;
pos = (448,-1);
},
{
name = top;
pos = (338,719);
}
);
layerId = "966EEAD7-910A-41B6-BB10-BC7C26207015";
shapes = (
{
closed = 1;
nodes = (
(501,-20,o),
(595,89,o),
(595,262,cs),
(595,700,l,{
name = at02;
}),
(505,700,l),
(505,264,ls),
(505,121,o),
(442,60,o),
(337,60,cs,{
name = dv02;
}),
(233,60,o),
(170,120,o),
(170,264,cs),
(170,700,l),
(80,700,l,{
name = at01;
}),
(80,262,ls),
(80,88,o),
(171,-20,o),
(336,-20,cs,{
name = dv01;
})
);
}
);
width = 675;
},
{
anchors = (
{
name = bottom;
pos = (338,-20);
},
{
name = ogonek;
pos = (447,-1);
},
{
name = top;
pos = (338,719);
}
);
layerId = "15700EBA-52AC-4D6B-A2D3-7F45C26CE079";
shapes = (
{
closed = 1;
nodes = (
(495,-20,o),
(585,89,o),
(585,262,cs),
(585,700,l,{
name = at02;
}),
(525,700,l),
(525,259,ls),
(525,110,o),
(454,35,o),
(337,35,cs,{
name = dv02;
}),
(221,35,o),
(150,109,o),
(150,259,cs),
(150,700,l),
(90,700,l,{
name = at01;
}),
(90,262,ls),
(90,88,o),
(177,-20,o),
(336,-20,cs,{
name = dv01;
})
);
}
);
width = 675;
}
);
unicode = 85;
},
{
color = 6;
glyphname = V;
kernLeft = V1;
kernRight = V;
lastChange = "2024-07-04 14:20:28 +0000";
layers = (
{
anchors = (
{
name = bottom;
pos = (328,-20);
},
{
name = top;
pos = (328,719);
}
);
layerId = "3DC573FB-EF22-4F14-BBA7-D097D7391B70";
shapes = (
{
closed = 1;
nodes = (
(431,0,l),
(658,700,l),
(459,700,l),
(276,0,l)
);
},
{
closed = 1;
nodes = (
(379,0,l),
(196,700,l),
(-3,700,l),
(224,0,l)
);
}
);
width = 655;
},
{
anchors = (
{
name = bottom;
pos = (328,-20);
},
{
name = top;
pos = (328,719);
}
);
layerId = "48315E7A-EC54-430B-915E-ECFED2D8F863";
shapes = (
{
closed = 1;
nodes = (
(421,0,l),
(648,700,l),
(474,700,l),
(283,0,l)
);
},
{
closed = 1;
nodes = (
(372,0,l),
(181,700,l),
(7,700,l),
(234,0,l)
);
}
);
width = 655;
},
{
anchors = (
{
name = bottom;
pos = (328,-20);
},
{
name = top;
pos = (328,719);
}
);
layerId = "87250A93-E16C-45E7-81EC-EDE6CBCB21F2";
shapes = (
{
closed = 1;
nodes = (
(411,0,l),
(638,700,l),
(485,700,l),
(287,0,l)
);
},
{
closed = 1;
nodes = (
(368,0,l),
(170,700,l),
(17,700,l),
(244,0,l)
);
}
);
width = 655;
},
{
anchors = (
{
name = bottom;
pos = (328,-20);
},
{
name = top;
pos = (328,719);
}
);
layerId = "C3B1342C-4554-42D4-BF1D-4BC45B7A32A8";
shapes = (
{
closed = 1;
nodes = (
(406,0,l),
(633,700,l),
(507,700,l),
(298,0,l)
);
},
{
closed = 1;
nodes = (
(357,0,l),
(148,700,l),
(22,700,l),
(249,0,l)
);
}
);
width = 655;
},
{
anchors = (
{
name = bottom;
pos = (328,-20);
},
{
name = top;
pos = (328,719);
}
);
layerId = "966EEAD7-910A-41B6-BB10-BC7C26207015";
shapes = (
{
closed = 1;
nodes = (
(396,0,l),
(623,700,l),
(527,700,l),
(313,0,l)
);
},
{
closed = 1;
nodes = (
(342,0,l),
(128,700,l),
(32,700,l),
(259,0,l)
);
}
);
width = 655;
},
{
anchors = (
{
name = bottom;
pos = (328,-20);
},
{
name = top;
pos = (328,719);
}
);
layerId = "15700EBA-52AC-4D6B-A2D3-7F45C26CE079";
shapes = (
{
closed = 1;
nodes = (
(386,0,l),
(613,700,l),
(550,700,l),
(323,0,l)
);
},
{
closed = 1;
nodes = (
(332,0,l),
(105,700,l),
(42,700,l),
(269,0,l)
);
}
);
width = 655;
}
);
unicode = 86;
},
{
color = 6;
glyphname = W;
kernLeft = V1;
kernRight = V;
lastChange = "2024-07-04 14:20:28 +0000";
layers = (
{
anchors = (
{
name = bottom;
pos = (480,-20);
},
{
name = top;
pos = (480,719);
}
);
layerId = "3DC573FB-EF22-4F14-BBA7-D097D7391B70";
shapes = (
{
closed = 1;
nodes = (
(772,0,l),
(973,700,l),
(775,700,l),
(615,0,l)
);
},
{
closed = 1;
nodes = (
(346,0,l),
(186,700,l),
(-12,700,l),
(189,0,l)
);
},
{
closed = 1;
nodes = (
(381,0,l),
(546,700,l),
(392,700,l),
(232,0,l)
);
},
{
closed = 1;
nodes = (
(729,0,l),
(569,700,l),
(415,700,l),
(580,0,l)
);
}
);
width = 960;
},
{
anchors = (
{
name = bottom;
pos = (480,-20);
},
{
name = top;
pos = (480,719);
}
);
layerId = "48315E7A-EC54-430B-915E-ECFED2D8F863";
shapes = (
{
closed = 1;
nodes = (
(758,0,l),
(959,700,l),
(786,700,l),
(621,0,l)
);
},
{
closed = 1;
nodes = (
(340,0,l),
(175,700,l),
(2,700,l),
(203,0,l)
);
},
{
closed = 1;
nodes = (
(371,0,l),
(536,700,l),
(402,700,l),
(237,0,l)
);
},
{
closed = 1;
nodes = (
(724,0,l),
(559,700,l),
(425,700,l),
(590,0,l)
);
}
);
width = 960;
},
{
anchors = (
{
name = bottom;
pos = (480,-20);
},
{
name = top;
pos = (480,719);
}
);
layerId = "87250A93-E16C-45E7-81EC-EDE6CBCB21F2";
shapes = (
{
closed = 1;
nodes = (
(748,0,l),
(949,700,l),
(797,700,l),
(632,0,l)
);
},
{
closed = 1;
nodes = (
(329,0,l),
(164,700,l),
(12,700,l),
(213,0,l)
);
},
{
closed = 1;
nodes = (
(361,0,l),
(530,700,l),
(412,700,l),
(247,0,l)
);
},
{
closed = 1;
nodes = (
(714,0,l),
(549,700,l),
(429,700,l),
(600,0,l)
);
}
);
width = 960;
},
{
anchors = (
{
name = bottom;
pos = (480,-20);
},
{
name = top;
pos = (480,719);
}
);
layerId = "C3B1342C-4554-42D4-BF1D-4BC45B7A32A8";
shapes = (
{
closed = 1;
nodes = (
(743,0,l),
(944,700,l),
(819,700,l),
(644,0,l)
);
},
{
closed = 1;
nodes = (
(317,0,l),
(142,700,l),
(17,700,l),
(218,0,l)
);
},
{
closed = 1;
nodes = (
(351,0,l),
(515,700,l),
(432,700,l),
(257,0,l)
);
},
{
closed = 1;
nodes = (
(704,0,l),
(529,700,l),
(446,700,l),
(610,0,l)
);
}
);
width = 960;
},
{
anchors = (
{
name = bottom;
pos = (480,-20);
},
{
name = top;
pos = (480,719);
}
);
layerId = "966EEAD7-910A-41B6-BB10-BC7C26207015";
shapes = (
{
closed = 1;
nodes = (
(733,0,l),
(934,700,l),
(839,700,l),
(657,0,l)
);
},
{
closed = 1;
nodes = (
(304,0,l),
(122,700,l),
(27,700,l),
(228,0,l)
);
},
{
closed = 1;
nodes = (
(341,0,l),
(501,700,l),
(442,700,l),
(272,0,l)
);
},
{
closed = 1;
nodes = (
(689,0,l),
(519,700,l),
(460,700,l),
(620,0,l)
);
}
);
width = 960;
},
{
anchors = (
{
name = bottom;
pos = (480,-20);
},
{
name = top;
pos = (480,719);
}
);
layerId = "15700EBA-52AC-4D6B-A2D3-7F45C26CE079";
shapes = (
{
closed = 1;
nodes = (
(723,0,l),
(924,700,l),
(862,700,l),
(666,0,l)
);
},
{
closed = 1;
nodes = (
(295,0,l),
(99,700,l),
(37,700,l),
(238,0,l)
);
},
{
closed = 1;
nodes = (
(326,0,l),
(487,700,l),
(442,700,l),
(272,0,l)
);
},
{
closed = 1;
nodes = (
(689,0,l),
(519,700,l),
(474,700,l),
(635,0,l)
);
}
);
width = 960;
}
);
unicode = 87;
},
{
color = 6;
glyphname = X;
kernLeft = X;
kernRight = K;
lastChange = "2024-07-04 14:20:28 +0000";
layers = (
{
anchors = (
{
name = bottom;
pos = (324,-20);
},
{
name = top;
pos = (324,719);
}
);
associatedMasterId = "15700EBA-52AC-4D6B-A2D3-7F45C26CE079";
layerId = "526B3205-964B-43ED-A08E-E7641FE0513C";
name = "#instance";
shapes = (
{
closed = 1;
nodes = (
(48,0,l),
(119,0,l),
(324,341,l),
(529,0,l),
(600,0,l),
(387,354,l),
(595,700,l),
(522,700,l),
(324,370,l),
(126,700,l),
(53,700,l),
(261,354,l)
);
}
);
width = 648;
},
{
anchors = (
{
name = bottom;
pos = (324,-20);
},
{
name = top;
pos = (324,719);
}
);
layerId = "3DC573FB-EF22-4F14-BBA7-D097D7391B70";
shapes = (
{
closed = 1;
nodes = (
(221,0,l),
(325,188,l),
(429,0,l),
(649,0,l),
(436,354,l),
(644,700,l),
(425,700,l),
(324,518,l),
(223,700,l),
(3,700,l),
(211,354,l),
(-2,0,l)
);
}
);
width = 648;
},
{
anchors = (
{
name = bottom;
pos = (324,-20);
},
{
name = top;
pos = (324,719);
}
);
layerId = "48315E7A-EC54-430B-915E-ECFED2D8F863";
shapes = (
{
closed = 1;
nodes = (
(204,0,l),
(325,218,l),
(446,0,l),
(641,0,l),
(428,354,l),
(636,700,l),
(441,700,l),
(324,489,l),
(207,700,l),
(11,700,l),
(221,351,l),
(10,0,l)
);
}
);
width = 648;
},
{
anchors = (
{
name = bottom;
pos = (324,-20);
},
{
name = top;
pos = (324,719);
}
);
layerId = "87250A93-E16C-45E7-81EC-EDE6CBCB21F2";
shapes = (
{
closed = 1;
nodes = (
(191,0,l),
(325,242,l),
(459,0,l),
(630,0,l),
(417,354,l),
(625,700,l),
(455,700,l),
(324,464,l),
(193,700,l),
(24,700,l),
(232,354,l),
(19,0,l)
);
}
);
width = 648;
},
{
anchors = (
{
name = bottom;
pos = (324,-20);
},
{
name = top;
pos = (324,719);
}
);
layerId = "C3B1342C-4554-42D4-BF1D-4BC45B7A32A8";
shapes = (
{
closed = 1;
nodes = (
(167,0,l),
(325,285,l),
(483,0,l),
(624,0,l),
(411,354,l),
(619,700,l),
(480,700,l),
(325,420,l),
(170,700,l),
(30,700,l),
(238,354,l),
(25,0,l)
);
}
);
width = 648;
},
{
anchors = (
{
name = bottom;
pos = (324,-20);
},
{
name = top;
pos = (324,719);
}
);
layerId = "966EEAD7-910A-41B6-BB10-BC7C26207015";
shapes = (
{
closed = 1;
nodes = (
(139,0,l),
(324,321,l),
(509,0,l),
(614,0,l),
(401,354,l),
(609,700,l),
(504,700,l),
(325,390,l),
(146,700,l),
(40,700,l),
(248,354,l),
(35,0,l)
);
}
);
width = 648;
},
{
anchors = (
{
name = bottom;
pos = (324,-20);
},
{
name = top;
pos = (324,719);
}
);
layerId = "15700EBA-52AC-4D6B-A2D3-7F45C26CE079";
shapes = (
{
closed = 1;
nodes = (
(119,0,l),
(324,341,l),
(529,0,l),
(600,0,l),
(387,354,l),
(595,700,l),
(522,700,l),
(324,370,l),
(126,700,l),
(53,700,l),
(261,354,l),
(48,0,l)
);
}
);
width = 648;
}
);
unicode = 88;
},
{
color = 6;
glyphname = Y;
kernLeft = Y1;
kernRight = Y;
lastChange = "2024-07-04 14:20:28 +0000";
layers = (
{
anchors = (
{
name = bottom;
pos = (329,-20);
},
{
name = top;
pos = (331,719);
},
{
name = topgr;
pos = (-50,500);
}
);
associatedMasterId = "15700EBA-52AC-4D6B-A2D3-7F45C26CE079";
layerId = "526B3205-964B-43ED-A08E-E7641FE0513C";
name = "#instance";
shapes = (
{
closed = 1;
nodes = (
(301,0,l,{
name = ab01;
}),
(361,0,l),
(361,295,l,{
name = iv04;
}),
(614,700,l,{
name = at01;
}),
(542,700,l),
(331,349,l,{
name = iv05;
}),
(120,700,l,{
name = at02;
}),
(48,700,l),
(301,295,l,{
name = iv01;
})
);
}
);
width = 662;
},
{
anchors = (
{
name = bottom;
pos = (331,-20);
},
{
name = top;
pos = (331,719);
},
{
name = topgr;
pos = (-115,500);
}
);
layerId = "3DC573FB-EF22-4F14-BBA7-D097D7391B70";
shapes = (
{
closed = 1;
nodes = (
(425,0,l),
(425,279,l),
(658,700,l),
(446,700,l),
(335,472,l),
(219,700,l),
(2,700,l),
(235,279,l),
(235,0,l)
);
}
);
width = 662;
},
{
anchors = (
{
name = bottom;
pos = (331,-20);
},
{
name = top;
pos = (331,719);
},
{
name = topgr;
pos = (-95,500);
}
);
layerId = "48315E7A-EC54-430B-915E-ECFED2D8F863";
shapes = (
{
closed = 1;
nodes = (
(414,0,l),
(414,284,l),
(654,700,l),
(466,700,l),
(334,442,l),
(199,700,l),
(8,700,l),
(248,284,l),
(248,0,l)
);
}
);
width = 662;
},
{
anchors = (
{
name = bottom;
pos = (331,-20);
},
{
name = top;
pos = (331,719);
},
{
name = topgr;
pos = (-85,500);
}
);
layerId = "87250A93-E16C-45E7-81EC-EDE6CBCB21F2";
shapes = (
{
closed = 1;
nodes = (
(404,0,l),
(404,285,l,{
name = iv04;
}),
(644,700,l,{
name = at01;
}),
(479,700,l),
(334,427,l,{
name = iv05;
}),
(186,700,l,{
name = at02;
}),
(18,700,l),
(258,285,l,{
name = iv01;
}),
(258,0,l,{
name = ab01;
})
);
}
);
width = 662;
},
{
anchors = (
{
name = bottom;
pos = (331,-20);
},
{
name = top;
pos = (331,719);
},
{
name = topgr;
pos = (-75,500);
}
);
layerId = "C3B1342C-4554-42D4-BF1D-4BC45B7A32A8";
shapes = (
{
closed = 1;
nodes = (
(391,0,l),
(391,295,l,{
name = iv04;
}),
(634,700,l,{
name = at01;
}),
(497,700,l),
(334,418,l,{
name = iv05;
}),
(168,700,l,{
name = at02;
}),
(28,700,l),
(271,295,l,{
name = iv01;
}),
(271,0,l,{
name = ab01;
})
);
}
);
width = 662;
},
{
anchors = (
{
name = bottom;
pos = (331,-20);
},
{
name = top;
pos = (331,719);
},
{
name = topgr;
pos = (-60,500);
}
);
layerId = "966EEAD7-910A-41B6-BB10-BC7C26207015";
shapes = (
{
closed = 1;
nodes = (
(381,0,l),
(381,296,l,{
name = iv04;
}),
(624,700,l,{
name = at01;
}),
(507,700,l),
(331,395,l,{
name = iv05;
}),
(155,700,l,{
name = at02;
}),
(38,700,l),
(281,296,l,{
name = iv01;
}),
(281,0,l,{
name = ab01;
})
);
}
);
width = 662;
},
{
anchors = (
{
name = bottom;
pos = (329,-20);
},
{
name = top;
pos = (331,719);
},
{
name = topgr;
pos = (-50,500);
}
);
layerId = "15700EBA-52AC-4D6B-A2D3-7F45C26CE079";
shapes = (
{
closed = 1;
nodes = (
(361,0,l),
(361,295,l,{
name = iv04;
}),
(614,700,l,{
name = at01;
}),
(542,700,l),
(331,349,l,{
name = iv05;
}),
(120,700,l,{
name = at02;
}),
(48,700,l),
(301,295,l,{
name = iv01;
}),
(301,0,l,{
name = ab01;
})
);
}
);
width = 662;
}
);
unicode = 89;
},
{
color = 6;
glyphname = Z;
kernLeft = Z1;
kernRight = Z;
lastChange = "2024-07-04 14:20:28 +0000";
layers = (
{
anchors = (
{
name = bottom;
pos = (290,-20);
},
{
name = top;
pos = (300,719);
}
);
associatedMasterId = "15700EBA-52AC-4D6B-A2D3-7F45C26CE079";
layerId = "526B3205-964B-43ED-A08E-E7641FE0513C";
name = "#instance";
shapes = (
{
closed = 1;
nodes = (
(51,0,l,{
name = ab01;
}),
(529,0,l),
(529,54,l,{
name = sv01;
}),
(122,54,l),
(527,651,l),
(527,700,l,{
name = at01;
}),
(79,700,l),
(79,646,l,{
name = sv02;
}),
(456,646,l),
(51,49,l)
);
}
);
width = 577;
},
{
anchors = (
{
name = bottom;
pos = (290,-20);
},
{
name = top;
pos = (300,719);
}
);
layerId = "3DC573FB-EF22-4F14-BBA7-D097D7391B70";
shapes = (
{
closed = 1;
nodes = (
(560,0,l),
(560,140,l),
(227,140,l),
(558,570,l),
(558,700,l),
(48,700,l),
(48,560,l),
(351,560,l),
(20,130,l),
(20,0,l)
);
}
);
width = 577;
},
{
anchors = (
{
name = bottom;
pos = (290,-20);
},
{
name = top;
pos = (300,719);
}
);
layerId = "48315E7A-EC54-430B-915E-ECFED2D8F863";
shapes = (
{
closed = 1;
nodes = (
(560,0,l),
(560,130,l),
(211,130,l),
(558,580,l),
(558,700,l),
(48,700,l),
(48,570,l),
(367,570,l),
(20,120,l),
(20,0,l)
);
}
);
width = 577;
},
{
anchors = (
{
name = bottom;
pos = (290,-20);
},
{
name = top;
pos = (300,719);
}
);
layerId = "87250A93-E16C-45E7-81EC-EDE6CBCB21F2";
shapes = (
{
closed = 1;
nodes = (
(560,0,l),
(560,120,l,{
name = sv01;
}),
(194,120,l),
(558,590,l),
(558,700,l,{
name = at01;
}),
(48,700,l),
(48,580,l,{
name = sv02;
}),
(384,580,l),
(20,110,l),
(20,0,l,{
name = ab01;
})
);
}
);
width = 577;
},
{
anchors = (
{
name = bottom;
pos = (287,-20);
},
{
name = top;
pos = (297,719);
}
);
layerId = "C3B1342C-4554-42D4-BF1D-4BC45B7A32A8";
shapes = (
{
closed = 1;
nodes = (
(547,0,l),
(547,100,l,{
name = sv01;
}),
(168,100,l),
(545,605,l),
(545,700,l,{
name = at01;
}),
(55,700,l),
(55,600,l,{
name = sv02;
}),
(404,600,l),
(27,95,l),
(27,0,l,{
name = ab01;
})
);
}
);
width = 577;
},
{
anchors = (
{
name = bottom;
pos = (287,-20);
},
{
name = top;
pos = (297,719);
}
);
layerId = "966EEAD7-910A-41B6-BB10-BC7C26207015";
shapes = (
{
closed = 1;
nodes = (
(536,0,l),
(536,80,l,{
name = sv01;
}),
(143,80,l),
(534,625,l),
(534,700,l,{
name = at01;
}),
(66,700,l),
(66,620,l,{
name = sv02;
}),
(429,620,l),
(38,75,l),
(38,0,l,{
name = ab01;
})
);
}
);
width = 577;
},
{
anchors = (
{
name = bottom;
pos = (290,-20);
},
{
name = top;
pos = (300,719);
}
);
layerId = "15700EBA-52AC-4D6B-A2D3-7F45C26CE079";
shapes = (
{
closed = 1;
nodes = (
(529,0,l),
(529,54,l,{
name = sv01;
}),
(122,54,l),
(527,651,l),
(527,700,l,{
name = at01;
}),
(79,700,l),
(79,646,l,{
name = sv02;
}),
(456,646,l),
(51,49,l),
(51,0,l,{
name = ab01;
})
);
}
);
width = 577;
}
);
unicode = 90;
},
{
color = 6;
glyphname = M.ss01;
kernLeft = B;
kernRight = H;
lastChange = "2024-07-04 14:20:28 +0000";
layers = (
{
anchors = (
{
name = bottom;
pos = (425,-20);
},
{
name = top;
pos = (425,719);
}
);
layerId = "3DC573FB-EF22-4F14-BBA7-D097D7391B70";
shapes = (
{
closed = 1;
nodes = (
(248,0,l),
(248,398,l),
(406,124,l),
(444,124,l),
(602,398,l),
(602,0,l),
(792,0,l),
(792,700,l),
(612,700,l),
(425,376,l),
(238,700,l),
(58,700,l),
(58,0,l)
);
}
);
width = 850;
},
{
anchors = (
{
name = bottom;
pos = (425,-20);
},
{
name = top;
pos = (425,719);
}
);
layerId = "48315E7A-EC54-430B-915E-ECFED2D8F863";
shapes = (
{
closed = 1;
nodes = (
(222,0,l),
(222,427,l),
(403,137,l),
(447,137,l),
(628,427,l),
(628,0,l),
(793,0,l),
(793,700,l),
(638,700,l),
(425,359,l),
(212,700,l),
(57,700,l),
(57,0,l)
);
}
);
width = 850;
},
{
anchors = (
{
name = bottom;
pos = (425,-20);
},
{
name = top;
pos = (425,719);
}
);
layerId = "87250A93-E16C-45E7-81EC-EDE6CBCB21F2";
shapes = (
{
closed = 1;
nodes = (
(212,0,l),
(212,450,l,{
name = iv02;
}),
(401,147,l),
(449,147,l),
(638,450,l,{
name = iv03;
}),
(638,0,l,{
name = ab02;
}),
(783,0,l),
(783,700,l,{
name = at02;
}),
(648,700,l),
(425,343,l,{
name = iv01;
}),
(202,700,l,{
name = at01;
}),
(67,700,l),
(67,0,l,{
name = ab01;
})
);
}
);
width = 850;
},
{
anchors = (
{
name = bottom;
pos = (425,-20);
},
{
name = top;
pos = (425,719);
}
);
layerId = "C3B1342C-4554-42D4-BF1D-4BC45B7A32A8";
shapes = (
{
closed = 1;
nodes = (
(197,0,l),
(197,483,l,{
name = iv02;
}),
(389,164,l),
(461,164,l),
(653,483,l,{
name = iv03;
}),
(653,0,l,{
name = ab02;
}),
(773,0,l),
(773,700,l,{
name = at02;
}),
(663,700,l),
(425,304,l,{
name = iv01;
}),
(187,700,l,{
name = at01;
}),
(77,700,l),
(77,0,l,{
name = ab01;
})
);
}
);
width = 850;
},
{
anchors = (
{
name = bottom;
pos = (425,-20);
},
{
name = top;
pos = (425,719);
}
);
layerId = "966EEAD7-910A-41B6-BB10-BC7C26207015";
shapes = (
{
closed = 1;
nodes = (
(177,0,l),
(177,533,l,{
name = iv02;
}),
(382,178,l),
(468,178,l),
(673,533,l,{
name = iv03;
}),
(673,0,l,{
name = ab02;
}),
(763,0,l),
(763,700,l,{
name = at02;
}),
(676,700,l),
(425,266,l,{
name = iv01;
}),
(174,700,l,{
name = at01;
}),
(87,700,l),
(87,0,l,{
name = ab01;
})
);
}
);
width = 850;
},
{
anchors = (
{
name = bottom;
pos = (425,-20);
},
{
name = top;
pos = (425,719);
}
);
layerId = "15700EBA-52AC-4D6B-A2D3-7F45C26CE079";
shapes = (
{
closed = 1;
nodes = (
(157,0,l),
(157,587,l,{
name = iv02;
}),
(391,182,l),
(459,182,l),
(693,587,l,{
name = iv03;
}),
(693,0,l,{
name = ab02;
}),
(753,0,l),
(753,700,l,{
name = at02;
}),
(696,700,l),
(425,231,l,{
name = iv01;
}),
(154,700,l,{
name = at01;
}),
(97,700,l),
(97,0,l,{
name = ab01;
})
);
}
);
width = 850;
}
);
},
{
color = 6;
glyphname = G.ss03;
kernLeft = C1;
kernRight = C;
lastChange = "2024-07-04 14:33:30 +0000";
layers = (
{
anchors = (
{
name = bottom;
pos = (388,-19);
},
{
name = top;
pos = (377,719);
}
);
layerId = "3DC573FB-EF22-4F14-BBA7-D097D7391B70";
shapes = (
{
closed = 1;
nodes = (
(590,-20,o),
(730,118.662,o),
(730,320.17,cs),
(730,390,l),
(371,390,l),
(371,260,l),
(532,260,l),
(532,185.468,o),
(482,120,o),
(399,120,cs),
(286,120,o),
(214,209.389,o),
(214,348.996,cs),
(214,496.638,o),
(281,580,o),
(399,580,cs),
(498,580,o),
(564,534.727,o),
(638,414,c),
(683,578,l),
(616,664,o),
(510,720,o),
(377,720,cs),
(169,720,o),
(23,558,o),
(23,348,cs),
(23,135,o),
(176,-20,o),
(386,-20,cs)
);
}
);
width = 753;
},
{
anchors = (
{
name = bottom;
pos = (388,-19);
},
{
name = top;
pos = (377,719);
}
);
layerId = "48315E7A-EC54-430B-915E-ECFED2D8F863";
shapes = (
{
closed = 1;
nodes = (
(587,-20,o),
(725,119.655,o),
(725,324.15,cs),
(725,385,l),
(371,385,l),
(371,265,l),
(553,265,l),
(553,178,o),
(495,111,o),
(399,111,cs),
(276,111,o),
(195,198,o),
(195,351,cs),
(195,505,o),
(265,589,o),
(395,589,cs),
(498,589,o),
(561,544,o),
(633,424,c),
(678,583,l),
(613,666,o),
(510,720,o),
(379,720,cs),
(169,720,o),
(28,561,o),
(28,348,cs),
(28,139,o),
(183,-20,o),
(386,-20,cs)
);
}
);
width = 753;
},
{
anchors = (
{
name = bottom;
pos = (389,-19);
},
{
name = top;
pos = (377,719);
}
);
layerId = "87250A93-E16C-45E7-81EC-EDE6CBCB21F2";
shapes = (
{
closed = 1;
nodes = (
(590,-20,o),
(720,120.351,o),
(720,324.862,cs),
(720,380,l),
(370,380,l),
(370,270,l),
(575,270,l),
(575,159.349,o),
(499,100,o),
(390,100,cs),
(257,100,o),
(180,200.402,o),
(180,351.004,cs),
(180,507.631,o),
(257,600,o),
(389,600,cs),
(485,600,o),
(554,563.766,o),
(634,445,c),
(673,583,l),
(604,672,o),
(507,720,o),
(386,720,cs),
(173,720,o),
(33,573,o),
(33,348,cs),
(33,132,o),
(179,-20,o),
(386,-20,cs)
);
}
);
width = 753;
},
{
anchors = (
{
name = bottom;
pos = (388,-19);
},
{
name = top;
pos = (377,719);
}
);
layerId = "C3B1342C-4554-42D4-BF1D-4BC45B7A32A8";
shapes = (
{
closed = 1;
nodes = (
(584,-20,o),
(710,119,o),
(710,321,cs,{
name = sv03;
}),
(710,375,l,{
name = sv01;
}),
(370,375,l,{
name = dv06;
}),
(370,280,l,{
name = dv05;
}),
(587,280,l,{
name = sv02;
}),
(587,158,o),
(506,80,o),
(388,80,cs,{
name = dv04;
}),
(262,80,o),
(163,176.357,o),
(163,351.004,cs,{
name = dv07;
}),
(163,518.625,o),
(249,620,o),
(382,620,cs),
(488,620,o),
(550,579.74,o),
(624,465,c),
(663,593,l),
(594,677,o),
(499,720,o),
(380,720,cs),
(168,720,o),
(43,561,o),
(43,348,cs,{
name = dv08;
}),
(43,132,o),
(185,-20,o),
(386,-20,cs,{
name = dv03;
})
);
}
);
width = 753;
},
{
anchors = (
{
name = bottom;
pos = (387,-19);
},
{
name = top;
pos = (377,719);
}
);
layerId = "966EEAD7-910A-41B6-BB10-BC7C26207015";
shapes = (
{
closed = 1;
nodes = (
(578,-20,o),
(700,117.352,o),
(700,316.864,cs,{
name = sv03;
}),
(700,370,l,{
name = sv01;
}),
(370,370,l,{
name = dv06;
}),
(370,290,l,{
name = dv05;
}),
(610,290,l,{
name = sv02;
}),
(610,156,o),
(522,60,o),
(392,60,cs,{
name = dv04;
}),
(252,60,o),
(143,164.36,o),
(143,351.003,cs,{
name = dv07;
}),
(143,530.623,o),
(245,640,o),
(379,640,cs),
(464,640,o),
(545,618.85,o),
(617,499,c),
(653,603,l),
(585,680,o),
(494,720,o),
(379,720,cs),
(174,720,o),
(53,561,o),
(53,348,cs,{
name = dv08;
}),
(53,132,o),
(191,-20,o),
(386,-20,cs,{
name = dv03;
})
);
}
);
width = 753;
},
{
anchors = (
{
name = bottom;
pos = (389,-19);
},
{
name = top;
pos = (377,719);
}
);
layerId = "15700EBA-52AC-4D6B-A2D3-7F45C26CE079";
shapes = (
{
closed = 1;
nodes = (
(572,-20,o),
(690,117,o),
(690,316,cs,{
name = sv03;
}),
(690,359,l,{
name = sv01;
}),
(370,359,l,{
name = dv06;
}),
(370,309,l,{
name = dv05;
}),
(629,309,l,{
name = sv02;
}),
(629,119,o),
(516,35,o),
(386,35,cs,{
name = dv04;
}),
(236,35,o),
(123,145,o),
(123,351,cs,{
name = dv07;
}),
(123,550,o),
(227,665,o),
(378,665,cs),
(455,665,o),
(549,646,o),
(620,537,c),
(643,603,l),
(575,682,o),
(478,720,o),
(378,720,cs),
(170,720,o),
(63,561,o),
(63,348,cs,{
name = dv08;
}),
(63,132,o),
(197,-20,o),
(386,-20,cs,{
name = dv03;
})
);
}
);
width = 753;
}
);
},
{
color = 6;
glyphname = Q.ss06;
kernLeft = C1;
kernRight = C;
lastChange = "2024-07-04 14:33:30 +0000";
layers = (
{
anchors = (
{
name = bottom;
pos = (388,-20);
},
{
name = ogonek;
pos = (512,-2);
},
{
name = top;
pos = (388,719);
}
);
layerId = "3DC573FB-EF22-4F14-BBA7-D097D7391B70";
shapes = (
{
closed = 1;
nodes = (
(604,-20,o),
(752,125,o),
(752,350,cs),
(752,568,o),
(608,720,o),
(388,720,cs),
(168,720,o),
(23,569,o),
(23,350,cs),
(23,127,o),
(171,-20,o),
(387,-20,cs)
);
},
{
closed = 1;
nodes = (
(706.503,-19,l),
(620.142,-19,o),
(600.996,40.179,o),
(581.601,100.128,cs),
(561.695,161.658,o),
(541.525,224,o),
(448.148,224,cs),
(358.503,224,o),
(306.503,176,o),
(285.503,129,c),
(293.503,121,l),
(324.503,154,o),
(349.503,162,o),
(367.982,162,cs),
(409.147,162,o),
(424.526,116.652,o),
(443.724,60.045,cs),
(475.604,-33.954,o),
(518.013,-159,o),
(706.503,-159,c)
);
},
{
closed = 1;
nodes = (
(280.251,124,o),
(216,210.847,o),
(216,352.961,cs),
(216,496.061,o),
(276.297,576,o),
(385.029,576,cs),
(495.738,576,o),
(559,491.127,o),
(559,346.052,cs),
(559,202.952,o),
(498.703,124,o),
(388.983,124,cs)
);
}
);
width = 775;
},
{
anchors = (
{
name = bottom;
pos = (388,-20);
},
{
name = ogonek;
pos = (512,-1);
},
{
name = top;
pos = (388,719);
}
);
layerId = "48315E7A-EC54-430B-915E-ECFED2D8F863";
shapes = (
{
closed = 1;
nodes = (
(611,-20,o),
(747,144,o),
(747,350,cs),
(747,557,o),
(606,720,o),
(388,720,cs),
(170,720,o),
(28,560,o),
(28,350,cs),
(28,142,o),
(168,-20,o),
(387,-20,cs)
);
},
{
closed = 1;
nodes = (
(696,-20,l),
(616.93,-20,o),
(595.982,35.064,o),
(574.411,91.77,cs),
(551.513,151.96,o),
(527.913,214,o),
(433.35,214,cs),
(342,214,o),
(310,166,o),
(289,119,c),
(296,115,l),
(314,157,o),
(341,172,o),
(363.677,172,cs),
(400.262,172,o),
(416.865,127.419,o),
(437.716,71.433,cs),
(472.903,-23.044,o),
(520.185,-150,o),
(696,-150,c)
);
},
{
closed = 1;
nodes = (
(271.605,111,o),
(196,210,o),
(196,353,cs),
(196,498,o),
(265.636,589,o),
(385.013,589,cs),
(505.384,589,o),
(579,493,o),
(579,346,cs),
(579,204,o),
(507.374,111,o),
(388.992,111,cs)
);
}
);
width = 775;
},
{
anchors = (
{
name = bottom;
pos = (388,-20);
},
{
name = ogonek;
pos = (518,-1);
},
{
name = top;
pos = (388,719);
}
);
layerId = "87250A93-E16C-45E7-81EC-EDE6CBCB21F2";
shapes = (
{
closed = 1;
nodes = (
(611,-20,o),
(742,124,o),
(742,350,cs,{
name = dv06;
}),
(742,567,o),
(606,720,o),
(388,720,cs,{
name = dv04;
}),
(170,720,o),
(33,570,o),
(33,350,cs),
(33,122,o),
(168,-20,o),
(387,-20,cs,{
name = dv01;
})
);
},
{
closed = 1;
nodes = (
(686,-21,l),
(596.74,-21,o),
(578.055,35.558,o),
(559.216,92.581,cs),
(540.065,150.55,o),
(520.755,209,o),
(426.98,209,cs),
(342,209,o),
(310,161,o),
(289,114,c),
(296,110,l),
(314,152,o),
(341,177,o),
(368.592,177,cs),
(405.595,177,o),
(421.332,132.039,o),
(440.971,75.929,cs),
(473.562,-17.184,o),
(516.9,-141,o),
(686,-141,c)
);
},
{
closed = 1;
nodes = (
(268.156,104,o),
(181,189.952,o),
(181,352.964,cs),
(181,510.048,o),
(262.213,596,o),
(385.024,596,cs,{
name = dv03;
}),
(508.825,596,o),
(594,504.12,o),
(594,346.048,cs,{
name = dv05;
}),
(594,183.036,o),
(510.806,104,o),
(388.986,104,cs,{
name = dv02;
})
);
}
);
width = 775;
},
{
anchors = (
{
name = bottom;
pos = (388,-20);
},
{
name = ogonek;
pos = (513,-1);
},
{
name = top;
pos = (388,719);
}
);
layerId = "C3B1342C-4554-42D4-BF1D-4BC45B7A32A8";
shapes = (
{
closed = 1;
nodes = (
(589,-20,o),
(732,107,o),
(732,350,cs,{
name = dv06;
}),
(732,575,o),
(602,720,o),
(388,720,cs,{
name = dv04;
}),
(182,720,o),
(43,586,o),
(43,350,cs),
(43,109,o),
(186,-20,o),
(387,-20,cs,{
name = dv01;
})
);
},
{
closed = 1;
nodes = (
(675.442,-32.329,l),
(596.708,-32.329,o),
(577.296,23.667,o),
(557.464,80.874,cs),
(536.754,140.612,o),
(515.587,201.671,o),
(425.933,201.671,cs),
(346.442,201.671,o),
(308.405,153.671,o),
(283.442,106.671,c),
(290.442,102.671,l),
(312.442,144.671,o),
(345.442,169.671,o),
(373.595,169.671,cs),
(411.285,169.671,o),
(427.74,124.863,o),
(447.974,69.765,cs),
(480.268,-18.176,o),
(522.189,-132.329,o),
(675.442,-132.329,c)
);
},
{
closed = 1;
nodes = (
(252.45,84,o),
(167,183.84,o),
(167,349.967,cs),
(167,518.071,o),
(245.575,616,o),
(383.08,616,cs,{
name = dv03;
}),
(524.514,616,o),
(608,520.126,o),
(608,350.045,cs,{
name = dv05;
}),
(608,184.907,o),
(527.461,84,o),
(390.938,84,cs,{
name = dv02;
})
);
}
);
width = 775;
},
{
anchors = (
{
name = bottom;
pos = (388,-20);
},
{
name = ogonek;
pos = (514,-1);
},
{
name = top;
pos = (388,719);
}
);
layerId = "966EEAD7-910A-41B6-BB10-BC7C26207015";
shapes = (
{
closed = 1;
nodes = (
(583,-20,o),
(722,107,o),
(722,350,cs,{
name = dv06;
}),
(722,575,o),
(596,720,o),
(388,720,cs,{
name = dv04;
}),
(188,720,o),
(53,586,o),
(53,350,cs),
(53,109,o),
(192,-20,o),
(387,-20,cs,{
name = dv01;
})
);
},
{
closed = 1;
nodes = (
(663.32,-40,l),
(596.744,-40,o),
(577.947,13.147,o),
(558.131,69.177,cs),
(536.041,131.633,o),
(512.685,197.671,o),
(420.472,197.671,cs),
(338.759,197.671,o),
(294.081,140.743,o),
(266.32,85,c),
(273.32,81,l),
(298.144,134.078,o),
(337.495,165.671,o),
(373.595,165.671,cs),
(422.369,165.671,o),
(439.452,117.025,o),
(459.518,59.882,cs),
(488.079,-21.452,o),
(522.685,-120,o),
(663.32,-120,c)
);
},
{
closed = 1;
nodes = (
(233.916,60,o),
(147,158.541,o),
(147,349.512,cs),
(147,531.827,o),
(233.916,640,o),
(384.043,640,cs,{
name = dv03;
}),
(546.023,640,o),
(628,543.671,o),
(628,350.003,cs,{
name = dv05;
}),
(628,170.384,o),
(539.109,60,o),
(389.969,60,cs,{
name = dv02;
})
);
}
);
width = 775;
},
{
anchors = (
{
name = bottom;
pos = (388,-20);
},
{
name = ogonek;
pos = (513,-1);
},
{
name = top;
pos = (388,719);
}
);
layerId = "15700EBA-52AC-4D6B-A2D3-7F45C26CE079";
shapes = (
{
closed = 1;
nodes = (
(577,-20,o),
(712,110,o),
(712,350,cs,{
name = dv06;
}),
(712,578,o),
(590,720,o),
(389,720,cs,{
name = dv04;
}),
(194,720,o),
(63,587,o),
(63,350,cs),
(63,110,o),
(198,-20,o),
(388,-20,cs,{
name = dv01;
})
);
},
{
closed = 1;
nodes = (
(654.061,-45,l),
(583.426,-45,o),
(561.623,12.75,o),
(539.453,71.474,cs),
(516.52,132.216,o),
(493.194,194,o),
(415.029,194,cs),
(318.75,194,o),
(276.167,109.075,o),
(253.518,62.075,c),
(260.518,58.075,l),
(280.193,100.075,o),
(317.497,162,o),
(378.243,162,cs),
(438.49,162,o),
(455.714,109.638,o),
(475.048,50.862,cs),
(499.779,-24.322,o),
(527.962,-110,o),
(654.061,-110,c)
);
},
{
closed = 1;
nodes = (
(221,35,o),
(124,146,o),
(124,350,cs),
(124,548,o),
(220,665,o),
(386,665,cs,{
name = dv03;
}),
(558,665,o),
(651,554,o),
(651,350,cs,{
name = dv05;
}),
(651,153,o),
(550,35,o),
(390,35,cs,{
name = dv02;
})
);
}
);
width = 775;
}
);
},
{
color = 6;
glyphname = J.ss07;
kernLeft = J;
kernRight = J1;
lastChange = "2024-07-04 14:33:30 +0000";
layers = (
{
anchors = (
{
name = bottom;
pos = (152,-109);
},
{
name = top;
pos = (235,719);
}
);
layerId = "3DC573FB-EF22-4F14-BBA7-D097D7391B70";
shapes = (
{
closed = 1;
nodes = (
(245,-144,o),
(330,-61,o),
(330,168,cs),
(329.5,700,l),
(139.5,700,l),
(139.5,154,ls),
(139.5,17,o),
(99,-4,o),
(10,-4,c),
(10,-144,l)
);
}
);
width = 380;
},
{
anchors = (
{
name = bottom;
pos = (154,-89);
},
{
name = top;
pos = (244,719);
}
);
layerId = "48315E7A-EC54-430B-915E-ECFED2D8F863";
shapes = (
{
closed = 1;
nodes = (
(244,-144,o),
(327,-67,o),
(327,148,cs),
(326.5,700,l),
(161.5,700,l),
(161.5,142,ls),
(161.5,16,o),
(115,-14,o),
(10,-14,c),
(10,-144,l)
);
}
);
width = 380;
},
{
anchors = (
{
name = bottom;
pos = (158,-89);
},
{
name = top;
pos = (258,719);
}
);
layerId = "87250A93-E16C-45E7-81EC-EDE6CBCB21F2";
shapes = (
{
closed = 1;
nodes = (
(242,-144,o),
(326,-66,o),
(326,148,cs),
(326,700,l),
(180,700,l),
(180,129,ls),
(180,4,o),
(134,-24,o),
(10,-24,c),
(10,-144,l)
);
}
);
width = 380;
},
{
anchors = (
{
name = bottom;
pos = (160,-79);
},
{
name = top;
pos = (260,719);
}
);
layerId = "C3B1342C-4554-42D4-BF1D-4BC45B7A32A8";
shapes = (
{
closed = 1;
nodes = (
(235,-144,o),
(316,-66,o),
(316,148,cs),
(316,700,l),
(196,700,l),
(196,124,ls),
(196,-5,o),
(145,-44,o),
(10,-44,c),
(10,-144,l)
);
}
);
width = 380;
},
{
anchors = (
{
name = bottom;
pos = (162,-71);
},
{
name = top;
pos = (262,719);
}
);
layerId = "966EEAD7-910A-41B6-BB10-BC7C26207015";
shapes = (
{
closed = 1;
nodes = (
(224,-134,o),
(301,-57,o),
(301,155,cs),
(301,700,l),
(211,700,l),
(211,112,ls),
(211,-16,o),
(155,-54,o),
(10,-54,c),
(10,-134,l)
);
}
);
width = 380;
},
{
anchors = (
{
name = bottom;
pos = (164,-69);
},
{
name = top;
pos = (264,719);
}
);
layerId = "15700EBA-52AC-4D6B-A2D3-7F45C26CE079";
shapes = (
{
closed = 1;
nodes = (
(217,-124,o),
(291,-48,o),
(291,162,cs),
(291,700,l),
(231,700,l),
(231,162,ls),
(231,-22,o),
(180,-70,o),
(10,-70,c),
(10,-124,l)
);
}
);
width = 380;
}
);
},
{
color = 6;
glyphname = Eng.ss07;
kernLeft = B;
kernRight = H;
lastChange = "2024-07-04 14:33:30 +0000";
layers = (
{
anchors = (
{
name = bottom;
pos = (348,-214);
},
{
name = top;
pos = (366,719);
}
);
layerId = "3DC573FB-EF22-4F14-BBA7-D097D7391B70";
shapes = (
{
closed = 1;
nodes = (
(248,0,l),
(248,379,l),
(494,0,l),
(673.75,134.045,l),
(674,700,l),
(484,700,l),
(484,321,l),
(238,700,l),
(58,700,l),
(58,0,l)
);
},
{
closed = 1;
nodes = (
(589,-224,o),
(674.215,-141,o),
(674,88,cs),
(673.5,620,l),
(483.75,620,l),
(483.75,74,ls),
(483.75,-63,o),
(443,-84,o),
(354,-84,c),
(354,-224,l)
);
}
);
width = 732;
},
{
anchors = (
{
name = bottom;
pos = (352,-213);
},
{
name = top;
pos = (366,719);
}
);
layerId = "48315E7A-EC54-430B-915E-ECFED2D8F863";
shapes = (
{
closed = 1;
nodes = (
(222.5,0,l),
(222.5,439,l),
(518.5,0,l),
(675.5,147.644,l),
(675.5,700,l),
(509.5,700,l),
(509.5,261,l),
(213.5,700,l),
(57.5,700,l),
(57.5,0,l)
);
},
{
closed = 1;
nodes = (
(593.131,-234,o),
(676.195,-157,o),
(676,58,cs),
(675.5,610,l),
(511,610,l),
(511,52,ls),
(511,-74,o),
(464.5,-104,o),
(359.5,-104,c),
(359.5,-234,l)
);
}
);
width = 732;
},
{
anchors = (
{
name = bottom;
pos = (356,-224);
},
{
name = top;
pos = (366,719);
}
);
layerId = "87250A93-E16C-45E7-81EC-EDE6CBCB21F2";
shapes = (
{
closed = 1;
nodes = (
(212.5,0,l,{
name = ab01;
}),
(212.5,468,l,{
name = iv01;
}),
(528.5,0,l,{
name = ab02;
}),
(664.5,124.893,l),
(664.5,700,l,{
name = at01;
}),
(519.5,700,l),
(519.5,232,l,{
name = iv02;
}),
(203.5,700,l,{
name = at02;
}),
(67.5,700,l),
(67.5,0,l)
);
},
{
closed = 1;
nodes = (
(581.633,-224,o),
(665.5,-146,o),
(665.5,68,cs),
(665.5,620,l),
(520.5,620,l),
(520.5,49,ls),
(520.5,-76,o),
(474.365,-104,o),
(350,-104,c),
(350,-224,l)
);
}
);
width = 732;
},
{
anchors = (
{
name = bottom;
pos = (363,-214);
},
{
name = top;
pos = (366,719);
}
);
layerId = "C3B1342C-4554-42D4-BF1D-4BC45B7A32A8";
shapes = (
{
closed = 1;
nodes = (
(197,0,l,{
name = ab01;
}),
(197,515,l,{
name = iv01;
}),
(545,0,l,{
name = ab02;
}),
(655,95.157,l),
(655,700,l,{
name = at01;
}),
(535,700,l),
(535,185,l,{
name = iv02;
}),
(187,700,l,{
name = at02;
}),
(77,700,l),
(77,0,l)
);
},
{
closed = 1;
nodes = (
(574,-231,o),
(655,-153,o),
(655,61,cs),
(655,613,l),
(535,613,l),
(535,37,ls),
(535,-92,o),
(484,-131,o),
(349,-131,c),
(349,-231,l)
);
}
);
width = 732;
},
{
anchors = (
{
name = bottom;
pos = (373,-236);
},
{
name = top;
pos = (366,719);
}
);
layerId = "966EEAD7-910A-41B6-BB10-BC7C26207015";
shapes = (
{
closed = 1;
nodes = (
(177,0,l,{
name = ab01;
}),
(177,554,l,{
name = iv01;
}),
(565,0,l,{
name = ab02;
}),
(645,107.677,l),
(645,700,l,{
name = at01;
}),
(555,700,l),
(555,146,l,{
name = iv02;
}),
(167,700,l,{
name = at02;
}),
(87,700,l),
(87,0,l)
);
},
{
closed = 1;
nodes = (
(567.5,-235,o),
(644.5,-158,o),
(644.5,54,cs),
(644.5,599,l),
(554.5,599,l),
(554.5,11,ls),
(554.5,-117,o),
(498.5,-155,o),
(353.5,-155,c),
(353.5,-235,l)
);
}
);
width = 732;
},
{
anchors = (
{
name = bottom;
pos = (380,-221);
},
{
name = top;
pos = (366,719);
}
);
layerId = "15700EBA-52AC-4D6B-A2D3-7F45C26CE079";
shapes = (
{
closed = 1;
nodes = (
(157,0,l,{
name = ab01;
}),
(157,589,l,{
name = iv01;
}),
(585,0,l,{
name = ab02;
}),
(635,211.197,l),
(635,700,l,{
name = at01;
}),
(575,700,l),
(575,111,l,{
name = iv02;
}),
(147,700,l,{
name = at02;
}),
(97,700,l),
(97,0,l)
);
},
{
closed = 1;
nodes = (
(560.5,-221,o),
(634.5,-145,o),
(634.5,65,cs),
(634.5,603,l),
(574.5,603,l),
(574.5,65,ls),
(574.5,-119,o),
(523.5,-167,o),
(353.5,-167,c),
(353.5,-221,l)
);
}
);
width = 732;
}
);
},
{
color = 6;
glyphname = R.ss08;
kernLeft = B;
kernRight = R;
lastChange = "2024-07-04 14:33:30 +0000";
layers = (
{
anchors = (
{
name = bottom;
pos = (323,-20);
},
{
name = top;
pos = (323,719);
}
);
layerId = "3DC573FB-EF22-4F14-BBA7-D097D7391B70";
shapes = (
{
closed = 1;
nodes = (
(248,0,l),
(248,244,l),
(333,244,ls),
(491,244,o),
(592,334,o),
(592,474,cs),
(592,618,o),
(501,700,o),
(340,700,cs),
(58,700,l),
(58,0,l)
);
},
{
closed = 1;
nodes = (
(608,0,l),
(580,66,o),
(598,171,o),
(573,222,cs),
(548,273,o),
(506,287,o),
(410,313,c),
(265,244,l),
(318,242,o),
(369.067,232.028,o),
(390,183,cs),
(407.067,143.028,o),
(390,70,o),
(415,0,c)
);
},
{
closed = 1;
nodes = (
(248,560,l),
(291,560,ls),
(366,560,o),
(401,534,o),
(401,472,cs),
(401,410,o),
(369,384,o),
(291,384,cs),
(248,384,l)
);
}
);
width = 635;
},
{
anchors = (
{
name = bottom;
pos = (323,-20);
},
{
name = top;
pos = (323,719);
}
);
layerId = "48315E7A-EC54-430B-915E-ECFED2D8F863";
shapes = (
{
closed = 1;
nodes = (
(234,0,l),
(234,244,l),
(326,244,ls),
(482,244,o),
(590,337,o),
(590,474,cs),
(590,615,o),
(495,700,o),
(338,700,cs),
(68,700,l),
(68,0,l)
);
},
{
closed = 1;
nodes = (
(605,0,l),
(575,66,o),
(595,171,o),
(570,222,cs),
(545,273,o),
(503,287,o),
(407,313,c),
(286,244,l),
(339,242,o),
(390,232,o),
(411,183,cs),
(428,143,o),
(411,70,o),
(436,0,c)
);
},
{
closed = 1;
nodes = (
(234,570,l),
(294,570,ls),
(387,570,o),
(423,543,o),
(423,469,cs),
(423,398,o),
(388,374,o),
(294,374,cs),
(234,374,l)
);
}
);
width = 635;
},
{
anchors = (
{
name = bottom;
pos = (323,-20);
},
{
name = top;
pos = (323,719);
}
);
layerId = "87250A93-E16C-45E7-81EC-EDE6CBCB21F2";
shapes = (
{
closed = 1;
nodes = (
(214,0,l),
(214,244,l),
(321,244,ls),
(471,244,o),
(580,341,o),
(580,474,cs),
(580,611,o),
(483,700,o),
(333,700,cs),
(68,700,l),
(68,0,l)
);
},
{
closed = 1;
nodes = (
(594,0,l),
(564,66,o),
(584,171,o),
(559,222,cs),
(534,273,o),
(492,286,o),
(396,312,c),
(295,244,l),
(348,242,o),
(399,232,o),
(420,183,cs),
(437,143,o),
(420,70,o),
(445,0,c)
);
},
{
closed = 1;
nodes = (
(214,580,l),
(299,580,ls),
(387,580,o),
(433,542,o),
(433,469,cs),
(433,399,o),
(387,364,o),
(299,364,cs),
(214,364,l)
);
}
);
width = 635;
},
{
anchors = (
{
name = bottom;
pos = (323,-20);
},
{
name = top;
pos = (323,719);
}
);
layerId = "C3B1342C-4554-42D4-BF1D-4BC45B7A32A8";
shapes = (
{
closed = 1;
nodes = (
(198,0,l),
(198,244,l),
(324,244,ls),
(475,244,o),
(566,341,o),
(566,474,cs),
(566,611,o),
(474,700,o),
(330,700,cs),
(78,700,l),
(78,0,l)
);
},
{
closed = 1;
nodes = (
(580,0,l),
(550,66,o),
(570,171,o),
(545,222,cs),
(520,273,o),
(478,287,o),
(382,313,c),
(306,244,l),
(359,242,o),
(411,232,o),
(432,183,cs),
(449,143,o),
(432,70,o),
(457,0,c)
);
},
{
closed = 1;
nodes = (
(198,600,l),
(294,600,ls),
(394,600,o),
(445,555,o),
(445,469,cs),
(445,383,o),
(394,344,o),
(294,344,cs),
(198,344,l)
);
}
);
width = 635;
},
{
anchors = (
{
name = bottom;
pos = (323,-20);
},
{
name = top;
pos = (323,719);
}
);
layerId = "966EEAD7-910A-41B6-BB10-BC7C26207015";
shapes = (
{
closed = 1;
nodes = (
(178,0,l),
(178,254,l),
(310,254,ls),
(461,254,o),
(556,341,o),
(556,479,cs),
(556,611,o),
(465,700,o),
(330,700,cs),
(88,700,l),
(88,0,l)
);
},
{
closed = 1;
nodes = (
(570,0,l),
(540,66,o),
(560,171,o),
(535,222,cs),
(510,273,o),
(468,287,o),
(372,313,c),
(318,254,l),
(393,254,o),
(433,239,o),
(454,190,cs),
(471,150,o),
(454,70,o),
(479,0,c)
);
},
{
closed = 1;
nodes = (
(178,620,l),
(300,620,ls),
(412,620,o),
(465,579,o),
(465,480,cs),
(465,381,o),
(415,334,o),
(300,334,cs),
(178,334,l)
);
}
);
width = 635;
},
{
anchors = (
{
name = bottom;
pos = (323,-20);
},
{
name = top;
pos = (323,719);
}
);
layerId = "15700EBA-52AC-4D6B-A2D3-7F45C26CE079";
shapes = (
{
closed = 1;
nodes = (
(158,0,l),
(158,264,l),
(295,264,l),
(456,282,o),
(546,345,o),
(546,481,cs),
(546,613,o),
(462,700,o),
(330,700,cs),
(98,700,l),
(98,0,l)
);
},
{
closed = 1;
nodes = (
(560,0,l),
(523,67,o),
(550,171,o),
(519,235,cs),
(500,273,o),
(462,299,o),
(361,299,c),
(285,264,l),
(403,264,o),
(448,263,o),
(466,223,cs),
(491,170,o),
(462,67,o),
(499,0,c)
);
},
{
closed = 1;
nodes = (
(158,646,l),
(316,646,ls),
(428,646,o),
(485,592,o),
(485,482,cs),
(485,372,o),
(428,318,o),
(316,318,cs),
(158,318,l)
);
}
);
width = 635;
}
);
},
{
color = 6;
glyphname = C.ss09;
kernLeft = C1;
kernRight = C;
lastChange = "2024-07-04 14:33:30 +0000";
layers = (
{
anchors = (
{
name = bottom;
pos = (397,-19);
},
{
name = top;
pos = (377,719);
}
);
layerId = "3DC573FB-EF22-4F14-BBA7-D097D7391B70";
shapes = (
{
closed = 1;
nodes = (
(578,-20,o),
(698,103,o),
(730,261,c),
(539,261,l),
(517,170,o),
(464,120,o),
(387,120,cs),
(283,120,o),
(214,215.415,o),
(214,356.026,cs),
(214,496.638,o),
(283,580,o),
(393,580,cs),
(460,580,o),
(509,546,o),
(529,485,c),
(720,485,l),
(676,623,o),
(571,720,o),
(390,720,cs),
(173,720,o),
(23,565,o),
(23,357,cs),
(23,146,o),
(177,-20,o),
(392,-20,cs)
);
}
);
width = 753;
},
{
anchors = (
{
name = bottom;
pos = (397,-19);
},
{
name = top;
pos = (377,719);
}
);
layerId = "48315E7A-EC54-430B-915E-ECFED2D8F863";
shapes = (
{
closed = 1;
nodes = (
(575,-20,o),
(693,103,o),
(725,261,c),
(559,261,l),
(547,164,o),
(475,111,o),
(385,111,cs),
(266,111,o),
(195,203,o),
(195,353,cs),
(195,500,o),
(263,589,o),
(389,589,cs),
(473,589,o),
(523,550,o),
(549,485,c),
(715,485,l),
(672,623,o),
(558,720,o),
(389,720,cs),
(176,720,o),
(28,565,o),
(28,357,cs),
(28,146,o),
(180,-20,o),
(392,-20,cs)
);
}
);
width = 753;
},
{
anchors = (
{
name = bottom;
pos = (397,-19);
},
{
name = top;
pos = (377,719);
}
);
layerId = "87250A93-E16C-45E7-81EC-EDE6CBCB21F2";
shapes = (
{
closed = 1;
nodes = (
(556,-20,o),
(682,84,o),
(720,261,c),
(577,261,l),
(561,163.394,o),
(499,100,o),
(391,100,cs),
(256,100,o),
(178,198.394,o),
(178,347.992,cs),
(178,501.606,o),
(260,600,o),
(396,600,cs),
(480,600,o),
(539,562.675,o),
(567,485,c),
(710,485,l),
(662,637,o),
(553,720,o),
(392,720,cs),
(174,720,o),
(33,569,o),
(33,354,cs),
(33,146,o),
(164,-20,o),
(383,-20,cs)
);
}
);
width = 753;
},
{
anchors = (
{
name = bottom;
pos = (397,-19);
},
{
name = top;
pos = (377,719);
}
);
layerId = "C3B1342C-4554-42D4-BF1D-4BC45B7A32A8";
shapes = (
{
closed = 1;
nodes = (
(556,-20,o),
(673,84,o),
(710,261,c),
(590,261,l),
(580,152,o),
(497,80,o),
(387,80,cs),
(250,80,o),
(163,192,o),
(163,354,cs),
(163,511,o),
(244,620,o),
(382,620,cs),
(474,620,o),
(551,571,o),
(580,485,c),
(700,485,l),
(653,637,o),
(547,720,o),
(391,720,cs),
(180,720,o),
(43,568,o),
(43,355,cs),
(43,142,o),
(180,-20,o),
(389,-20,cs)
);
}
);
width = 753;
},
{
anchors = (
{
name = bottom;
pos = (397,-19);
},
{
name = top;
pos = (377,719);
}
);
layerId = "966EEAD7-910A-41B6-BB10-BC7C26207015";
shapes = (
{
closed = 1;
nodes = (
(550,-20,o),
(667,79,o),
(700,261,c),
(610,261,l),
(594,140,o),
(503,60,o),
(387,60,cs),
(243,60,o),
(143,181,o),
(143,354,cs),
(143,524,o),
(239,640,o),
(380,640,cs),
(479,640,o),
(567,584,o),
(600,485,c),
(690,485,l),
(644,637,o),
(541,720,o),
(390,720,cs),
(190,720,o),
(53,572,o),
(53,355,cs),
(53,135,o),
(192,-20,o),
(390,-20,cs)
);
}
);
width = 753;
},
{
anchors = (
{
name = bottom;
pos = (397,-19);
},
{
name = top;
pos = (377,719);
}
);
layerId = "15700EBA-52AC-4D6B-A2D3-7F45C26CE079";
shapes = (
{
closed = 1;
nodes = (
(548,-20,o),
(659,84,o),
(690,261,c),
(630,261,l),
(610,120,o),
(520,35,o),
(391,35,cs),
(231,35,o),
(123,164,o),
(123,354,cs),
(123,541,o),
(227,665,o),
(385,665,cs),
(497,665,o),
(580,602,o),
(620,485,c),
(680,485,l),
(635,638,o),
(534,720,o),
(389,720,cs),
(195,720,o),
(63,572,o),
(63,355,cs),
(63,135,o),
(198,-20,o),
(390,-20,cs)
);
}
);
width = 753;
}
);
},
{
color = 6;
glyphname = Ccedilla.ss09;
kernLeft = C1;
kernRight = C;
lastChange = "2024-07-04 14:33:30 +0000";
layers = (
{
anchors = (
{
name = bottom;
pos = (377,-217);
},
{
name = top;
pos = (377,719);
}
);
layerId = "3DC573FB-EF22-4F14-BBA7-D097D7391B70";
shapes = (
{
closed = 1;
nodes = (
(578,-20,o),
(698,103,o),
(730,261,c),
(539,261,l),
(517,170,o),
(464,120,o),
(387,120,cs),
(283,120,o),
(214,215.415,o),
(214,356.026,cs),
(214,496.638,o),
(283,580,o),
(393,580,cs),
(460,580,o),
(509,546,o),
(529,485,c),
(720,485,l),
(676,623,o),
(571,720,o),
(390,720,cs),
(173,720,o),
(23,565,o),
(23,357,cs),
(23,146,o),
(177,-20,o),
(392,-20,cs)
);
},
{
closed = 1;
nodes = (
(456,-217,o),
(505,-190,o),
(505,-133,cs),
(505,-86,o),
(472,-63,o),
(404,-63,c),
(451.423,21.41,l),
(349.423,21.41,l),
(281,-108,l),
(297,-106,o),
(322,-104,o),
(339,-104,cs),
(369,-104,o),
(385,-110,o),
(385,-132,cs),
(385,-150,o),
(374,-163,o),
(337,-163,cs),
(316,-163,o),
(287,-159,o),
(271,-153,c),
(245,-204,l),
(267,-210,o),
(300,-217,o),
(353,-217,cs)
);
}
);
width = 753;
},
{
anchors = (
{
name = bottom;
pos = (377,-217);
},
{
name = top;
pos = (377,719);
}
);
layerId = "48315E7A-EC54-430B-915E-ECFED2D8F863";
shapes = (
{
closed = 1;
nodes = (
(575,-20,o),
(693,103,o),
(725,261,c),
(559,261,l),
(547,164,o),
(475,111,o),
(385,111,cs),
(266,111,o),
(195,203,o),
(195,353,cs),
(195,500,o),
(263,589,o),
(389,589,cs),
(473,589,o),
(523,550,o),
(549,485,c),
(715,485,l),
(672,623,o),
(558,720,o),
(389,720,cs),
(176,720,o),
(28,565,o),
(28,357,cs),
(28,146,o),
(180,-20,o),
(392,-20,cs)
);
},
{
closed = 1;
nodes = (
(449,-217,o),
(501,-191,o),
(501,-132,cs),
(501,-86,o),
(470,-63,o),
(400,-63,c),
(447.224,20,l),
(354.224,20,l),
(289,-103,l),
(304,-101,o),
(322,-99,o),
(336,-99,cs),
(369,-99,o),
(388,-110,o),
(388,-133,cs),
(388,-154,o),
(372,-167,o),
(343,-167,cs),
(325,-167,o),
(290,-162,o),
(270,-156,c),
(250,-204,l),
(272,-210,o),
(305,-217,o),
(352,-217,cs)
);
}
);
width = 753;
},
{
anchors = (
{
name = bottom;
pos = (377,-217);
},
{
name = top;
pos = (377,719);
}
);
layerId = "87250A93-E16C-45E7-81EC-EDE6CBCB21F2";
shapes = (
{
closed = 1;
nodes = (
(556,-20,o),
(682,84,o),
(720,261,c),
(577,261,l),
(561,163.394,o),
(499,100,o),
(391,100,cs),
(256,100,o),
(178,198.394,o),
(178,347.992,cs),
(178,501.606,o),
(260,600,o),
(396,600,cs),
(480,600,o),
(539,562.675,o),
(567,485,c),
(710,485,l),
(662,637,o),
(553,720,o),
(392,720,cs),
(174,720,o),
(33,569,o),
(33,354,cs),
(33,146,o),
(164,-20,o),
(383,-20,cs)
);
},
{
closed = 1;
nodes = (
(452,-217,o),
(501,-187,o),
(501,-134,cs),
(501,-88,o),
(465,-63,o),
(403,-63,c),
(447.665,17.274,l),
(361.665,17.274,l),
(304,-95,l),
(320,-93,o),
(333,-91,o),
(347,-91,cs),
(381,-91,o),
(401,-104,o),
(401,-131,cs),
(401,-157,o),
(381,-171,o),
(348,-171,cs),
(328,-171,o),
(300,-166,o),
(280,-160,c),
(260,-204,l),
(284,-212,o),
(318,-217,o),
(357,-217,cs)
);
}
);
width = 753;
},
{
anchors = (
{
name = bottom;
pos = (377,-217);
},
{
name = top;
pos = (377,719);
}
);
layerId = "C3B1342C-4554-42D4-BF1D-4BC45B7A32A8";
shapes = (
{
closed = 1;
nodes = (
(556,-20,o),
(673,84,o),
(710,261,c),
(590,261,l),
(580,152,o),
(497,80,o),
(387,80,cs),
(250,80,o),
(163,192,o),
(163,354,cs),
(163,511,o),
(244,620,o),
(382,620,cs),
(474,620,o),
(551,571,o),
(580,485,c),
(700,485,l),
(653,637,o),
(547,720,o),
(391,720,cs),
(180,720,o),
(43,568,o),
(43,355,cs),
(43,142,o),
(180,-20,o),
(389,-20,cs)
);
},
{
closed = 1;
nodes = (
(449,-217,o),
(496,-188,o),
(496,-135,cs),
(496,-88,o),
(460,-63,o),
(400,-63,c),
(442.784,14.546,l),
(369.784,14.546,l),
(317,-89,l),
(332,-87,o),
(343,-85,o),
(356,-85,cs),
(391,-85,o),
(412,-100,o),
(412,-129,cs),
(412,-157,o),
(392,-176,o),
(356,-176,cs),
(338,-176,o),
(310,-171,o),
(289,-165,c),
(270,-204,l),
(296,-210,o),
(325,-217,o),
(366,-217,cs)
);
}
);
width = 753;
},
{
anchors = (
{
name = bottom;
pos = (377,-217);
},
{
name = top;
pos = (377,719);
}
);
layerId = "966EEAD7-910A-41B6-BB10-BC7C26207015";
shapes = (
{
closed = 1;
nodes = (
(550,-20,o),
(667,79,o),
(700,261,c),
(610,261,l),
(594,140,o),
(503,60,o),
(387,60,cs),
(243,60,o),
(143,181,o),
(143,354,cs),
(143,524,o),
(239,640,o),
(380,640,cs),
(479,640,o),
(567,584,o),
(600,485,c),
(690,485,l),
(644,637,o),
(541,720,o),
(390,720,cs),
(190,720,o),
(53,572,o),
(53,355,cs),
(53,135,o),
(192,-20,o),
(390,-20,cs)
);
},
{
closed = 1;
nodes = (
(445,-217,o),
(491,-188,o),
(491,-136,cs),
(491,-89,o),
(454,-63,o),
(395,-63,c),
(439.74,15.895,l),
(382.74,15.895,l),
(328,-85,l),
(343,-83,o),
(354,-81,o),
(367,-81,cs),
(402,-81,o),
(423,-96,o),
(423,-131,cs),
(423,-165,o),
(404,-181,o),
(362,-181,cs),
(339,-181,o),
(317,-176,o),
(300,-170,c),
(281,-204,l),
(302,-210,o),
(326,-217,o),
(365,-217,cs)
);
}
);
width = 753;
},
{
anchors = (
{
name = bottom;
pos = (377,-217);
},
{
name = top;
pos = (377,719);
}
);
layerId = "15700EBA-52AC-4D6B-A2D3-7F45C26CE079";
shapes = (
{
closed = 1;
nodes = (
(548,-20,o),
(659,84,o),
(690,261,c),
(630,261,l),
(610,120,o),
(520,35,o),
(391,35,cs),
(231,35,o),
(123,164,o),
(123,354,cs),
(123,541,o),
(227,665,o),
(385,665,cs),
(497,665,o),
(580,602,o),
(620,485,c),
(680,485,l),
(635,638,o),
(534,720,o),
(389,720,cs),
(195,720,o),
(63,572,o),
(63,355,cs),
(63,135,o),
(198,-20,o),
(390,-20,cs)
);
},
{
closed = 1;
nodes = (
(445,-217,o),
(486,-187,o),
(486,-139,cs),
(486,-91,o),
(446,-63,o),
(388,-63,c),
(428.194,13.137,l),
(383.194,13.137,l),
(333,-81,l),
(345,-78,o),
(355,-77,o),
(365,-77,cs),
(410,-77,o),
(434,-97,o),
(434,-131,cs),
(434,-165,o),
(409,-187,o),
(364,-187,cs),
(343,-187,o),
(319,-182,o),
(301,-176,c),
(286,-204,l),
(306,-210,o),
(329,-217,o),
(367,-217,cs)
);
}
);
width = 753;
}
);
},
